<svg width="20" height="20" viewBox="0 0 20 20" fill="none" xmlns="http://www.w3.org/2000/svg">
<path fill-rule="evenodd" clip-rule="evenodd" d="M10.0478 1.4585C11.8734 1.45849 13.3073 1.45848 14.4268 1.60899C15.574 1.76323 16.4842 2.08576 17.1994 2.80092C17.9146 3.51609 18.2371 4.4263 18.3913 5.57351C18.5418 6.69302 18.5418 8.12691 18.5418 9.9525V10.0478C18.5418 11.8734 18.5418 13.3073 18.3913 14.4268C18.2371 15.574 17.9146 16.4842 17.1994 17.1994C16.4842 17.9146 15.574 18.2371 14.4268 18.3913C13.3073 18.5418 11.8734 18.5418 10.0478 18.5418H9.9525C8.12691 18.5418 6.69302 18.5418 5.57351 18.3913C4.4263 18.2371 3.51609 17.9146 2.80092 17.1994C2.08576 16.4842 1.76323 15.574 1.60899 14.4268C1.45848 13.3073 1.45849 11.8734 1.4585 10.0478V9.9525C1.45849 8.12693 1.45848 6.69303 1.60899 5.57351C1.76323 4.4263 2.08576 3.51609 2.80092 2.80092C3.51609 2.08576 4.4263 1.76323 5.57351 1.60899C6.69303 1.45848 8.12693 1.45849 9.9525 1.4585H10.0478ZM9.73508 8.77291C9.94091 8.80058 10.2257 8.87466 10.4674 9.11633C10.7091 9.358 10.7832 9.64275 10.8108 9.84866C10.8337 10.0192 10.8336 10.2175 10.8335 10.384V10.4168V13.7502C10.8335 14.2104 10.4604 14.5835 10.0002 14.5835C9.53991 14.5835 9.16683 14.2104 9.16683 13.7502V10.4168C8.70658 10.4168 8.3335 10.0437 8.3335 9.5835C8.3335 9.12325 8.70658 8.75016 9.16683 8.75016H9.19966C9.36625 8.75008 9.5645 8.74991 9.73508 8.77291ZM9.99633 5.41683C9.53816 5.41683 9.16675 5.78993 9.16675 6.25016C9.16675 6.7104 9.53816 7.0835 9.99633 7.0835H10.0038C10.462 7.0835 10.8334 6.7104 10.8334 6.25016C10.8334 5.78993 10.462 5.41683 10.0038 5.41683H9.99633Z" fill="#3689FD"/>
</svg>
