<svg width="106" height="28" viewBox="0 0 106 28" fill="none" xmlns="http://www.w3.org/2000/svg">
<path d="M2 14C2 9.58172 5.58172 6 10 6C12.3954 6 14.545 7.05282 16.0111 8.72098C18.6713 11.7076 20.8711 11.5505 23.2071 9.34563C24.3533 8.26341 25.8992 7.6 27.6 7.6C31.1346 7.6 34 10.4654 34 14C34 17.5346 31.1346 20.4 27.6 20.4C25.8992 20.4 24.3533 19.7366 23.2071 18.6543C20.8716 16.45 18.6724 16.2924 16.0131 19.2768C14.5469 20.9463 12.3965 22 10 22C5.58172 22 2 18.4183 2 14Z" fill="#F2F5FA"/>
<path d="M2 14C2 9.58172 5.58172 6 10 6C12.3954 6 14.545 7.05282 16.0111 8.72098C18.6713 11.7076 20.8711 11.5505 23.2071 9.34563C24.3533 8.26341 25.8992 7.6 27.6 7.6C31.1346 7.6 34 10.4654 34 14C34 17.5346 31.1346 20.4 27.6 20.4C25.8992 20.4 24.3533 19.7366 23.2071 18.6543C20.8716 16.45 18.6724 16.2924 16.0131 19.2768C14.5469 20.9463 12.3965 22 10 22C5.58172 22 2 18.4183 2 14Z" fill="url(#paint0_linear_128_9151)"/>
<path d="M2 14C2 9.58172 5.58172 6 10 6C12.3954 6 14.545 7.05282 16.0111 8.72098C18.6713 11.7076 20.8711 11.5505 23.2071 9.34563C24.3533 8.26341 25.8992 7.6 27.6 7.6C31.1346 7.6 34 10.4654 34 14C34 17.5346 31.1346 20.4 27.6 20.4C25.8992 20.4 24.3533 19.7366 23.2071 18.6543C20.8716 16.45 18.6724 16.2924 16.0131 19.2768C14.5469 20.9463 12.3965 22 10 22C5.58172 22 2 18.4183 2 14Z" fill="url(#paint1_linear_128_9151)"/>
<path d="M2 14C2 9.58172 5.58172 6 10 6C12.3954 6 14.545 7.05282 16.0111 8.72098C18.6713 11.7076 20.8711 11.5505 23.2071 9.34563C24.3533 8.26341 25.8992 7.6 27.6 7.6C31.1346 7.6 34 10.4654 34 14C34 17.5346 31.1346 20.4 27.6 20.4C25.8992 20.4 24.3533 19.7366 23.2071 18.6543C20.8716 16.45 18.6724 16.2924 16.0131 19.2768C14.5469 20.9463 12.3965 22 10 22C5.58172 22 2 18.4183 2 14Z" fill="url(#paint2_radial_128_9151)"/>
<path d="M2 14C2 9.58172 5.58172 6 10 6C12.3954 6 14.545 7.05282 16.0111 8.72098C18.6713 11.7076 20.8711 11.5505 23.2071 9.34563C24.3533 8.26341 25.8992 7.6 27.6 7.6C31.1346 7.6 34 10.4654 34 14C34 17.5346 31.1346 20.4 27.6 20.4C25.8992 20.4 24.3533 19.7366 23.2071 18.6543C20.8716 16.45 18.6724 16.2924 16.0131 19.2768C14.5469 20.9463 12.3965 22 10 22C5.58172 22 2 18.4183 2 14Z" fill="url(#paint3_radial_128_9151)"/>
<path d="M2 14C2 9.58172 5.58172 6 10 6C12.3954 6 14.545 7.05282 16.0111 8.72098C18.6713 11.7076 20.8711 11.5505 23.2071 9.34563C24.3533 8.26341 25.8992 7.6 27.6 7.6C31.1346 7.6 34 10.4654 34 14C34 17.5346 31.1346 20.4 27.6 20.4C25.8992 20.4 24.3533 19.7366 23.2071 18.6543C20.8716 16.45 18.6724 16.2924 16.0131 19.2768C14.5469 20.9463 12.3965 22 10 22C5.58172 22 2 18.4183 2 14Z" fill="#55D0FF"/>
<path d="M36.4043 17.3704H42.6679V15.5868H38.3143V7.25879H36.4043V17.3704Z" fill="#55D0FF"/>
<path d="M46.4316 17.5812C47.19 17.5812 47.8571 17.4126 48.4329 17.0756C49.0134 16.7339 49.4651 16.2634 49.7882 15.6642C50.1158 15.0603 50.2797 14.3651 50.2797 13.5787C50.2797 12.7969 50.1182 12.1064 49.7952 11.5072C49.4721 10.9033 49.0204 10.4305 48.4399 10.0888C47.8641 9.74704 47.1947 9.57617 46.4316 9.57617C45.6826 9.57617 45.0202 9.74472 44.4444 10.0818C43.8687 10.4188 43.4169 10.8893 43.0892 11.4932C42.7615 12.0924 42.5977 12.7875 42.5977 13.5787C42.5977 14.3604 42.7568 15.0533 43.0752 15.6572C43.3982 16.2564 43.8476 16.7268 44.4234 17.0686C44.9992 17.4103 45.6686 17.5812 46.4316 17.5812ZM46.4316 15.7976C45.8371 15.7976 45.3854 15.5987 45.0764 15.2008C44.7721 14.7982 44.62 14.2575 44.62 13.5787C44.62 12.9186 44.7651 12.3849 45.0554 11.9777C45.3503 11.5657 45.809 11.3597 46.4316 11.3597C47.0356 11.3597 47.4896 11.5611 47.7939 11.9636C48.1029 12.3662 48.2574 12.9046 48.2574 13.5787C48.2574 14.2294 48.1052 14.763 47.8009 15.1797C47.5013 15.5916 47.0449 15.7976 46.4316 15.7976Z" fill="#55D0FF"/>
<path d="M54.0569 17.5812C54.4127 17.5812 54.7404 17.539 55.0401 17.4548C55.3443 17.3705 55.6205 17.2512 55.8686 17.0967V17.8621C55.878 18.143 55.8054 18.377 55.6509 18.5643C55.5011 18.7562 55.2999 18.899 55.0471 18.9926C54.7943 19.0909 54.5251 19.1401 54.2396 19.1401C53.9727 19.1401 53.7246 19.0816 53.4952 18.9645C53.2705 18.8475 53.0973 18.6766 52.9756 18.4519L51.2061 19.3086C51.4963 19.8001 51.9106 20.1957 52.4489 20.4953C52.9873 20.7996 53.5795 20.9517 54.2255 20.9517C54.7826 20.9517 55.2999 20.8768 55.7773 20.727C56.2548 20.5819 56.6574 20.3596 56.9851 20.0599C57.3175 19.7603 57.5446 19.3788 57.6663 18.9154C57.7084 18.7515 57.7364 18.5853 57.7505 18.4168C57.7692 18.253 57.7786 18.0774 57.7786 17.8902V9.78682H56.1074V10.2082C55.8499 10.0068 55.5573 9.85237 55.2296 9.74472C54.9066 9.63234 54.5485 9.57617 54.1553 9.57617C53.4297 9.57617 52.7977 9.74941 52.2594 10.0958C51.721 10.4422 51.302 10.9174 51.0024 11.5213C50.7075 12.1204 50.5601 12.8063 50.5601 13.5787C50.5601 14.3371 50.7052 15.0182 50.9954 15.6221C51.2903 16.2259 51.6999 16.7035 52.2242 17.0546C52.7485 17.4056 53.3595 17.5812 54.0569 17.5812ZM54.3659 15.8819C53.954 15.8819 53.6169 15.7789 53.3548 15.5729C53.0926 15.367 52.8983 15.0908 52.772 14.7443C52.6456 14.3932 52.5823 14.0047 52.5823 13.5787C52.5823 13.1574 52.6479 12.7735 52.779 12.4271C52.9101 12.076 53.1113 11.7975 53.3828 11.5915C53.659 11.3808 54.0102 11.2755 54.4361 11.2755C55.0354 11.2755 55.4637 11.4885 55.7212 11.9145C55.9787 12.3358 56.1074 12.8905 56.1074 13.5787C56.1074 14.2668 55.9763 14.8239 55.7142 15.2499C55.4567 15.6712 55.0073 15.8819 54.3659 15.8819Z" fill="#55D0FF"/>
<path d="M62.3149 17.5812C63.0733 17.5812 63.7404 17.4126 64.3162 17.0756C64.8967 16.7339 65.3484 16.2634 65.6715 15.6642C65.9991 15.0603 66.163 14.3651 66.163 13.5787C66.163 12.7969 66.0015 12.1064 65.6785 11.5072C65.3554 10.9033 64.9037 10.4305 64.3232 10.0888C63.7474 9.74704 63.078 9.57617 62.3149 9.57617C61.5659 9.57617 60.9035 9.74472 60.3277 10.0818C59.752 10.4188 59.3002 10.8893 58.9725 11.4932C58.6448 12.0924 58.481 12.7875 58.481 13.5787C58.481 14.3604 58.6401 15.0533 58.9585 15.6572C59.2815 16.2564 59.7309 16.7268 60.3067 17.0686C60.8825 17.4103 61.5519 17.5812 62.3149 17.5812ZM62.3149 15.7976C61.7204 15.7976 61.2687 15.5987 60.9597 15.2008C60.6554 14.7982 60.5033 14.2575 60.5033 13.5787C60.5033 12.9186 60.6484 12.3849 60.9387 11.9777C61.2336 11.5657 61.6923 11.3597 62.3149 11.3597C62.9189 11.3597 63.3729 11.5611 63.6772 11.9636C63.9862 12.3662 64.1407 12.9046 64.1407 13.5787C64.1407 14.2294 63.9885 14.763 63.6842 15.1797C63.3846 15.5916 62.9282 15.7976 62.3149 15.7976Z" fill="#55D0FF"/>
<path d="M67.0049 8.73358H68.9148V7.04834H67.0049V8.73358ZM67.0049 17.3706H68.9148V9.78688H67.0049V17.3706Z" fill="#55D0FF"/>
<path d="M70.1631 20.7411H72.0871V17.0967C72.3352 17.2512 72.6091 17.3705 72.9087 17.4548C73.213 17.539 73.543 17.5812 73.8988 17.5812C74.5963 17.5812 75.2072 17.4056 75.7315 17.0546C76.2558 16.7035 76.6631 16.2259 76.9533 15.6221C77.2482 15.0182 77.3957 14.3371 77.3957 13.5787C77.3957 12.8063 77.2459 12.1204 76.9463 11.5213C76.6514 10.9174 76.2348 10.4422 75.6964 10.0958C75.1581 9.74941 74.5261 9.57617 73.8005 9.57617C73.4072 9.57617 73.0468 9.63234 72.7191 9.74472C72.3961 9.85237 72.1058 10.0068 71.8484 10.2082V9.78682H70.1631V20.7411ZM73.5898 15.8819C72.9532 15.8819 72.5038 15.6712 72.2416 15.2499C71.9794 14.8239 71.8484 14.2668 71.8484 13.5787C71.8484 12.8905 71.9771 12.3358 72.2346 11.9145C72.4967 11.4885 72.9251 11.2755 73.5196 11.2755C73.9456 11.2755 74.2943 11.3808 74.5658 11.5915C74.842 11.7975 75.0457 12.076 75.1768 12.4271C75.3079 12.7735 75.3734 13.1574 75.3734 13.5787C75.3734 14.0047 75.3102 14.3932 75.1838 14.7443C75.0574 15.0908 74.8631 15.367 74.601 15.5729C74.3388 15.7789 74.0018 15.8819 73.5898 15.8819Z" fill="#55D0FF"/>
<path d="M80.8563 17.5812C81.8487 17.5812 82.6258 17.3588 83.1875 16.9141C83.7493 16.4694 84.0302 15.8585 84.0302 15.0814C84.0302 14.4915 83.8476 14.0258 83.4825 13.684C83.122 13.3423 82.5088 13.059 81.6427 12.8344C81.0529 12.6845 80.6129 12.5628 80.3226 12.4692C80.037 12.3756 79.8475 12.2843 79.7538 12.1954C79.6649 12.1064 79.6204 11.9964 79.6204 11.8653C79.6204 11.6453 79.7257 11.4768 79.9364 11.3597C80.1517 11.2427 80.4349 11.1959 80.7861 11.2193C81.5304 11.2755 81.9377 11.5938 82.0078 12.1743L83.96 11.8232C83.8617 11.1351 83.5246 10.5897 82.9488 10.1871C82.373 9.77981 81.638 9.57617 80.7439 9.57617C79.8264 9.57617 79.0937 9.79151 78.5461 10.2222C77.9984 10.6529 77.7245 11.2333 77.7245 11.9636C77.7245 12.5441 77.9141 13.0029 78.2933 13.3399C78.6725 13.6723 79.3255 13.9579 80.2524 14.1966C80.8001 14.3417 81.2027 14.4588 81.4602 14.5477C81.7223 14.6366 81.8908 14.728 81.9657 14.8216C82.0406 14.9105 82.0781 15.0299 82.0781 15.1797C82.0781 15.4184 81.9845 15.6057 81.7972 15.7415C81.6099 15.8725 81.3431 15.938 80.9967 15.938C80.5754 15.938 80.2267 15.8374 79.9505 15.6361C79.6789 15.4348 79.5034 15.1563 79.4238 14.8005L77.4717 15.0954C77.5981 15.8866 77.9539 16.4998 78.539 16.9352C79.1289 17.3659 79.9013 17.5812 80.8563 17.5812Z" fill="#55D0FF"/>
<path d="M87.5536 17.5951C88.1013 17.5951 88.5788 17.5038 88.9861 17.3212C89.3934 17.1386 89.7351 16.8952 90.0113 16.5909V17.3703H91.6964V9.78662H89.7725V13.6347C89.7725 14.1028 89.7187 14.482 89.611 14.7722C89.508 15.0578 89.3746 15.2754 89.2107 15.4252C89.0469 15.5704 88.8714 15.6687 88.6841 15.7202C88.4969 15.7717 88.3213 15.7974 88.1575 15.7974C87.7502 15.7974 87.4342 15.7061 87.2095 15.5236C86.9895 15.341 86.8303 15.114 86.732 14.8425C86.6337 14.5709 86.5752 14.3018 86.5565 14.0349C86.5378 13.7634 86.5284 13.541 86.5284 13.3678V9.78662H84.5903V14.042C84.5903 14.1683 84.5997 14.3696 84.6184 14.6458C84.6371 14.922 84.691 15.2287 84.7799 15.5657C84.8689 15.8981 85.0163 16.2187 85.2223 16.5277C85.433 16.8367 85.7256 17.0918 86.1001 17.2931C86.4746 17.4944 86.9591 17.5951 87.5536 17.5951Z" fill="#55D0FF"/>
<path d="M92.8022 17.3708H94.7261V12.7784C94.7261 12.3431 94.8453 11.9897 95.0842 11.7181C95.3275 11.4419 95.648 11.3038 96.0464 11.3038C96.4629 11.3038 96.7885 11.4443 97.0224 11.7252C97.2607 12.0013 97.3805 12.3899 97.3805 12.8908V17.3708H99.2905V12.7784C99.2905 12.3431 99.4097 11.9897 99.6486 11.7181C99.8919 11.4419 100.212 11.3038 100.61 11.3038C101.027 11.3038 101.352 11.4443 101.586 11.7252C101.825 12.0013 101.945 12.3899 101.945 12.8908V17.3708H103.854V12.3852C103.854 11.5566 103.632 10.8872 103.187 10.3769C102.748 9.86198 102.094 9.60449 101.228 9.60449C100.742 9.60449 100.295 9.70982 99.8869 9.92046C99.4798 10.1312 99.1548 10.4191 98.9109 10.7842C98.7145 10.4284 98.4337 10.1429 98.0685 9.92753C97.7032 9.71219 97.2491 9.60449 96.7062 9.60449C96.2472 9.60449 95.8262 9.6958 95.4422 9.87837C95.0582 10.0562 94.7399 10.302 94.4872 10.6156V9.78706H92.8022V17.3708Z" fill="#55D0FF"/>
<defs>
<linearGradient id="paint0_linear_128_9151" x1="26.1082" y1="17.9762" x2="7.68475" y2="3.65888" gradientUnits="userSpaceOnUse">
<stop stop-color="#FF557E"/>
<stop offset="0.841052" stop-color="#FF5555" stop-opacity="0"/>
</linearGradient>
<linearGradient id="paint1_linear_128_9151" x1="10.0013" y1="20.9271" x2="14.9235" y2="3.87588" gradientUnits="userSpaceOnUse">
<stop stop-color="#3CD30F"/>
<stop offset="1" stop-color="#D9FEC9"/>
</linearGradient>
<radialGradient id="paint2_radial_128_9151" cx="0" cy="0" r="1" gradientUnits="userSpaceOnUse" gradientTransform="translate(27.0968 25.333) rotate(-122.928) scale(20.4419 16.7389)">
<stop stop-color="#3CD30F"/>
<stop offset="0.568731" stop-color="#8172DA" stop-opacity="0.26"/>
<stop offset="1" stop-color="#8172DA" stop-opacity="0"/>
</radialGradient>
<radialGradient id="paint3_radial_128_9151" cx="0" cy="0" r="1" gradientUnits="userSpaceOnUse" gradientTransform="translate(12.0977 3.6855) rotate(77.6745) scale(13.7692 21.6422)">
<stop stop-color="#41D1B7"/>
<stop offset="0.492704" stop-color="#41D1B7" stop-opacity="0.35"/>
<stop offset="1" stop-color="#41D1B7" stop-opacity="0"/>
</radialGradient>
</defs>
</svg>
