<svg width="24" height="24" viewBox="0 0 24 24" fill="none" xmlns="http://www.w3.org/2000/svg">
<g clip-path="url(#clip0_249_27246)">
<path d="M12 24C18.6274 24 24 18.6274 24 12C24 5.37258 18.6274 0 12 0C5.37259 0 0 5.37258 0 12C0 18.6274 5.37259 24 12 24Z" fill="white"/>
</g>
<g clip-path="url(#clip1_249_27246)">
<path d="M11.2361 7.11303C12.175 7.11303 12.9987 6.74641 13.707 6.01313C14.4154 5.27986 14.7696 4.42719 14.7696 3.45513C14.7696 3.34837 14.7612 3.19666 14.7443 3C14.6206 3.01686 14.5279 3.0309 14.466 3.04214C13.6002 3.16576 12.8384 3.58999 12.1806 4.31482C11.5229 5.03966 11.194 5.81507 11.194 6.64106C11.194 6.73656 11.208 6.89391 11.2361 7.11303ZM14.601 20C15.27 20 16.0093 19.5421 16.8189 18.6262C17.6285 17.7103 18.2469 16.6343 18.6742 15.3981C17.0831 14.5778 16.2876 13.4006 16.2876 11.8666C16.2876 10.5855 16.9313 9.48985 18.2188 8.57958C17.3249 7.46141 16.1442 6.90232 14.6769 6.90232C14.0584 6.90232 13.4934 6.99504 12.9818 7.18046L12.6613 7.29846L12.2312 7.46703C11.9501 7.57379 11.6943 7.62719 11.4638 7.62719C11.2839 7.62719 11.0478 7.56536 10.7554 7.44174L10.4265 7.30689L10.1145 7.18046C9.65913 6.98942 9.17001 6.89389 8.64716 6.89389C7.24726 6.89389 6.12284 7.36589 5.2739 8.30987C4.42495 9.25383 4.00049 10.4984 4.00049 12.0436C4.00049 14.2181 4.68076 16.2269 6.04131 18.0699C6.98583 19.3566 7.84882 20 8.63029 20C8.962 20 9.29089 19.9354 9.61697 19.8061L10.0302 19.6376L10.3591 19.5196C10.8201 19.3566 11.2446 19.2752 11.6325 19.2752C12.0429 19.2752 12.5152 19.3791 13.0493 19.587L13.3107 19.6881C13.856 19.896 14.2861 20 14.601 20Z" fill="black"/>
</g>
<defs>
<clipPath id="clip0_249_27246">
<rect width="24" height="24" fill="white"/>
</clipPath>
<clipPath id="clip1_249_27246">
<rect width="14.6744" height="17" fill="white" transform="translate(4 3)"/>
</clipPath>
</defs>
</svg>
