<svg width="64" height="55" viewBox="0 0 64 55" fill="none" xmlns="http://www.w3.org/2000/svg">
<path d="M42.2501 2.5H41.9976C41.666 2.5 41.3481 2.3683 41.1137 2.13388C40.8793 1.89946 40.7476 1.58152 40.7476 1.25C40.7476 0.918479 40.8793 0.600537 41.1137 0.366117C41.3481 0.131696 41.666 0 41.9976 0H42.2501C42.5816 0 42.8995 0.131696 43.1339 0.366117C43.3684 0.600537 43.5001 0.918479 43.5001 1.25C43.5001 1.58152 43.3684 1.89946 43.1339 2.13388C42.8995 2.3683 42.5816 2.5 42.2501 2.5ZM24.7501 15H24.4976C24.166 15 23.8481 14.8683 23.6137 14.6339C23.3793 14.3995 23.2476 14.0815 23.2476 13.75C23.2476 13.4185 23.3793 13.1005 23.6137 12.8661C23.8481 12.6317 24.166 12.5 24.4976 12.5H24.7501C25.0816 12.5 25.3995 12.6317 25.6339 12.8661C25.8684 13.1005 26.0001 13.4185 26.0001 13.75C26.0001 14.0815 25.8684 14.3995 25.6339 14.6339C25.3995 14.8683 25.0816 15 24.7501 15ZM27.5001 2.5H27.2501C26.9185 2.5 26.6006 2.3683 26.3662 2.13388C26.1318 1.89946 26.0001 1.58152 26.0001 1.25C26.0001 0.918479 26.1318 0.600537 26.3662 0.366117C26.6006 0.131696 26.9185 0 27.2501 0C27.9401 0 28.6251 0.56 28.6251 1.25C28.6251 1.94 28.1901 2.5 27.5001 2.5ZM62.2501 32.5H61.9976C61.666 32.5 61.3481 32.3683 61.1137 32.1339C60.8793 31.8995 60.7476 31.5815 60.7476 31.25C60.7476 30.9185 60.8793 30.6005 61.1137 30.3661C61.3481 30.1317 61.666 30 61.9976 30H62.2501C62.5816 30 62.8995 30.1317 63.1339 30.3661C63.3684 30.6005 63.5001 30.9185 63.5001 31.25C63.5001 31.5815 63.3684 31.8995 63.1339 32.1339C62.8995 32.3683 62.5816 32.5 62.2501 32.5ZM47.2501 55H46.9976C46.666 55 46.3481 54.8683 46.1137 54.6339C45.8793 54.3995 45.7476 54.0815 45.7476 53.75C45.7476 53.4185 45.8793 53.1005 46.1137 52.8661C46.3481 52.6317 46.666 52.5 46.9976 52.5H47.2501C47.5816 52.5 47.8995 52.6317 48.1339 52.8661C48.3684 53.1005 48.5001 53.4185 48.5001 53.75C48.5001 54.0815 48.3684 54.3995 48.1339 54.6339C47.8995 54.8683 47.5816 55 47.2501 55ZM52.5001 45H52.2501C51.9185 45 51.6006 44.8683 51.3662 44.6339C51.1318 44.3995 51.0001 44.0815 51.0001 43.75C51.0001 43.4185 51.1318 43.1005 51.3662 42.8661C51.6006 42.6317 51.9185 42.5 52.2501 42.5C52.9401 42.5 53.6251 43.06 53.6251 43.75C53.6251 44.44 53.1901 45 52.5001 45ZM10.0001 52.5H9.75006C9.41854 52.5 9.1006 52.3683 8.86618 52.1339C8.63175 51.8995 8.50006 51.5815 8.50006 51.25C8.50006 50.9185 8.63175 50.6005 8.86618 50.3661C9.1006 50.1317 9.41854 50 9.75006 50C10.4401 50 11.1251 50.56 11.1251 51.25C11.1251 51.94 10.6901 52.5 10.0001 52.5ZM5.00006 30H4.75006C4.41854 30 4.1006 29.8683 3.86618 29.6339C3.63176 29.3995 3.50006 29.0815 3.50006 28.75C3.50006 28.4185 3.63176 28.1005 3.86618 27.8661C4.1006 27.6317 4.41854 27.5 4.75006 27.5C5.44006 27.5 6.12506 28.06 6.12506 28.75C6.12506 29.44 5.69006 30 5.00006 30ZM2.25006 22.5H1.99756C1.66604 22.5 1.3481 22.3683 1.11367 22.1339C0.879254 21.8995 0.747559 21.5815 0.747559 21.25C0.747559 20.9185 0.879254 20.6005 1.11367 20.3661C1.3481 20.1317 1.66604 20 1.99756 20H2.25006C2.58158 20 2.89952 20.1317 3.13394 20.3661C3.36836 20.6005 3.50006 20.9185 3.50006 21.25C3.50006 21.5815 3.36836 21.8995 3.13394 22.1339C2.89952 22.3683 2.58158 22.5 2.25006 22.5Z" fill="black"/>
</svg>
