<svg width="80" height="80" viewBox="0 0 80 80" fill="none" xmlns="http://www.w3.org/2000/svg">
<path d="M41.2325 49.4727C37.7527 49.4687 34.4166 48.0846 31.9561 45.6241C29.4955 43.1635 28.1115 39.8274 28.1075 36.3477C28.1075 33.9352 30.07 31.9727 32.4825 31.9727C34.895 31.9727 36.8575 33.9352 36.8575 36.3477C36.8575 37.3627 37.1975 38.3177 37.84 39.1077C38.0492 39.3646 38.1477 39.6941 38.114 40.0237C38.0802 40.3533 37.9169 40.656 37.66 40.8652C37.4031 41.0743 37.0735 41.1729 36.744 41.1391C36.4144 41.1054 36.1117 40.9421 35.9025 40.6852C34.9066 39.4597 34.362 37.9293 34.36 36.3502C34.36 35.8529 34.1624 35.376 33.8108 35.0243C33.4592 34.6727 32.9823 34.4752 32.485 34.4752C31.9877 34.4752 31.5108 34.6727 31.1592 35.0243C30.8075 35.376 30.61 35.8529 30.61 36.3502C30.6123 37.9394 30.9706 39.508 31.6587 40.9405C32.3468 42.3731 33.3472 43.6333 34.5862 44.6285C35.8253 45.6237 37.2717 46.3286 38.8189 46.6915C40.3662 47.0543 41.9752 47.0658 43.5275 46.7252C43.8514 46.6532 44.1906 46.7129 44.4705 46.8911C44.7504 47.0692 44.948 47.3513 45.02 47.6752C45.0919 47.9991 45.0322 48.3383 44.8541 48.6182C44.6759 48.8981 44.3939 49.0957 44.07 49.1677C43.1379 49.3711 42.1865 49.4734 41.2325 49.4727Z" fill="black"/>
<path d="M35.1625 68.7502L34.7225 68.7477C31.055 68.6827 27.8125 67.1152 25.59 64.3402C24.04 62.4052 22.4825 59.2152 22.3775 54.1677C21.9161 54.4932 21.4186 54.7641 20.895 54.9752C19.37 55.6202 16.6325 55.5152 14.6875 54.2227C13.3725 53.3502 12.65 52.0552 12.6525 50.5777C12.655 49.2977 13.105 48.2077 13.95 47.4202C14.94 46.4977 16.255 46.1802 17.1925 46.0802C18.2025 40.8927 21.685 37.8577 26.2825 38.2477C28.3 38.4227 30.07 39.3552 31.405 40.9502C33.8425 43.8627 34.405 48.2827 34.1175 51.4477C34.0809 51.7751 33.9192 52.0757 33.6663 52.2867C33.4133 52.4977 33.0886 52.6029 32.76 52.5802C32.5965 52.5655 32.4375 52.5186 32.2921 52.4424C32.1467 52.3662 32.0177 52.2621 31.9126 52.136C31.8074 52.01 31.7281 51.8644 31.6792 51.7077C31.6303 51.551 31.6127 51.3862 31.6275 51.2227C31.86 48.6777 31.4375 44.8802 29.49 42.5527C28.5775 41.4652 27.4275 40.8527 26.07 40.7352C22.5175 40.4402 20.07 42.9352 19.5075 47.4452C19.4614 47.7589 19.3007 48.0445 19.0565 48.2467C18.8123 48.4489 18.5018 48.5535 18.185 48.5402C17.7175 48.5052 16.36 48.5902 15.6525 49.2552C15.44 49.4552 15.16 49.8077 15.1575 50.5852C15.15 51.2177 15.45 51.7252 16.07 52.1377C17.1925 52.8802 19.06 53.0352 19.92 52.6702C20.84 52.2802 22.065 51.7602 22.8675 48.1377C22.9425 47.6802 23.03 47.2127 23.1275 46.7352C23.1887 46.4111 23.3755 46.1243 23.6473 45.9374C23.9191 45.7504 24.2537 45.6785 24.5783 45.7372C24.9028 45.7959 25.191 45.9805 25.3801 46.2508C25.5691 46.5211 25.6437 46.8552 25.5875 47.1802C25.5113 47.6582 25.4229 48.1342 25.3225 48.6077C24.2825 54.7752 25.045 59.6527 27.5425 62.7702C29.2925 64.9577 31.8625 66.1902 34.77 66.2427L35.165 66.2452C47.0475 66.2452 49.92 56.4252 51.6475 50.5327C52.2325 48.5327 52.585 47.3227 53.2475 46.6627C53.4525 46.4577 53.8725 46.1327 54.445 45.6977C57.3375 43.5077 64.1125 38.3752 63.74 30.9052C63.4275 24.6677 58.045 19.5927 51.7375 19.5927C48.7548 19.596 45.8952 20.7823 43.7862 22.8914C41.6771 25.0005 40.4908 27.86 40.4875 30.8427C40.5471 31.1338 40.5011 31.4366 40.3577 31.6968C40.2143 31.957 39.9829 32.1576 39.705 32.2627C38.87 32.57 38.1496 33.1264 37.6412 33.8566C37.1328 34.5868 36.861 35.4555 36.8625 36.3452C36.8625 38.2027 38.0575 39.8577 39.8325 40.4627C39.9935 40.5109 40.1432 40.591 40.2725 40.6984C40.4019 40.8057 40.5082 40.9381 40.5853 41.0875C40.6623 41.2369 40.7084 41.4003 40.7208 41.5679C40.7333 41.7355 40.7117 41.9039 40.6576 42.0631C40.6034 42.2222 40.5177 42.3688 40.4056 42.494C40.2935 42.6192 40.1573 42.7206 40.0051 42.792C39.8529 42.8634 39.6879 42.9033 39.5199 42.9095C39.3519 42.9156 39.1845 42.8878 39.0275 42.8277C37.6703 42.3698 36.4905 41.4983 35.6539 40.3357C34.8172 39.173 34.3656 37.7776 34.3625 36.3452C34.3625 33.8127 35.7925 31.4852 37.9975 30.2977C38.1426 26.7497 39.6532 23.395 42.2137 20.9347C44.7742 18.4743 48.1865 17.0987 51.7375 17.0952C59.355 17.0952 65.8575 23.2352 66.235 30.7827C66.6775 39.5727 58.8875 45.4702 55.955 47.6927C55.51 48.0277 55.175 48.2727 55.0175 48.4327C54.7875 48.7152 54.3775 50.1127 54.0475 51.2377C52.3725 56.9427 48.915 68.7502 35.1625 68.7502Z" fill="black"/>
<path d="M40 77.5C19.3225 77.5 2.5 60.6775 2.5 40C2.5 31.215 6.51 20.5775 11.8225 15.255C14.4125 12.6575 18.0125 11.8775 20.995 13.27C23.8475 14.6 25.4275 17.57 25.12 21.0175C24.915 23.31 23.86 24.87 22.93 26.245C21.895 27.7775 21.145 28.885 21.6375 30.7225C22.17 32.7025 23.2375 33.6425 25.44 34.0825C25.754 34.1581 26.0265 34.3522 26.2006 34.6242C26.3746 34.8962 26.4366 35.2251 26.3736 35.5418C26.3105 35.8585 26.1274 36.1385 25.8625 36.3232C25.5976 36.5079 25.2715 36.5829 24.9525 36.5325C22.985 36.1425 20.245 35.1825 19.2225 31.37C18.435 28.4325 19.7225 26.525 20.8575 24.845C21.6925 23.61 22.48 22.445 22.6275 20.795C22.8425 18.39 21.835 16.4225 19.935 15.535C18.33 14.785 15.82 14.785 13.5875 17.0225C9.4275 21.1925 5 30.665 5 40C5 59.3 20.7 75 40 75C59.3 75 75 59.3 75 40C75 20.7 59.3 5.00001 40 5.00001C33.515 5.00001 27.1875 6.78502 21.695 10.16C21.4134 10.3201 21.0806 10.3646 20.7668 10.2842C20.453 10.2037 20.1827 10.0046 20.0128 9.72875C19.843 9.45289 19.7868 9.12187 19.8563 8.80545C19.9257 8.48903 20.1153 8.21191 20.385 8.03252C26.2855 4.40907 33.0757 2.49386 40 2.50001C60.6775 2.50001 77.5 19.3225 77.5 40C77.5 60.6775 60.6775 77.5 40 77.5Z" fill="black"/>
<path d="M51.25 12.5H50.9975C50.666 12.5 50.348 12.3683 50.1136 12.1339C49.8792 11.8995 49.7475 11.5815 49.7475 11.25C49.7475 10.9185 49.8792 10.6005 50.1136 10.3661C50.348 10.1317 50.666 10 50.9975 10H51.25C51.5815 10 51.8995 10.1317 52.1339 10.3661C52.3683 10.6005 52.5 10.9185 52.5 11.25C52.5 11.5815 52.3683 11.8995 52.1339 12.1339C51.8995 12.3683 51.5815 12.5 51.25 12.5ZM33.75 25H33.4975C33.166 25 32.848 24.8683 32.6136 24.6339C32.3792 24.3995 32.2475 24.0815 32.2475 23.75C32.2475 23.4185 32.3792 23.1005 32.6136 22.8661C32.848 22.6317 33.166 22.5 33.4975 22.5H33.75C34.0815 22.5 34.3995 22.6317 34.6339 22.8661C34.8683 23.1005 35 23.4185 35 23.75C35 24.0815 34.8683 24.3995 34.6339 24.6339C34.3995 24.8683 34.0815 25 33.75 25ZM36.5 12.5H36.25C35.9185 12.5 35.6005 12.3683 35.3661 12.1339C35.1317 11.8995 35 11.5815 35 11.25C35 10.9185 35.1317 10.6005 35.3661 10.3661C35.6005 10.1317 35.9185 10 36.25 10C36.94 10 37.625 10.56 37.625 11.25C37.625 11.94 37.19 12.5 36.5 12.5ZM71.25 42.5H70.9975C70.666 42.5 70.348 42.3683 70.1136 42.1339C69.8792 41.8995 69.7475 41.5815 69.7475 41.25C69.7475 40.9185 69.8792 40.6005 70.1136 40.3661C70.348 40.1317 70.666 40 70.9975 40H71.25C71.5815 40 71.8995 40.1317 72.1339 40.3661C72.3683 40.6005 72.5 40.9185 72.5 41.25C72.5 41.5815 72.3683 41.8995 72.1339 42.1339C71.8995 42.3683 71.5815 42.5 71.25 42.5ZM56.25 65H55.9975C55.666 65 55.348 64.8683 55.1136 64.6339C54.8792 64.3995 54.7475 64.0815 54.7475 63.75C54.7475 63.4185 54.8792 63.1005 55.1136 62.8661C55.348 62.6317 55.666 62.5 55.9975 62.5H56.25C56.5815 62.5 56.8995 62.6317 57.1339 62.8661C57.3683 63.1005 57.5 63.4185 57.5 63.75C57.5 64.0815 57.3683 64.3995 57.1339 64.6339C56.8995 64.8683 56.5815 65 56.25 65ZM61.5 55H61.25C60.9185 55 60.6005 54.8683 60.3661 54.6339C60.1317 54.3995 60 54.0815 60 53.75C60 53.4185 60.1317 53.1005 60.3661 52.8661C60.6005 52.6317 60.9185 52.5 61.25 52.5C61.94 52.5 62.625 53.06 62.625 53.75C62.625 54.44 62.19 55 61.5 55ZM19 62.5H18.75C18.4185 62.5 18.1005 62.3683 17.8661 62.1339C17.6317 61.8995 17.5 61.5815 17.5 61.25C17.5 60.9185 17.6317 60.6005 17.8661 60.3661C18.1005 60.1317 18.4185 60 18.75 60C19.44 60 20.125 60.56 20.125 61.25C20.125 61.94 19.69 62.5 19 62.5ZM14 40H13.75C13.4185 40 13.1005 39.8683 12.8661 39.6339C12.6317 39.3995 12.5 39.0815 12.5 38.75C12.5 38.4185 12.6317 38.1005 12.8661 37.8661C13.1005 37.6317 13.4185 37.5 13.75 37.5C14.44 37.5 15.125 38.06 15.125 38.75C15.125 39.44 14.69 40 14 40ZM11.25 32.5H10.9975C10.666 32.5 10.348 32.3683 10.1136 32.1339C9.87919 31.8995 9.7475 31.5815 9.7475 31.25C9.7475 30.9185 9.87919 30.6005 10.1136 30.3661C10.348 30.1317 10.666 30 10.9975 30H11.25C11.5815 30 11.8995 30.1317 12.1339 30.3661C12.3683 30.6005 12.5 30.9185 12.5 31.25C12.5 31.5815 12.3683 31.8995 12.1339 32.1339C11.8995 32.3683 11.5815 32.5 11.25 32.5Z" fill="black"/>
</svg>
