<svg width="80" height="80" viewBox="0 0 80 80" fill="none" xmlns="http://www.w3.org/2000/svg">
<g clip-path="url(#clip0_249_26727)">
<path d="M66.9257 49.1639C67.6566 47.3239 68.5291 45.4163 69.453 43.3966C74.8305 31.6399 81.523 17.0081 62.9632 5.65266C58.5575 2.95719 52.8247 1.07094 46.8208 0.341101C40.578 -0.417493 34.5427 0.0820381 29.3678 1.78657C20.0407 4.85626 13.1789 10.6188 10.5419 17.5969C8.57065 22.813 9.08393 28.3689 12.0207 33.7052C11.0799 35.0984 10.103 36.3791 9.15472 37.6223C6.51612 41.0817 4.23753 44.0694 4.94597 47.0653C5.36784 48.8494 6.76972 50.3831 9.32268 51.8314C8.41315 52.9313 7.71128 54.1555 7.84018 55.4403C7.96612 56.6967 8.82143 57.6509 9.80425 58.4267C9.2605 59.5608 8.89628 60.8514 9.43753 61.9992C9.94128 63.0672 11.0311 63.6174 12.0997 63.9288C10.9341 67.7188 11.3155 70.4034 13.2392 71.9181C17.2307 75.0603 26.278 71.4069 29.6322 69.5561C32.0141 72.493 32.8475 75.8834 33.4908 79.1227C33.5401 79.371 33.674 79.5945 33.8696 79.7552C34.0653 79.9159 34.3106 80.0037 34.5638 80.0038H69.2263C69.4099 80.0037 69.5906 79.9574 69.7517 79.8691C69.9127 79.7808 70.049 79.6535 70.1479 79.4987C70.2468 79.3439 70.3051 79.1668 70.3175 78.9835C70.3299 78.8003 70.296 78.6169 70.2189 78.4502C64.6605 66.4431 63.6447 57.4113 66.9257 49.1639ZM35.4574 77.8153C34.7957 74.6694 33.8597 71.422 31.5588 68.4636C35.651 66.1931 40.0655 63.3734 43.1624 59.0825L41.3882 57.802C38.2617 62.1344 33.7219 64.8125 29.3397 67.1844L29.3419 67.1883C29.3119 67.2045 29.281 67.218 29.2522 67.2372C28.1517 67.9736 25.1803 69.3977 22.0199 70.2584C18.4974 71.2175 15.86 71.1964 14.5932 70.1988C12.9882 68.9352 13.6852 65.8619 14.5525 63.5063C14.6079 63.3557 14.6295 63.1948 14.6158 63.0349C14.6021 62.875 14.5534 62.7202 14.4731 62.5812C14.3929 62.4423 14.2831 62.3227 14.1515 62.2309C14.0199 62.1391 13.8697 62.0774 13.7116 62.0502C11.9135 61.7406 11.5078 61.2588 11.4169 61.0659C11.2855 60.7875 11.3086 60.1413 12.1638 58.6439C12.3 58.4053 12.3415 58.1242 12.28 57.8564C12.2185 57.5886 12.0585 57.3538 11.8317 57.1986C10.6641 56.3992 10.0707 55.7527 10.0175 55.222C9.95409 54.5895 10.5586 53.6278 11.8657 52.2819C11.9861 52.1579 12.0755 52.0072 12.1264 51.8421C12.1774 51.6769 12.1885 51.502 12.1588 51.3318C12.1291 51.1615 12.0595 51.0007 11.9557 50.8625C11.8518 50.7243 11.7167 50.6128 11.5614 50.5369C8.86346 49.218 7.39628 47.9175 7.0755 46.5619C6.60518 44.5733 8.49815 42.0916 10.8947 38.9494C11.9397 37.5789 13.1246 36.0258 14.2202 34.3484C14.3315 34.1781 14.3931 33.9801 14.398 33.7766C14.4029 33.5732 14.351 33.3724 14.2482 33.1969C11.3594 28.2689 10.7857 23.1419 12.5888 18.3705C14.991 12.0139 21.356 6.72688 30.0522 3.86501C39.7689 0.664382 53.1297 2.20141 61.8213 7.51923C69.3722 12.1389 73.0285 17.6659 72.9986 24.4161C72.9722 30.4425 70.1716 36.5653 67.4633 42.4866C66.5275 44.5322 65.6436 46.4645 64.8925 48.3558C62.9882 53.1431 62.45 58.1889 63.2475 63.7816C63.8555 68.0434 65.2603 72.6484 67.5324 77.8153H35.4574ZM63.6731 40.6624C65.5732 38.9347 66.7814 36.6261 67.1117 34.0798C68.1891 32.3858 68.7569 30.428 68.7569 28.3995C68.759 25.9816 67.935 23.6354 66.4213 21.7499C66.7637 20.7633 66.9379 19.7262 66.9366 18.6819C66.9366 13.5166 62.7322 9.31423 57.5646 9.31423C55.9478 9.31271 54.3582 9.73024 52.9508 10.5261C52.0406 10.0691 51.0621 9.76327 50.0536 9.62048C48.0617 6.47329 43.9891 4.46876 39.4893 4.46876C36.345 4.46876 33.3246 5.46376 31.1194 7.21251C31.0836 7.21001 31.0485 7.20891 31.0128 7.20673C30.8253 7.19492 30.6375 7.18877 30.4496 7.18829C25.2842 7.18829 21.0819 11.3927 21.0819 16.5603C21.0819 16.7163 21.0869 16.8713 21.0946 17.0259C21.0957 17.0483 21.0964 17.0705 21.0978 17.0927C21.1066 17.2491 21.1192 17.4049 21.1357 17.56L21.1382 17.5813C21.1881 18.0473 21.2735 18.5089 21.3935 18.962C20.1396 19.8226 19.114 20.9754 18.4054 22.321C17.6967 23.6665 17.3263 25.1644 17.3261 26.6852C17.3261 31.8528 21.5286 36.0572 26.6938 36.0572C26.7652 36.0572 26.8374 36.0563 26.911 36.0542C27.4407 36.9672 28.1213 37.7838 28.9238 38.4694C30.2572 39.6175 31.9153 40.3969 33.7405 40.6484C33.7946 40.6561 33.8488 40.6625 33.9032 40.6692C34.0947 40.6928 34.287 40.7102 34.4797 40.7216C34.5225 40.7241 34.5653 40.7263 34.6083 40.7281C34.7469 40.7344 34.8857 40.7388 35.025 40.7388C37.2094 40.7388 39.2803 39.9949 40.9519 38.6266C42.7954 39.9493 45.0072 40.6609 47.2761 40.6611V40.6634C47.2941 40.6634 47.3117 40.6622 47.3296 40.662C47.353 40.662 47.3766 40.6605 47.4 40.6603C47.9197 40.6544 48.4313 40.6141 48.9311 40.537C50.1574 41.6959 51.6379 42.5516 53.2541 43.0359C54.2444 44.6592 54.8149 46.6183 54.868 48.5983C54.9019 49.875 55.6635 50.9584 56.8585 51.427C57.2264 51.5712 57.618 51.6456 58.0132 51.6466C58.8335 51.6466 59.6274 51.3184 60.2356 50.6964C62.4538 48.4181 63.726 45.1889 63.726 41.8369C63.725 41.4448 63.7074 41.0529 63.6731 40.6624ZM61.8342 39.3594C61.6904 39.4765 61.5788 39.6283 61.5098 39.8005C61.4407 39.9727 61.4166 40.1596 61.4397 40.3436C61.5056 40.8697 61.5375 41.3583 61.5375 41.8375C61.5375 44.6245 60.4916 47.2974 58.6694 49.1692C58.3925 49.4525 58.0216 49.5322 57.6539 49.3894C57.2838 49.2442 57.0655 48.935 57.055 48.5405C56.9872 46.0156 56.2081 43.5109 54.8611 41.488C54.7111 41.2627 54.4829 41.1011 54.2206 41.0344C53.2496 40.7865 52.3294 40.3707 51.5016 39.8058C55.1461 38.2567 57.7714 34.7667 58.0802 30.6411C59.4041 30.239 60.6218 29.5471 61.6449 28.6155L60.1727 26.9969C57.2432 29.6614 52.6908 29.4475 50.0247 26.5202L48.4069 27.9936C50.2533 30.0208 52.7928 31.0503 55.3413 31.0503C55.5074 31.0503 55.6735 31.0445 55.8394 31.0358C55.3328 34.6384 52.6002 37.535 49.0807 38.2852C49.0769 38.2859 49.0733 38.2861 49.0696 38.2869C48.5745 38.3912 48.0713 38.452 47.5657 38.4686L47.558 38.4688C45.428 38.5366 43.3478 37.8169 41.715 36.4475C40.1572 35.1416 39.1205 33.3303 38.766 31.3522C40.3439 31.3299 41.8978 30.9063 43.301 30.0955L42.2063 28.2009C40.5469 29.16 38.6127 29.4142 36.7592 28.917C34.9063 28.4198 33.3574 27.2317 32.3978 25.5713L30.5033 26.6659C31.7549 28.832 33.7753 30.382 36.1925 31.0303C36.3014 31.0595 36.4107 31.0864 36.5199 31.1117C36.7893 33.3639 37.7587 35.4747 39.2914 37.1466C38.0611 38.0583 36.5805 38.5514 35.0247 38.5514C34.8128 38.5508 34.6011 38.5409 34.39 38.5219C34.1792 38.5032 33.9694 38.4752 33.7611 38.4378L33.746 38.435C32.5927 38.2224 31.5083 37.7327 30.5863 37.008L30.5692 36.9945C30.5114 36.9487 30.4542 36.9021 30.3977 36.8545C30.3625 36.8248 30.3278 36.7944 30.2933 36.7639C30.2527 36.7284 30.2121 36.693 30.1724 36.6566C30.1014 36.5915 30.0317 36.5249 29.9633 36.457L29.9347 36.4283C28.6441 35.1288 27.8452 33.3397 27.8452 31.3672H25.6571C25.6571 32.2211 25.7741 33.048 25.9889 33.8347C22.3596 33.4792 19.5141 30.4091 19.5141 26.6856C19.5141 24.4725 20.5361 22.4097 22.238 21.0617C22.6687 21.8477 23.2102 22.5676 23.846 23.1994C23.6592 24.7697 24.1028 26.3448 25.1349 27.7088L26.8796 26.3886C26.0707 25.3195 25.8061 24.1272 26.1141 22.9408C26.4935 21.4794 27.7196 20.1967 29.4778 19.4219L28.5957 17.4197C26.8447 18.1913 25.4755 19.38 24.656 20.7978C24.2205 20.2033 23.8792 19.5452 23.6442 18.8467L23.6347 18.8197C23.5167 18.4634 23.4268 18.0985 23.3658 17.7281C23.3638 17.7161 23.3621 17.7039 23.3602 17.6919C23.3434 17.5862 23.3291 17.4802 23.3172 17.3739C23.3144 17.3492 23.3114 17.3247 23.3089 17.3C23.2992 17.2036 23.2914 17.1069 23.2855 17.0102C23.2838 16.9817 23.2813 16.9534 23.2799 16.925C23.2735 16.8036 23.2702 16.6821 23.27 16.5605C23.27 12.5991 26.4907 9.37641 30.4496 9.37641C30.5869 9.37641 30.7249 9.3811 30.8646 9.38923C30.9105 9.39188 30.9561 9.39673 31.0021 9.40032C31.0888 9.40688 31.1761 9.41438 31.2653 9.42407C33.0324 9.62572 34.6618 10.4757 35.8383 11.8095L37.4799 10.3627C36.5404 9.29854 35.3714 8.46189 34.0611 7.91594C35.6475 7.10391 37.5335 6.65704 39.4894 6.65704C42.6439 6.65704 45.5178 7.79032 47.3024 9.64532C44.0631 10.1531 41.2897 12.3402 40.0574 15.3906C37.9903 15.0475 35.7971 15.3897 33.8446 16.5164L34.9383 18.4114C38.3697 16.4311 42.7719 17.6103 44.7516 21.0403L46.6467 19.9466C45.5863 18.1092 43.9927 16.7681 42.1733 16.0028C43.3047 13.4381 45.8778 11.7194 48.7464 11.7194C49.0024 11.7194 49.2616 11.7336 49.5207 11.7614L49.5455 11.7641C49.6297 11.7734 49.7138 11.7841 49.7977 11.7963C50.7249 11.9341 51.6222 12.2509 52.418 12.7283C52.4213 12.7302 52.4247 12.7314 52.4278 12.7333C54.1625 13.7695 55.3783 15.4741 55.7844 17.4614L57.928 17.0234C57.5302 15.0705 56.5181 13.296 55.0397 11.9594C55.8472 11.6566 56.7025 11.5018 57.5649 11.5022C61.5263 11.5022 64.7489 14.7228 64.7489 18.6817C64.7489 19.1253 64.7067 19.5627 64.6272 19.9925C63.7476 19.3126 62.7665 18.7752 61.72 18.4L60.9836 20.4606C62.3116 20.935 63.5099 21.7481 64.4533 22.8116C65.8178 24.3567 66.5692 26.3345 66.5692 28.3994C66.5692 30.0827 66.0777 31.7034 65.1478 33.0861C65.048 33.2344 64.9861 33.4049 64.9675 33.5827C64.7291 35.8559 63.6164 37.9075 61.8342 39.3594Z" fill="black"/>
</g>
<defs>
<clipPath id="clip0_249_26727">
<rect width="80" height="80" fill="white"/>
</clipPath>
</defs>
</svg>
