<svg width="58" height="58" viewBox="0 0 58 58" fill="none" xmlns="http://www.w3.org/2000/svg">
<rect width="58" height="58" rx="29" fill="#FF981F"/>
<path d="M38.7779 31.8104L39.0111 29.5218C39.1356 28.3002 39.2165 27.4943 39.1525 26.9855H39.1767C40.2291 26.9855 41.0834 26.0841 41.0834 24.9725C41.0834 23.8608 40.2291 22.9582 39.1755 22.9582C38.1218 22.9582 37.2675 23.8596 37.2675 24.9725C37.2675 25.4751 37.4427 25.9355 37.7315 26.2883C37.317 26.5578 36.7745 27.1281 35.9577 27.986C35.3293 28.647 35.0152 28.9769 34.6647 29.0288C34.4701 29.0566 34.2715 29.0272 34.0932 28.9443C33.7694 28.7944 33.5531 28.386 33.1217 27.568L30.8452 23.2603C30.5794 22.7564 30.3558 22.3347 30.154 21.9951C30.9793 21.5505 31.5436 20.6454 31.5436 19.6026C31.5436 18.1176 30.4054 16.9165 29.0001 16.9165C27.5948 16.9165 26.4565 18.1188 26.4565 19.6014C26.4565 20.6454 27.0208 21.5505 27.8461 21.9939C27.6443 22.3347 27.422 22.7564 27.155 23.2603L24.8797 27.5692C24.4471 28.386 24.2308 28.7944 23.907 28.9455C23.7287 29.0284 23.5301 29.0578 23.3354 29.03C22.985 28.9781 22.6708 28.647 22.0425 27.986C21.2257 27.1281 20.6831 26.5578 20.2687 26.2883C20.5587 25.9355 20.7327 25.4751 20.7327 24.9713C20.7327 23.8608 19.8772 22.9582 18.8235 22.9582C17.7722 22.9582 16.9167 23.8596 16.9167 24.9725C16.9167 26.0841 17.771 26.9855 18.8247 26.9855H18.8477C18.7824 27.493 18.8646 28.3002 18.989 29.5218L19.2222 31.8104C19.3515 33.0804 19.4591 34.2887 19.592 35.3774H38.4082C38.5411 34.2899 38.6486 33.0804 38.7779 31.8104ZM27.6165 41.0832H30.3836C33.9905 41.0832 35.7945 41.0832 36.998 39.9473C37.5225 39.4495 37.856 38.5553 38.0952 37.3905H19.905C20.1442 38.5553 20.4765 39.4495 21.0021 39.9461C22.2056 41.0832 24.0097 41.0832 27.6165 41.0832Z" fill="white"/>
</svg>
