<svg width="41" height="40" viewBox="0 0 41 40" fill="none" xmlns="http://www.w3.org/2000/svg">
<rect x="0.064209" width="40" height="40" rx="20" fill="#0864ED"/>
<path d="M19.6221 15.5806L21.1689 14.0338C21.4881 13.7143 21.867 13.4609 22.2842 13.2879C22.7013 13.115 23.1484 13.0259 23.5999 13.0258C24.0515 13.0257 24.4987 13.1146 24.9159 13.2873C25.3331 13.4601 25.7121 13.7133 26.0314 14.0326C26.3507 14.3519 26.604 14.731 26.7767 15.1482C26.9495 15.5654 27.0384 16.0126 27.0382 16.4641C27.0381 16.9157 26.9491 17.3628 26.7761 17.7799C26.6032 18.197 26.3497 18.576 26.0303 18.8951L23.8206 21.1048C23.5014 21.424 23.1224 21.6772 22.7054 21.85C22.2883 22.0227 21.8413 22.1117 21.3899 22.1117C20.9385 22.1117 20.4915 22.0227 20.0744 21.85C19.6574 21.6772 19.2784 21.424 18.9592 21.1048" stroke="white" stroke-width="1.2" stroke-linecap="round" stroke-linejoin="round"/>
<path d="M20.5062 24.4194L18.9594 25.9662C18.6403 26.2856 18.2613 26.5391 17.8442 26.712C17.4271 26.885 16.9799 26.974 16.5284 26.9741C16.0768 26.9743 15.6297 26.8854 15.2125 26.7126C14.7953 26.5399 14.4162 26.2866 14.0969 25.9673C13.7776 25.648 13.5244 25.269 13.3516 24.8518C13.1788 24.4346 13.09 23.9874 13.0901 23.5358C13.0902 23.0843 13.1793 22.6372 13.3522 22.2201C13.5252 21.8029 13.7786 21.424 14.098 21.1048L16.3077 18.8951C16.627 18.5759 17.0059 18.3227 17.423 18.15C17.84 17.9772 18.287 17.8883 18.7384 17.8883C19.1898 17.8883 19.6368 17.9772 20.0539 18.15C20.471 18.3227 20.8499 18.5759 21.1691 18.8951" stroke="white" stroke-width="1.2" stroke-linecap="round" stroke-linejoin="round"/>
</svg>
