<svg width="16" height="16" viewBox="0 0 16 16" fill="none" xmlns="http://www.w3.org/2000/svg">
<path d="M10.4714 3.5287L11.6667 2.33344C11.927 2.0731 12.3491 2.0731 12.6095 2.33344L13.6667 3.39064C13.927 3.65098 13.927 4.07309 13.6667 4.33344L12.4714 5.5287M10.4714 3.5287L6.39924 7.60091C6.22837 7.77178 6.10714 7.98591 6.04853 8.22031L5.47144 10.5287L7.7798 9.95158C8.01427 9.89298 8.22833 9.77178 8.39927 9.60091L12.4714 5.5287M10.4714 3.5287L12.4714 5.5287" stroke="white" stroke-linejoin="round"/>
<path d="M7.13809 3.19531H3.47146C2.73508 3.19531 2.13812 3.79227 2.13812 4.52865V12.5287C2.13812 13.2651 2.73508 13.862 3.47146 13.862H11.4714C12.2078 13.862 12.8048 13.2651 12.8048 12.5287V8.86199" stroke="white" stroke-linecap="round" stroke-linejoin="round"/>
</svg>
