<svg width="80" height="80" viewBox="0 0 80 80" fill="none" xmlns="http://www.w3.org/2000/svg">
<g clip-path="url(#clip0_249_26980)">
<path fill-rule="evenodd" clip-rule="evenodd" d="M47.4282 67.0181C39.7891 67.0181 33.9777 63.6907 32.6186 58.5354C30.744 51.6461 37.6801 43.7727 47.9906 41.0076C65.0498 36.4616 76.5788 48.0843 66.8307 58.9572C64.2925 61.5168 61.269 63.544 57.9373 64.9201C54.6056 66.2963 51.0328 67.0405 47.4282 67.0181ZM47.4282 61.1599C38.2894 61.1599 36.8365 55.536 38.9923 55.3954C40.8201 55.3017 38.5237 57.5044 43.6321 58.8635C53.4739 61.4411 64.1124 53.2864 62.5659 50.2402C61.9097 48.9279 64.4405 47.85 64.5811 50.6151C64.6748 52.7241 62.8471 54.833 62.0503 55.5829C58.0443 59.2091 52.8317 61.2139 47.4282 61.2068V61.1599ZM22.0269 52.8646C9.04507 52.8646 -4.03051 39.3204 1.12474 30.369C6.42058 21.2302 25.495 26.2917 31.4469 38.1019C35.5243 46.0691 30.9314 52.8646 22.0269 52.8646ZM22.0269 47.0533C12.1851 47.0533 3.28057 36.4616 6.46744 32.8998C7.26416 31.9625 8.67014 33.2747 7.82655 34.212C6.56118 35.618 12.2319 44.8037 22.0269 45.1786C26.0574 45.3192 24.9326 43.1166 26.4323 43.5852C27.8383 44.0539 26.9478 47.0533 22.0269 47.0533ZM49.8184 36.4616C37.6332 36.4616 25.3075 23.8078 30.1816 15.372C33.8371 9.13881 43.7727 10.4042 50.1464 14.0597C63.5969 21.8395 63.0814 36.4616 49.8184 36.4616ZM49.8184 30.6502C40.6795 30.6502 32.7123 21.0896 35.3837 17.9965C36.0867 17.3403 37.6332 17.9027 36.8365 19.2618C36.6959 19.6836 37.024 20.8084 37.6332 21.7926C39.8359 25.6356 45.3661 28.8225 49.8184 28.8225C53.2396 28.8225 52.1616 27.1822 53.5208 27.604C54.8799 28.0726 54.3643 30.6502 49.8184 30.6502Z" fill="black"/>
<path fill-rule="evenodd" clip-rule="evenodd" d="M69.877 41.2419C60.8787 41.2419 60.6444 31.8687 69.9707 29.3849C77.6567 27.3228 82.7651 32.8529 78.4066 37.7738C77.284 38.8994 75.9458 39.7867 74.472 40.3826C72.9983 40.9785 71.4195 41.2708 69.8301 41.2419H69.877ZM69.7364 37.3989C65.7059 37.3989 67.2525 34.7744 68.5179 35.3837C69.8301 35.9929 73.345 35.0556 74.1886 33.8371C74.8916 32.8529 76.4382 33.9308 75.7352 34.915C74.5636 36.5553 71.7985 37.3989 69.7364 37.3989ZM19.9649 69.7832C10.8729 69.7832 10.7792 60.41 20.0586 57.8793C27.7446 55.8172 32.853 61.3474 28.4476 66.2683C27.3399 67.3908 26.0187 68.2802 24.5618 68.8839C23.1049 69.4876 21.5418 69.7934 19.9649 69.7832ZM19.7774 65.8465C15.7938 65.8465 17.3404 63.222 18.5589 63.7844C19.918 64.4405 23.3861 63.5032 24.2765 62.2847C24.9795 61.3005 26.4792 62.3784 25.7762 63.3626C24.6514 64.956 21.8864 65.8465 19.7774 65.8465ZM15.0908 22.4956C6.09257 22.4956 5.85824 13.1224 15.1845 10.6854C22.8705 8.57643 27.9789 14.1066 23.5735 18.9806C22.4698 20.1117 21.1503 21.0097 19.6933 21.6215C18.2362 22.2333 16.6711 22.5465 15.0908 22.5424V22.4956ZM14.9033 18.6526C10.9197 18.6057 12.4663 15.9344 13.6848 16.5436C14.9971 17.1997 18.512 16.2624 19.4025 15.0439C20.1055 14.0597 21.5583 15.1376 20.9022 16.1218C19.7774 17.7153 17.0123 18.6526 14.9033 18.6526Z" fill="black"/>
</g>
<defs>
<clipPath id="clip0_249_26980">
<rect width="80" height="80" fill="white"/>
</clipPath>
</defs>
</svg>
