<svg width="24" height="24" viewBox="0 0 24 24" fill="none" xmlns="http://www.w3.org/2000/svg">
<g clip-path="url(#clip0_249_27258)">
<path d="M12.0183 24C18.6457 24 24.0183 18.6274 24.0183 12C24.0183 5.37258 18.6457 0 12.0183 0C5.39084 0 0.0182495 5.37258 0.0182495 12C0.0182495 18.6274 5.39084 24 12.0183 24Z" fill="#E0E0E0"/>
<path d="M12.0183 23.6353C18.545 23.6353 23.8359 18.3443 23.8359 11.8176C23.8359 5.29093 18.545 0 12.0183 0C5.49156 0 0.200623 5.29093 0.200623 11.8176C0.200623 18.3443 5.49156 23.6353 12.0183 23.6353Z" fill="white"/>
<mask id="mask0_249_27258" style="mask-type:luminance" maskUnits="userSpaceOnUse" x="4" y="3" width="16" height="17">
<path d="M19.6778 10.4316H12.2006V13.5319H16.5046C16.1034 15.5015 14.4256 16.6322 12.2006 16.6322C9.57451 16.6322 7.45901 14.5167 7.45901 11.8905C7.45901 9.26439 9.57451 7.14889 12.2006 7.14889C13.3313 7.14889 14.3526 7.55011 15.155 8.20665L17.4894 5.87229C16.0669 4.63217 14.2432 3.86621 12.2006 3.86621C7.7508 3.86621 4.17633 7.44068 4.17633 11.8905C4.17633 16.3404 7.7508 19.9148 12.2006 19.9148C16.2128 19.9148 19.8602 16.9969 19.8602 11.8905C19.8602 11.4164 19.7873 10.9057 19.6778 10.4316Z" fill="white"/>
</mask>
<g mask="url(#mask0_249_27258)">
<path d="M3.44684 16.6322V7.14893L9.64745 11.8906L3.44684 16.6322Z" fill="#FBBC05"/>
</g>
<mask id="mask1_249_27258" style="mask-type:luminance" maskUnits="userSpaceOnUse" x="4" y="3" width="16" height="17">
<path d="M19.6778 10.4316H12.2006V13.5319H16.5046C16.1034 15.5015 14.4256 16.6322 12.2006 16.6322C9.57451 16.6322 7.45901 14.5167 7.45901 11.8905C7.45901 9.26439 9.57451 7.14889 12.2006 7.14889C13.3313 7.14889 14.3526 7.55011 15.155 8.20665L17.4894 5.87229C16.0669 4.63217 14.2432 3.86621 12.2006 3.86621C7.7508 3.86621 4.17633 7.44068 4.17633 11.8905C4.17633 16.3404 7.7508 19.9148 12.2006 19.9148C16.2128 19.9148 19.8602 16.9969 19.8602 11.8905C19.8602 11.4164 19.7873 10.9057 19.6778 10.4316Z" fill="white"/>
</mask>
<g mask="url(#mask1_249_27258)">
<path d="M3.44684 7.14888L9.64745 11.8905L12.2006 9.6656L20.9544 8.2431V3.13672H3.44684V7.14888Z" fill="#EA4335"/>
</g>
<mask id="mask2_249_27258" style="mask-type:luminance" maskUnits="userSpaceOnUse" x="4" y="3" width="16" height="17">
<path d="M19.6778 10.4316H12.2006V13.5319H16.5046C16.1034 15.5015 14.4256 16.6322 12.2006 16.6322C9.57451 16.6322 7.45901 14.5167 7.45901 11.8905C7.45901 9.26439 9.57451 7.14889 12.2006 7.14889C13.3313 7.14889 14.3526 7.55011 15.155 8.20665L17.4894 5.87229C16.0669 4.63217 14.2432 3.86621 12.2006 3.86621C7.7508 3.86621 4.17633 7.44068 4.17633 11.8905C4.17633 16.3404 7.7508 19.9148 12.2006 19.9148C16.2128 19.9148 19.8602 16.9969 19.8602 11.8905C19.8602 11.4164 19.7873 10.9057 19.6778 10.4316Z" fill="white"/>
</mask>
<g mask="url(#mask2_249_27258)">
<path d="M3.44684 16.6322L14.3891 8.2431L17.2705 8.60784L20.9544 3.13672V20.6443H3.44684V16.6322Z" fill="#34A853"/>
</g>
<mask id="mask3_249_27258" style="mask-type:luminance" maskUnits="userSpaceOnUse" x="4" y="3" width="16" height="17">
<path d="M19.6778 10.4316H12.2006V13.5319H16.5046C16.1034 15.5015 14.4256 16.6322 12.2006 16.6322C9.57451 16.6322 7.45901 14.5167 7.45901 11.8905C7.45901 9.26439 9.57451 7.14889 12.2006 7.14889C13.3313 7.14889 14.3526 7.55011 15.155 8.20665L17.4894 5.87229C16.0669 4.63217 14.2432 3.86621 12.2006 3.86621C7.7508 3.86621 4.17633 7.44068 4.17633 11.8905C4.17633 16.3404 7.7508 19.9148 12.2006 19.9148C16.2128 19.9148 19.8602 16.9969 19.8602 11.8905C19.8602 11.4164 19.7873 10.9057 19.6778 10.4316Z" fill="white"/>
</mask>
<g mask="url(#mask3_249_27258)">
<path d="M20.9544 20.6444L9.64744 11.8906L8.18848 10.7963L20.9544 7.14893V20.6444Z" fill="#4285F4"/>
</g>
</g>
<defs>
<clipPath id="clip0_249_27258">
<rect width="23.9635" height="24" fill="white" transform="translate(0.0182495)"/>
</clipPath>
</defs>
</svg>
