<svg width="80" height="80" viewBox="0 0 80 80" fill="none" xmlns="http://www.w3.org/2000/svg">
<g clip-path="url(#clip0_249_26853)">
<path d="M59.1981 36.0029C59.287 35.563 59.3321 35.1153 59.3332 34.6664C59.2275 33.0451 58.8002 31.461 58.0761 30.0065C57.3521 28.552 56.3458 27.2561 55.1159 26.1944C55.2629 26.2107 55.4004 26.2194 55.5518 26.2394C57.8945 26.5535 60.0952 25.0454 60.6479 22.7472C61.2005 20.4491 59.9257 18.1054 57.6964 17.3201C55.9715 16.676 54.1721 16.2527 52.3411 16.0603C52.547 15.1655 52.6561 14.2512 52.6665 13.3331C52.6665 9.71201 50.0266 6.43078 45.9999 4.92172V3.99985C45.9999 1.79081 44.2089 -0.00012207 41.9999 -0.00012207C39.7908 -0.00012207 37.9999 1.79065 37.9999 3.99985V4.22907C37.5655 4.30417 37.1351 4.40064 36.7102 4.51813L36.0149 2.78111C35.3127 1.02503 33.3577 0.127065 31.5682 0.738624C29.7785 1.35018 28.782 3.25689 29.3015 5.07532L30.3745 8.8317C29.7029 9.72106 29.1263 10.6783 28.6542 11.6878C28.6001 8.68064 27.7834 5.73645 26.2808 3.13111C25.7314 2.18204 24.9429 1.39353 23.9938 0.844155C23.0448 0.294783 21.9683 0.00374001 20.8717 3.41788e-05H15.6361C15.1317 0.00065387 14.6374 0.141895 14.2088 0.407896C13.7802 0.673896 13.4343 1.05412 13.2099 1.50586C12.9854 1.95761 12.8914 2.46298 12.9383 2.96523C12.9852 3.46747 13.1712 3.94669 13.4754 4.34907C14.9311 6.29047 16.6667 9.19279 16.6667 12.0001V29.9736C14.1733 32.6439 11.3335 37.652 11.3335 46.6665C11.3335 58.5688 12.771 60.7692 14.1772 61.3512C14.4099 61.4483 14.6596 61.4983 14.9116 61.4984C14.9866 61.4947 15.0613 61.4862 15.1352 61.4734C15.5816 62.4705 16.0933 63.437 16.6669 64.3667V73.9996C16.6616 75.2434 17.0447 76.4579 17.7627 77.4736C18.4807 78.4893 19.4977 79.2556 20.672 79.6657C21.8463 80.0758 23.1193 80.1091 24.3135 79.7611C25.5077 79.4131 26.5634 78.701 27.3336 77.7243C27.9264 78.481 28.6943 79.0825 29.571 79.4769C30.4478 79.8713 31.4072 80.0468 32.3668 79.9884C33.3263 79.93 34.2574 79.6394 35.0798 79.1416C35.9023 78.6438 36.5915 77.9536 37.0882 77.1305C37.8312 77.249 38.5813 77.3166 39.3335 77.333C43.2771 77.346 47.2021 77.8749 51.0086 78.906C53.2861 79.553 55.6338 79.9202 58.0001 79.9997C61.2071 79.9997 68.6668 78.4411 68.6668 63.9998C68.6664 57.3261 65.346 45.3445 59.1981 36.0029ZM56.6665 34.6666C56.6779 34.9976 56.6531 35.329 56.5926 35.6547C56.5575 35.7144 56.5271 35.7765 56.5018 35.8411C56.4333 36.0946 56.3002 36.326 56.1156 36.5128C56.1014 36.5262 56.0851 36.5389 56.0703 36.552C56.0026 36.6115 55.9307 36.6661 55.8551 36.715C55.814 36.742 55.7739 36.7692 55.7285 36.7948C55.6068 36.8637 55.4798 36.9231 55.3489 36.9723C55.3071 36.9883 55.2575 37.0014 55.2131 37.0164C55.0615 37.0665 54.9076 37.1087 54.7517 37.1428C54.702 37.1539 54.655 37.1658 54.6026 37.1759C54.3807 37.2189 54.1306 37.254 53.8504 37.2801C53.7972 37.2851 53.7393 37.2886 53.6837 37.2929C53.3453 37.3197 53.0059 37.3331 52.6664 37.3331C52.4198 37.3331 52.1825 37.3209 51.9551 37.2986C51.938 37.297 51.9229 37.2933 51.9058 37.2915C51.7036 37.2708 51.5026 37.2407 51.3033 37.2012L51.2584 37.1901C51.0787 37.1529 50.901 37.107 50.7258 37.0525C50.694 37.0425 50.6664 37.0301 50.6355 37.0198C50.4982 36.9747 50.363 36.9233 50.2305 36.8658C50.175 36.8411 50.1264 36.8139 50.0742 36.7879C49.9871 36.7461 49.9016 36.701 49.818 36.6526C49.7522 36.6121 49.688 36.5691 49.6256 36.5236C49.5772 36.4895 49.5276 36.4559 49.4841 36.4208C49.4202 36.3686 49.3593 36.3128 49.3019 36.2536C49.2762 36.2278 49.2501 36.2022 49.2272 36.1762C49.1757 36.1175 49.129 36.0548 49.0877 35.9886C49.0725 35.9644 49.0573 35.9403 49.0445 35.9162C49.0222 35.8756 49.0027 35.8335 48.9862 35.7901C48.9508 35.6877 48.9362 35.5791 48.9433 35.4709C48.9459 35.4209 48.9525 35.3711 48.963 35.322C48.9767 35.262 48.995 35.2031 49.0177 35.1459C49.0455 35.0634 49.0803 34.9834 49.1219 34.907L49.14 34.8786C49.2687 34.6594 49.4255 34.4581 49.6064 34.2795L49.607 34.2787L49.6075 34.2781L49.6089 34.2761L49.6097 34.2751L49.6101 34.2748C49.8204 34.0592 50.0136 33.8277 50.1881 33.5823C50.2186 33.5409 50.2587 33.5047 50.2878 33.4625C50.3495 33.3745 50.395 33.2792 50.4517 33.1887C50.4573 33.1802 50.4653 33.1742 50.4706 33.1655C50.5025 33.1137 50.5267 33.0586 50.5572 33.0062C50.7023 32.7608 50.8319 32.5066 50.9453 32.245C50.9498 32.235 50.9578 32.2278 50.962 32.2177C50.9865 32.1591 51.0026 32.0984 51.0258 32.0395C51.1183 31.803 51.2055 31.5658 51.2748 31.3222C51.2789 31.3094 51.2878 31.2997 51.2915 31.2866L51.2942 31.2788C51.3209 31.1831 51.3353 31.0852 51.3581 30.9888C51.4083 30.7814 51.4589 30.5755 51.495 30.366H51.4954L51.4953 30.3628C51.5119 30.2664 51.5215 30.1699 51.5353 30.0731L51.5423 30.0522V30.0508L51.5429 30.0469C51.5573 29.9427 51.5709 29.8386 51.5833 29.7344L51.5854 29.7139L51.5909 29.6688C51.6081 29.495 51.6214 29.3208 51.6308 29.1464C51.6315 29.1366 51.6375 29.1285 51.6379 29.1185C51.6445 29.0169 51.649 28.9153 51.6529 28.8138L51.654 28.7627L51.6556 28.6927L51.6584 28.5717C51.659 28.5275 51.6612 28.4833 51.6614 28.4392V28.4283L51.6609 28.4264C51.6609 28.393 51.6584 28.3611 51.6584 28.3278L51.6633 28.306C51.6637 28.2911 51.6569 28.2764 51.6565 28.2614L51.655 28.2C51.6541 27.9951 51.6488 27.7903 51.6392 27.5857C51.6356 27.5186 51.6317 27.4533 51.6273 27.3869C51.6197 27.2677 51.6156 27.1402 51.6058 27.0272C53.0188 27.7783 54.2218 28.8705 55.1056 30.2046C55.9894 31.5387 56.5259 33.0725 56.6665 34.6666ZM50.6216 18.6679L50.6241 18.6674C50.8597 18.6665 51.0959 18.6662 51.3331 18.6665C53.2081 18.7579 55.0559 19.152 56.8051 19.8332C57.068 19.9244 57.3082 20.0712 57.5093 20.2635C57.7104 20.4558 57.8677 20.6892 57.9706 20.9477C58.0746 21.2025 58.1226 21.4768 58.1112 21.7518C58.0999 22.0268 58.0295 22.2961 57.9048 22.5415C57.7231 22.904 57.4325 23.2007 57.0737 23.3898C56.7149 23.579 56.306 23.6511 55.9042 23.5961C53.7362 23.1532 51.4868 23.3398 49.4214 24.134L49.4153 24.1361L49.4036 24.1404C49.2456 24.2234 49.1063 24.3378 48.9942 24.4766C48.982 24.491 48.9628 24.4966 48.9511 24.5115C48.935 24.5319 48.9336 24.5593 48.9187 24.5805C48.8308 24.7058 48.7654 24.8454 48.7255 24.9932C48.7173 25.0235 48.7031 25.05 48.697 25.0807C48.6647 25.2357 48.6605 25.3953 48.6847 25.5518L48.9164 26.9333C48.9303 27.0555 48.9414 27.1968 48.953 27.3347C48.972 27.5641 48.9847 27.794 48.9909 28.0241C48.9972 28.2703 48.9954 28.5166 48.9855 28.7627C48.9834 28.8102 48.9817 28.8577 48.9792 28.9055C48.9629 29.2113 48.9308 29.5161 48.883 29.8186L48.8741 29.8641C48.8261 30.1455 48.7598 30.4236 48.6758 30.6964C48.6678 30.7227 48.6587 30.7484 48.6502 30.7747C48.637 30.8145 48.6219 30.8536 48.6078 30.8931C48.5337 31.1041 48.4447 31.3094 48.3412 31.5077C48.3011 31.5841 48.2623 31.6611 48.2177 31.7342C48.0815 31.9687 47.9179 32.1861 47.7302 32.3817L47.7244 32.3891L47.7034 32.4131C47.5297 32.5887 47.3669 32.7747 47.2159 32.9702L47.2081 32.9791L47.2069 32.9819L47.1981 32.9919C46.4108 33.104 45.6195 33.1867 44.826 33.24C44.726 33.2467 44.6214 33.2503 44.5202 33.2562C43.7135 33.3036 42.8782 33.3334 41.9999 33.3334C41.7194 33.3334 41.4211 33.3125 41.1168 33.2816C40.973 33.2667 40.8222 33.2431 40.6733 33.2219C40.5122 33.1992 40.3516 33.1769 40.188 33.1478C40.002 33.1138 39.8167 33.0763 39.6321 33.0353C39.5024 33.007 39.373 32.9783 39.2435 32.9467C39.0311 32.8948 38.8196 32.8391 38.6093 32.7795C38.524 32.7553 38.4399 32.7302 38.3557 32.7048C37.3563 32.4203 36.3983 32.0064 35.506 31.4738C35.3427 31.3045 35.1677 31.1469 34.9824 31.002C34.9788 30.9553 34.978 30.9083 34.9801 30.8614C34.9845 30.8325 35.0007 30.8083 35.0032 30.7786C35.0733 30.2391 35.2198 29.7123 35.4382 29.2141C35.4509 29.1833 35.4623 29.1539 35.4754 29.1225C35.5876 28.8521 35.7229 28.5635 35.8716 28.2661C36.0733 27.863 36.2897 27.4674 36.5202 27.08L36.5716 26.9953C37.3231 25.7592 38.1802 24.5905 39.1333 23.5022C39.166 23.4649 39.1996 23.4277 39.2327 23.3904C39.5686 23.0086 39.9162 22.6373 40.275 22.2771L40.2768 22.2754C40.6282 21.9265 40.9978 21.5965 41.3841 21.2868C41.4528 21.2315 41.5214 21.1705 41.5902 21.1176C41.8952 20.8835 42.2118 20.6649 42.5388 20.4626C42.6711 20.3799 42.8036 20.296 42.9361 20.2209C43.2049 20.0683 43.4803 19.9278 43.7616 19.7998C43.9291 19.7231 44.0986 19.6506 44.2699 19.5826C44.5286 19.4792 44.7912 19.3859 45.0572 19.303C45.2234 19.2528 45.3907 19.2062 45.5589 19.1634C45.8433 19.0901 46.1283 19.021 46.417 18.9681C46.5406 18.9449 46.6649 18.9277 46.7888 18.908C47.1277 18.8554 47.4678 18.8074 47.8144 18.7759C47.8675 18.7709 47.9211 18.7682 47.9744 18.7635C48.8278 18.6921 49.7056 18.671 50.6216 18.6679ZM28.6667 26.7863C28.6667 18.8827 30.0768 13.2356 32.8581 10.0039C33.0023 9.83661 33.1026 9.63609 33.15 9.42039C33.1974 9.20469 33.1904 8.98059 33.1296 8.76826L31.8652 4.34376C31.8029 4.12547 31.8268 3.89159 31.9319 3.69039C32.0371 3.48919 32.2154 3.33604 32.4302 3.26254C32.645 3.18904 32.8798 3.20081 33.0862 3.29542C33.2925 3.39002 33.4547 3.56025 33.5391 3.77095L34.7026 6.67843C34.7676 6.84113 34.8641 6.9894 34.9865 7.11478C35.1089 7.24015 35.2548 7.34017 35.4159 7.4091C35.577 7.47803 35.7501 7.51453 35.9253 7.51651C36.1005 7.51848 36.2743 7.4859 36.4369 7.42062C37.4027 7.0434 38.4185 6.80957 39.4519 6.72656C39.7837 6.69686 40.0923 6.5441 40.3172 6.29832C40.542 6.05254 40.6667 5.73153 40.6668 5.39844V4.00001C40.6668 3.26361 41.2636 2.66674 42 2.66674C42.7364 2.66674 43.3333 3.26361 43.3333 4.00001V5.88406C43.3334 6.17311 43.4273 6.45431 43.601 6.68537C43.7747 6.91643 44.0186 7.08485 44.2963 7.16531C47.7077 8.15092 50 10.6301 50 13.3332C49.9889 14.239 49.8616 15.1396 49.6211 16.0129L49.597 16.0138C48.6986 16.0278 47.8016 16.0892 46.9097 16.1981C46.8498 16.2056 46.7899 16.2118 46.73 16.2199C46.3519 16.272 45.9714 16.3395 45.5895 16.4193C45.4555 16.447 45.3213 16.477 45.1874 16.5084C44.8373 16.5904 44.4905 16.6857 44.1477 16.794C43.9874 16.8448 43.8274 16.9057 43.6672 16.9631C43.4166 17.0537 43.1688 17.152 42.9243 17.2579C42.7121 17.3488 42.5024 17.4453 42.2953 17.5474C42.0053 17.6909 41.7207 17.845 41.4421 18.0095C41.3586 18.0587 41.275 18.0935 41.1916 18.1451C41.5699 17.0065 42.2193 15.9998 43.3335 15.9998C43.6871 15.9998 44.0262 15.8593 44.2762 15.6093C44.5263 15.3592 44.6667 15.0201 44.6667 14.6665C44.6667 14.3129 44.5263 13.9738 44.2762 13.7237C44.0262 13.4737 43.6871 13.3332 43.3335 13.3332C39.373 13.3332 38.1449 17.7818 38.013 20.783C37.5398 21.2761 37.0853 21.7868 36.6505 22.3141C36.5283 22.4615 36.4055 22.6072 36.2871 22.7562C36.0449 23.0596 35.8089 23.3679 35.5791 23.6808C35.5246 23.7552 35.4724 23.8293 35.419 23.9038C34.1698 25.5397 33.207 27.3755 32.5717 29.3333H31.7495C31.7157 29.321 31.6763 29.308 31.6424 29.2956C31.4674 29.2322 31.2843 29.1692 31.1051 29.1066C30.8653 29.0225 30.6371 28.941 30.3837 28.8528C29.8492 28.6685 29.2835 28.473 28.6954 28.2574L28.667 28.2469V26.7863H28.6667ZM15.6361 2.66674H20.8717C21.501 2.6698 22.1184 2.83766 22.6626 3.15361C23.2068 3.46956 23.6587 3.92256 23.9733 4.46751C25.2986 6.75678 25.9976 9.35473 26 12V25.7994C25.3247 26.0183 24.722 26.2427 24.1611 26.4843C22.4546 26.3515 20.7533 26.7994 19.3334 27.7553V12C19.3334 8.45827 17.3074 5.01438 15.6361 2.66674ZM16.9227 57.4531L16.9146 57.473C16.6121 58.1963 16.2747 58.5445 15.6993 58.6313C15.69 58.6325 15.683 58.6397 15.6739 58.6413C15.5611 58.6575 15.4474 58.6659 15.3335 58.6666C15.2738 58.6666 15.2143 58.6705 15.155 58.6783C14.7807 57.8983 14 55.2435 14 46.6666C14 38.0915 16.706 33.6712 18.8861 31.4978C18.9013 31.4842 18.9216 31.4794 18.9361 31.4649C21.0689 29.3606 23.1359 28.9402 23.9361 29.1641C23.955 29.1696 23.9748 29.1655 23.9939 29.1699C24.017 29.1781 24.0519 29.1835 24.0701 29.1927C25.8266 30.0425 27.6397 30.7699 29.4965 31.3697C29.724 31.448 29.9153 31.5167 30.1226 31.5895C30.3234 31.6597 30.5262 31.7308 30.717 31.7999C31.4988 32.0557 32.2505 32.3955 32.959 32.8134C32.9949 32.8547 33.0181 32.9034 33.0573 32.9427C33.2224 33.0958 33.3971 33.2382 33.5802 33.3692C33.6459 33.445 33.7052 33.5259 33.7577 33.6112C33.7687 33.6306 33.7785 33.6531 33.789 33.6739C33.8471 33.7923 33.892 33.9167 33.9227 34.0448C33.931 34.078 33.942 34.1055 33.949 34.1411C33.9834 34.3141 34.0004 34.4901 33.9999 34.6666C33.9999 39.2811 26.5781 45.3449 22.5905 48.6027C21.3327 49.6301 20.3392 50.4413 19.7239 51.0571C19.5588 51.2223 19.4034 51.3968 19.2584 51.5799C19.2452 51.5968 19.2347 51.6149 19.2216 51.6318C18.3719 52.8649 17.7766 54.2551 17.4706 55.7211C17.3219 56.3086 17.1389 56.887 16.9227 57.4531ZM26 73.9996C25.9981 75.8398 24.5069 77.331 22.6667 77.3329C20.8266 77.331 19.3353 75.8398 19.3334 73.9996V67.9168C21.261 70.0353 23.5109 71.8362 26.0001 73.2529L26 73.9996ZM31.9999 77.3329C30.4043 77.3305 29.0337 76.1988 28.7296 74.6324C30.4817 75.4208 32.2983 76.0567 34.1595 76.5333C33.5594 77.0513 32.7926 77.3352 31.9999 77.3329ZM47.3686 75.3812C44.7179 74.8954 42.028 74.6561 39.3332 74.6663C38.4255 74.6403 37.5218 74.5362 36.6321 74.3551C36.6201 74.3524 36.611 74.343 36.5988 74.3409C33.583 73.7498 30.6729 72.71 27.9654 71.2562C27.6032 71.0613 27.2547 70.8548 26.907 70.6474C26.7576 70.5581 26.6084 70.472 26.4593 70.3788C26.1715 70.1996 25.8922 70.0131 25.6147 69.8251C25.3879 69.6713 25.1625 69.5126 24.9383 69.349C24.6929 69.1707 24.448 68.9924 24.2115 68.807C23.9319 68.5881 23.6583 68.3542 23.3845 68.1198C23.0421 67.8256 22.7083 67.5216 22.3836 67.2081C22.1639 66.9968 21.945 66.7845 21.7311 66.562C21.4947 66.3149 21.2644 66.0622 21.0403 65.804C20.8834 65.6251 20.7317 65.4381 20.5792 65.2523C20.1516 64.7291 19.7481 64.1867 19.3702 63.6265C18.7284 62.6955 18.161 61.7153 17.6733 60.6951C17.6997 60.678 17.72 60.655 17.746 60.6372C17.9109 60.526 18.0666 60.4016 18.2114 60.2652C18.29 60.1898 18.3597 60.108 18.4314 60.027C18.5335 59.9137 18.6295 59.7951 18.7191 59.6717C18.7789 59.5883 18.8388 59.5059 18.8935 59.4189C18.9866 59.2695 19.0728 59.116 19.1519 58.9588C19.2278 58.8097 19.2977 58.6594 19.3634 58.5055C19.4144 58.3858 19.4663 58.2667 19.512 58.145C19.5737 57.9806 19.6316 57.8148 19.6855 57.6477L19.7167 57.5511C19.8341 57.1797 19.9437 56.8059 20.0456 56.43C20.2599 55.4665 20.6005 54.5355 21.0586 53.6611C21.2122 53.4001 21.3972 53.1589 21.6095 52.943C22.1303 52.4222 23.1251 51.6097 24.2775 50.6683C24.5644 50.434 24.8609 50.1915 25.1629 49.9435C25.6791 51.9225 25.9601 53.9555 26.0001 56.0003C25.9156 57.2955 26.1883 58.589 26.7884 59.7398C27.3886 60.8906 28.2933 61.8545 29.4037 62.5264C29.5866 62.6181 29.7883 62.6658 29.9929 62.6658C30.2905 62.6645 30.5792 62.5638 30.8131 62.3798C31.047 62.1958 31.2127 61.939 31.2841 61.6501C31.3554 61.3611 31.3282 61.0567 31.2068 60.7849C31.0854 60.5132 30.8768 60.2898 30.614 60.1502C30.0999 59.8086 29.6671 59.3582 29.3463 58.8309C29.0254 58.3036 28.8244 57.7122 28.7573 57.0986C29.606 57.263 30.469 57.3418 31.3334 57.3338C31.6845 57.3302 32.02 57.1882 32.2671 56.9387C32.5142 56.6892 32.6529 56.3523 32.6531 56.0011C32.6533 55.65 32.5149 55.3129 32.2681 55.0631C32.0213 54.8134 31.6859 54.671 31.3348 54.6671C30.4108 54.6827 29.4903 54.5503 28.6082 54.275C28.6042 54.2621 28.595 54.2519 28.5906 54.2391C28.4037 52.145 28.0098 50.0746 27.4145 48.0582L27.5143 47.9715C27.7652 47.7564 28.0148 47.5398 28.2631 47.3216C28.389 47.2105 28.5142 47.0955 28.6401 46.983C28.8596 46.7868 29.079 46.5915 29.2973 46.3909C29.4321 46.2668 29.5643 46.1395 29.6984 46.0138C29.9053 45.8201 30.1128 45.6276 30.3168 45.4302C30.4571 45.2946 30.5931 45.1556 30.7317 45.0184C30.9256 44.8263 31.1204 44.6352 31.3099 44.4404C31.4492 44.2973 31.5823 44.1513 31.7187 44.0068L31.7509 43.9727C31.9952 44.8344 32.4434 45.6246 33.0576 46.2765C33.6829 47.1724 34.0125 48.2413 34.0002 49.3338C34.0002 49.6874 34.1407 50.0265 34.3907 50.2766C34.6408 50.5266 34.9799 50.6671 35.3335 50.6671C35.6871 50.6671 36.0262 50.5266 36.2763 50.2766C36.5263 50.0265 36.6668 49.6874 36.6668 49.3338C36.6668 49.2827 36.6629 49.1529 36.6546 48.991C37.0743 49.1977 37.5326 49.3145 38.0001 49.3338C38.3549 49.3344 38.6956 49.1944 38.9476 48.9446C39.1996 48.6948 39.3425 48.3554 39.3451 48.0005C39.3462 47.8261 39.3129 47.6532 39.247 47.4917C39.1811 47.3302 39.0839 47.1833 38.961 47.0595C38.8381 46.9357 38.692 46.8374 38.531 46.7703C38.37 46.7032 38.1973 46.6686 38.0229 46.6685C36.8596 46.1164 35.8145 45.344 34.9452 44.394L34.9429 44.3912C34.317 43.4941 33.9874 42.4237 34.0002 41.33L33.9973 41.3156C34.1115 41.1607 34.2146 41.0042 34.3232 40.8484C34.4579 40.6553 34.5952 40.4626 34.7207 40.2682C34.828 40.1018 34.9232 39.9345 35.0232 39.7673C35.1388 39.5743 35.257 39.3817 35.3621 39.1878C35.4544 39.0173 35.5334 38.8462 35.6171 38.6753C35.7112 38.4832 35.8079 38.2918 35.8904 38.0993C35.9648 37.9261 36.0243 37.7525 36.0887 37.5789C36.1598 37.3876 36.2334 37.1964 36.2916 37.0047C36.3449 36.8301 36.3823 36.6556 36.4246 36.4809C36.4707 36.2898 36.5193 36.0987 36.5516 35.9076C36.5813 35.7322 36.5943 35.5572 36.6116 35.382C36.6258 35.2389 36.6551 35.0955 36.6608 34.9525C36.7651 34.99 36.8762 35.0186 36.9819 35.0547C37.1376 35.1072 37.2926 35.1548 37.4502 35.2037C37.7419 35.2945 38.0305 35.3806 38.3269 35.458C38.4474 35.4892 38.5651 35.5147 38.6852 35.5436C39.0021 35.6198 39.3149 35.6922 39.6282 35.7503C39.7679 35.7764 39.8991 35.7922 40.0363 35.8144C40.3113 35.8584 40.586 35.9047 40.8507 35.9322C41.2322 35.9751 41.6158 35.9981 41.9997 36.0008C42.6828 36.0008 43.3413 35.9825 43.9871 35.9551C44.1808 35.9469 44.3688 35.935 44.5591 35.9244C45.0317 35.898 45.4928 35.8639 45.9425 35.8223C46.0511 35.8122 46.1694 35.8087 46.2766 35.7976L46.278 35.805C46.3002 36.0426 46.3469 36.2773 46.4175 36.5053C46.4281 36.5401 46.4394 36.5748 46.4511 36.6095C46.4778 36.689 46.4953 36.7698 46.528 36.8484C46.5716 36.9534 46.6378 37.0483 46.6908 37.1492C46.715 37.1954 46.7267 37.244 46.7531 37.2898C46.7698 37.3187 46.7941 37.344 46.8116 37.3726C46.8937 37.5043 46.9833 37.631 47.08 37.7523C47.1409 37.8301 47.2027 37.9068 47.2697 37.9812C47.3739 38.0964 47.4839 38.2062 47.5992 38.3103C47.6798 38.3836 47.7636 38.4539 47.8503 38.5229C47.972 38.6203 48.0978 38.7123 48.2275 38.7987C48.3292 38.8662 48.4356 38.9287 48.5438 38.9909C48.678 39.0681 48.8127 39.1439 48.9562 39.2128C49.0808 39.2728 49.2116 39.3254 49.3427 39.379C49.4847 39.437 49.6248 39.4957 49.7742 39.5459C49.9262 39.5971 50.0858 39.6382 50.2447 39.6811C50.3865 39.7192 50.525 39.7614 50.672 39.7926C50.7467 39.8086 50.8233 39.8209 50.8992 39.8351C49.7288 43.3448 48.9794 46.981 48.6667 50.6674C48.6678 50.9776 48.6886 51.2872 48.7289 51.5947C48.5019 52.2649 47.4072 54.6674 46 54.6674C45.2636 54.6674 44.6667 55.2642 44.6667 56.0006C44.6667 56.737 45.2636 57.3339 46 57.3339C46.789 57.2944 47.5568 57.0649 48.2381 56.6649C48.9193 56.2649 49.4939 55.7062 49.9128 55.0364C50.2162 55.6108 50.5414 56.1613 50.8569 56.6867C51.8673 58.0447 52.4926 59.6502 52.6667 61.3339C52.5478 64.0461 51.6099 66.6587 49.9766 68.8273C48.5669 70.7562 47.6696 73.0111 47.3686 75.3812ZM57.9998 77.3329C55.8445 77.2508 53.707 76.9085 51.6339 76.3133C51.1065 76.1861 50.5609 76.0568 50.0041 75.9283C50.1995 73.8551 50.9761 71.879 52.2445 70.2274C53.5858 68.2939 54.55 66.1246 55.0865 63.8334C56.215 64.7279 57.1926 65.7975 57.9821 67.0017C57.9579 67.982 57.6351 68.9316 57.057 69.7237C56.9325 69.8473 56.8336 69.9943 56.7661 70.1562C56.6985 70.3182 56.6636 70.4918 56.6633 70.6673C56.663 70.8427 56.6973 71.0165 56.7643 71.1787C56.8313 71.3408 56.9297 71.4882 57.0538 71.6122C57.1778 71.7363 57.3252 71.8346 57.4873 71.9016C57.6495 71.9686 57.8232 72.003 57.9987 72.0027C58.1741 72.0024 58.3478 71.9674 58.5097 71.8999C58.6716 71.8323 58.8186 71.7335 58.9423 71.609C59.4322 71.0956 59.8116 70.4872 60.0573 69.8215C60.5913 70.3134 61.2755 70.611 61.9995 70.6662C62.342 70.6657 62.6712 70.5335 62.919 70.2969C63.1667 70.0603 63.3138 69.7375 63.33 69.3953C63.3461 69.0532 63.23 68.7179 63.0057 68.459C62.7814 68.2001 62.4661 68.0375 62.1251 68.0048C62.0151 67.967 61.3276 67.6742 60.5256 66.07C59.1796 63.9054 57.3962 62.046 55.2896 60.6109C54.9799 58.7066 54.2462 56.8961 53.1428 55.3135C52.1322 53.9555 51.507 52.35 51.333 50.6663C51.3484 49.8615 51.4254 49.0588 51.5636 48.2657C52.1777 49.482 53.0383 50.5571 54.0907 51.4225C55.143 52.288 56.3641 52.9248 57.676 53.2925C59.2515 53.6871 60.4456 55.7561 60.771 56.5178C60.9113 56.8393 61.1727 57.0926 61.4985 57.2228C61.8242 57.3529 62.1882 57.3494 62.5114 57.2131C62.8346 57.0767 63.0911 56.8185 63.2252 56.4944C63.3594 56.1703 63.3604 55.8063 63.228 55.4814C63.0574 55.0764 61.4657 51.4919 58.3231 50.7068C53.8889 49.5974 52.6518 43.794 52.6395 43.7354C52.6311 43.6935 52.604 43.662 52.5919 43.6218C52.9177 42.3998 53.2694 41.1847 53.6468 39.9776C54.3864 39.9464 55.1196 39.8268 55.8307 39.6214C55.8834 39.6059 55.9361 39.5917 55.9884 39.575C56.0959 39.5396 56.2017 39.4973 56.3081 39.4557C56.8253 39.2682 57.307 38.9948 57.7331 38.6468C63.1107 47.3512 65.9993 57.9905 65.9993 63.9995C65.9997 75.6012 60.9874 77.3329 57.9998 77.3329Z" fill="black"/>
</g>
<defs>
<clipPath id="clip0_249_26853">
<rect width="80" height="80" fill="white"/>
</clipPath>
</defs>
</svg>
