<svg width="80" height="74" viewBox="0 0 80 74" fill="none" xmlns="http://www.w3.org/2000/svg">
<path d="M79.9918 69.4903L79.4591 59.6367C79.1928 53.4227 78.3051 47.2975 76.8848 41.261L75.5532 35.6684C73.9553 28.6554 70.3157 22.3526 65.0781 17.3814L53.6266 6.55131C52.6501 5.66359 51.4073 5.39728 50.1645 5.75236C49.0105 6.10745 48.034 7.08394 47.7677 8.32674L46.5249 13.3867C46.0678 15.2653 45.5822 17.3475 45.1668 19.4667C44.64 14.559 44.5062 9.57873 44.8382 4.59833L44.927 3.53307C44.9669 3.29346 44.9164 3.07222 44.8009 2.90092C44.5709 1.77619 43.2308 0.692383 39.867 0.692383C35.3397 0.692383 34.9846 2.55659 34.9846 3.17799C34.9846 3.22411 34.9906 3.26711 34.9958 3.31045C34.9906 3.35432 34.9846 3.39766 34.9846 3.4443L35.2509 6.64008C35.3977 8.90304 35.4624 11.1706 35.4451 13.4382C35.4344 13.4794 35.4288 13.5217 35.4284 13.5643C35.4284 13.6163 35.4324 13.677 35.4425 13.7441C35.4257 15.4314 35.3618 17.118 35.2509 18.8018L35.1621 19.6007C35.0886 20.9552 34.8465 22.2952 34.4414 23.5897C34.4154 23.443 34.3892 23.2948 34.3632 23.1516L31.6111 8.41551C31.3448 7.17271 30.4571 6.19622 29.2143 5.84113C27.9715 5.39728 26.7286 5.75236 25.7522 6.55131L15.8985 15.4285C10.7498 19.9558 7.02136 25.9035 5.15716 32.4726L3.02664 39.7519C1.25121 45.7883 0.363497 52.0023 0.185954 58.2164L0.00841112 69.4903C-0.0803604 70.7332 0.54104 71.7984 1.51753 72.5086C2.13893 72.9524 2.8491 73.13 3.55927 73.13C4.00313 73.13 4.44699 73.0412 4.89085 72.8637L11.7263 70.1117C14.7445 68.9577 17.8515 67.8925 21.0473 67.1823L24.9532 66.2058C31.3448 64.6079 35.8721 58.9265 35.8721 52.3574V39.6631C35.8721 38.0659 35.7922 36.4689 35.7084 34.8717C36.8958 33.723 37.8875 32.5189 38.624 31.2298C39.2915 30.135 39.8371 28.9705 40.2511 27.757C40.6598 28.8218 41.186 29.8377 41.8198 30.7859C42.405 31.7056 43.1295 32.5458 43.9625 33.3265C43.9552 33.3673 43.9503 33.4082 43.9503 33.4491C43.9503 35.2245 43.9503 37.0887 44.0391 38.8642L44.7493 53.6002C45.0156 59.903 49.8092 65.2293 56.112 66.117L58.5976 66.4721C62.6811 67.0047 66.6758 68.3363 70.3155 70.3781L74.7541 72.8637C75.2867 73.13 75.8193 73.3075 76.4407 73.3075C77.0621 73.3075 77.7723 73.13 78.3049 72.6861C79.4591 71.976 80.0805 70.8219 79.9918 69.4903ZM39.867 2.46781C42.0863 2.46781 43.0628 3.08922 43.0628 3.26676C43.0628 3.32172 43.0689 3.37356 43.0763 3.42471C42.5876 3.76957 41.5559 4.03727 39.867 3.97693C38.3579 3.88816 37.4702 3.62184 37.0263 3.4443C36.9474 3.39159 36.8528 3.33108 36.7588 3.26277C36.7578 3.25757 36.7553 3.25254 36.7541 3.24734C36.7555 3.22393 36.76 3.20209 36.76 3.17799C36.76 3.08922 37.3814 2.46781 39.867 2.46781ZM77.4174 71.2658C76.8848 71.6209 76.1746 71.7096 75.642 71.3546L71.2034 68.8689C67.3862 66.7384 63.2139 65.3181 58.8641 64.6967L56.3785 64.3416C50.9635 63.5427 46.7912 58.9265 46.5249 53.4227L45.8147 38.7754C45.7481 37.445 45.7315 36.1147 45.7273 34.7841C46.1897 35.1237 46.6629 35.4483 47.1463 35.7571C47.2351 35.8459 47.4126 35.8459 47.5901 35.8459C47.8564 35.8459 48.1228 35.7572 48.3003 35.4908C48.5666 35.047 48.4779 34.5144 48.034 34.248C46.081 33.0052 44.3944 31.4961 43.2403 29.8095C42.0863 28.1228 41.4649 26.4361 41.1098 24.3944C41.1098 24.1447 40.9411 23.923 40.7145 23.7928C40.5985 23.6944 40.4598 23.6265 40.3109 23.5954C39.867 23.5067 39.4232 23.8618 39.3344 24.3056C39.0681 26.4361 38.2691 28.4779 37.2039 30.3421C36.2274 32.0287 34.807 33.5379 33.0316 34.9582L32.2327 35.5796C31.7888 35.8459 31.7888 36.4673 32.0551 36.8224C32.2327 37.0887 32.499 37.1775 32.7653 37.1775C32.9428 37.1775 33.1204 37.1775 33.2091 37L34.0024 36.3831C34.0556 37.4889 34.0969 38.6192 34.0969 39.7519V52.4462C34.0969 58.2164 30.1909 63.1876 24.5095 64.5191L20.6036 65.4956C17.4078 66.2058 14.212 67.2711 11.105 68.5139L4.26962 71.2658C3.92199 71.4147 3.60245 71.449 3.29469 71.3913L7.46539 66.8272C8.26434 65.9395 9.06328 65.1405 9.951 64.4304C10.1285 64.2528 10.1285 63.9865 9.951 63.809C9.77346 63.6314 9.50714 63.6314 9.3296 63.809C8.53065 64.6079 7.64294 65.4069 6.84399 66.2946L2.51222 71.0348C2.02866 70.6808 1.78384 70.1711 1.78384 69.5791L1.96139 58.3051C2.0987 53.5694 2.66289 48.8872 3.77236 44.2986C4.17755 46.8631 5.03909 49.3574 6.31119 51.6473C6.39996 51.8248 6.48873 51.9136 6.66628 51.9136H6.84382C7.02136 51.736 7.11014 51.4697 7.02136 51.2922C5.41255 48.4097 4.51357 45.2233 4.39861 41.9243C4.55464 41.3753 4.71874 40.8287 4.89085 40.2845L5.54952 38.0344C5.82104 38.7227 6.19208 39.3604 6.66628 39.9294C8.35294 41.8824 11.0161 43.1252 14.7445 43.4803C15.6322 43.6578 16.6087 43.6578 17.4964 43.6578C18.029 43.6578 18.4729 43.6578 18.828 43.7466C19.0943 43.7466 19.2718 43.569 19.2718 43.3027C19.2718 43.0364 19.0943 42.8589 18.828 42.8589C17.4964 42.9476 16.1648 42.8589 14.8333 42.7701C11.3712 42.415 8.88557 41.3498 7.37645 39.4856C6.68049 38.629 6.21236 37.6101 6.00743 36.4696L7.02136 33.0052C8.79679 26.7025 12.3477 21.1098 17.2301 16.76L27.0837 7.88288C27.5276 7.43902 28.149 7.35025 28.7704 7.52779C29.303 7.70534 29.7469 8.1492 29.9244 8.7706L30.0775 9.59017C30.0341 9.66466 30.0118 9.74962 30.0132 9.83585L30.8121 23.1516C30.9009 24.1281 30.9897 25.1933 30.9897 26.1698C30.9897 26.4361 31.1672 26.6137 31.4335 26.6137C31.6999 26.6137 31.8774 26.3474 31.8774 26.1698C31.7886 25.1933 31.7886 24.1281 31.6999 23.1516L31.269 15.9705L32.6763 23.5067L33.209 26.4361C33.209 26.4564 33.2112 26.4762 33.2135 26.496C32.8211 27.219 32.3745 27.9112 31.8774 28.5667C31.6111 28.9217 31.6999 29.5431 32.0549 29.8095C32.2325 29.8982 32.41 29.987 32.5876 29.987C32.8539 29.987 33.1202 29.8982 33.2977 29.6319C35.4283 26.7912 36.6711 23.3291 36.9374 19.7783L37.0261 18.9793C37.1043 17.7556 37.1567 16.532 37.189 15.3106C37.4274 15.3884 37.6966 15.4585 38.0026 15.5172C38.1802 15.5172 38.3577 15.4285 38.4465 15.1621C38.5353 14.8958 38.3577 14.6295 38.0914 14.6295C37.7599 14.5742 37.4629 14.4932 37.211 14.3944C37.2463 12.3401 37.2158 10.2853 37.1196 8.23294C37.8393 8.46527 38.7678 8.59305 39.867 8.59305C40.1333 8.59305 40.3109 8.41551 40.3109 8.1492C40.3109 7.88288 40.1333 7.70534 39.867 7.70534C38.5777 7.70534 37.6514 7.52485 37.0676 7.27587C37.0537 7.03435 37.0421 6.79231 37.0263 6.55131L36.845 4.31485C37.6228 4.63301 38.628 4.86465 39.867 4.86465H40.2221C41.4125 4.86465 42.3715 4.71103 43.0626 4.42495C42.9263 6.52114 42.8673 8.62165 42.8858 10.7222C42.3289 11.024 41.3311 11.2562 39.867 11.2562C39.6007 11.2562 39.4232 11.4337 39.4232 11.7001C39.4232 11.9664 39.6007 12.1439 39.867 12.1439C41.1171 12.1439 42.1465 11.9785 42.8988 11.682C42.9373 13.6694 43.0397 15.655 43.206 17.6358C42.8362 17.9966 41.9658 18.2936 40.4884 18.3578C40.2221 18.3578 40.0446 18.5353 40.0446 18.8016C40.0446 19.0679 40.2221 19.2455 40.4884 19.2455C41.8469 19.1758 42.7254 18.9282 43.2934 18.6211C43.3522 19.2463 43.4175 19.8717 43.4881 20.4969C43.4428 20.5672 43.4179 20.6545 43.4179 20.7544C43.4179 21.1095 42.974 21.4646 42.1751 21.6421C41.9975 21.7309 41.82 21.9084 41.9088 22.1748C41.9975 22.4411 42.1751 22.5298 42.3526 22.5298H42.4414C42.9709 22.3828 43.3518 22.1865 43.6277 21.9743C43.9268 24.2007 44.7994 26.4157 46.1698 28.3L47.9452 30.7856C48.1228 31.0519 48.3891 31.1407 48.6554 31.1407C48.8329 31.1407 49.0105 31.1407 49.188 31.0519C49.5431 30.7856 49.6319 30.253 49.3656 29.8091L47.5901 27.3235C46.9682 26.4795 46.4798 25.5467 46.1134 24.5693C46.1383 24.513 46.1572 24.4543 46.1698 24.394C46.5249 20.7544 47.4126 17.026 48.2115 13.7415L49.0346 10.3905L48.6554 13.2979C48.1228 17.2927 48.3891 21.3762 49.3656 25.3709L50.9635 31.5849C51.9399 35.4021 52.2063 39.2192 51.9399 43.1252L51.7624 45.8771C51.3185 51.5585 54.5143 57.0623 59.6631 59.4592L60.9946 60.0806C63.4802 61.2346 65.7883 62.5662 68.0076 64.1641C68.0964 64.2528 68.1851 64.2528 68.2739 64.2528C68.3627 64.2528 68.5402 64.1641 68.5402 64.0753C68.7178 63.8977 68.629 63.6314 68.4515 63.4539C66.2322 61.856 63.8353 60.4356 61.3497 59.2816L60.0182 58.6602C55.2245 56.4409 52.2063 51.2922 52.6501 45.9659L52.8277 43.214C53.1827 39.2192 52.8277 35.2245 51.8512 31.4073L50.2533 25.1933C49.2768 21.3762 49.0105 17.3814 49.5431 13.4755L50.3096 7.59888C50.4325 7.53149 50.5625 7.47788 50.6971 7.43902C51.3185 7.26148 51.9399 7.43902 52.3838 7.88288L63.7466 18.8018C68.8065 23.5067 72.2686 29.5431 73.7777 36.201L74.0595 37.3847C74.0656 39.3078 73.6909 41.2131 72.9569 42.9907C72.2229 44.7682 71.1441 46.3828 69.7829 47.7413L68.9839 48.5403C68.8064 48.7178 68.8064 48.9841 68.9839 49.1617C69.0727 49.2504 69.2502 49.2504 69.339 49.2504C69.4278 49.2504 69.6053 49.1617 69.6053 49.1617L70.4043 48.3627C72.6825 46.0247 74.1495 43.1597 74.6988 40.0697L75.1091 41.7936C76.5295 47.6525 77.3284 53.7778 77.6835 59.8142L78.2161 69.6679C78.3051 70.2893 77.95 70.9107 77.4174 71.2658Z" fill="black"/>
</svg>
