<svg width="20" height="20" viewBox="0 0 20 20" fill="none" xmlns="http://www.w3.org/2000/svg">
<path fill-rule="evenodd" clip-rule="evenodd" d="M1.4585 3.75016C1.4585 2.48451 2.48451 1.4585 3.75016 1.4585H16.2502C17.5158 1.4585 18.5418 2.48451 18.5418 3.75016V16.2502C18.5418 17.5158 17.5158 18.5418 16.2502 18.5418H3.75016C2.48451 18.5418 1.4585 17.5158 1.4585 16.2502V3.75016ZM9.16683 13.7502C9.16683 13.2899 9.53991 12.9168 10.0002 12.9168H10.0077C10.4679 12.9168 10.841 13.2899 10.841 13.7502C10.841 14.2104 10.4679 14.5835 10.0077 14.5835H10.0002C9.53991 14.5835 9.16683 14.2104 9.16683 13.7502ZM9.16683 7.91683C9.16683 7.4566 9.53991 7.0835 10.0002 7.0835C10.4604 7.0835 10.8335 7.4566 10.8335 7.91683C10.8335 8.08397 10.7852 8.23728 10.702 8.36658C10.6036 8.5195 10.4784 8.68075 10.3242 8.87233L10.2496 8.96483C10.1202 9.12466 9.97408 9.30558 9.84083 9.48866C9.5275 9.91933 9.16683 10.5155 9.16683 11.2502C9.16683 11.7104 9.53991 12.0835 10.0002 12.0835C10.4604 12.0835 10.8335 11.7104 10.8335 11.2502C10.8335 11.0643 10.9251 10.8312 11.1885 10.4692C11.2945 10.3236 11.4088 10.182 11.5376 10.0227L11.6227 9.91716C11.7782 9.72383 11.9529 9.5025 12.1036 9.26841C12.3546 8.87825 12.5002 8.41325 12.5002 7.91683C12.5002 6.53612 11.3809 5.41683 10.0002 5.41683C8.61941 5.41683 7.50016 6.53612 7.50016 7.91683C7.50016 8.37708 7.87326 8.75016 8.3335 8.75016C8.79375 8.75016 9.16683 8.37708 9.16683 7.91683Z" fill="#3689FD"/>
</svg>
