<svg width="25" height="24" viewBox="0 0 25 24" fill="none" xmlns="http://www.w3.org/2000/svg">
<path d="M20.84 6.82L15.08 2.79C13.51 1.69 11.1 1.75 9.59004 2.92L4.58004 6.83C3.58004 7.61 2.79004 9.21 2.79004 10.47V17.37C2.79004 19.92 4.86004 22 7.41004 22H18.19C20.74 22 22.81 19.93 22.81 17.38V10.6C22.81 9.25 21.94 7.59 20.84 6.82ZM13.55 18C13.55 18.41 13.21 18.75 12.8 18.75C12.39 18.75 12.05 18.41 12.05 18V15C12.05 14.59 12.39 14.25 12.8 14.25C13.21 14.25 13.55 14.59 13.55 15V18Z" fill="#3689FD"/>
</svg>
