<svg width="25" height="24" viewBox="0 0 25 24" fill="none" xmlns="http://www.w3.org/2000/svg">
<g clip-path="url(#clip0_264_31461)">
<path d="M7.48928 14.9993C7.11087 14.1487 6.8999 13.2024 6.8999 12.2052C6.8999 8.5016 9.81005 5.49927 13.3999 5.49927C16.9898 5.49927 19.8999 8.5016 19.8999 12.2052C19.8999 13.2024 19.6889 14.1487 19.3105 14.9993" stroke="#484C52" stroke-width="1.5" stroke-linecap="round"/>
<path d="M13.3999 1.99927V2.99927" stroke="#484C52" stroke-width="1.5" stroke-linecap="round" stroke-linejoin="round"/>
<path d="M23.3999 11.9991H22.3999" stroke="#484C52" stroke-width="1.5" stroke-linecap="round" stroke-linejoin="round"/>
<path d="M4.3999 11.9991H3.3999" stroke="#484C52" stroke-width="1.5" stroke-linecap="round" stroke-linejoin="round"/>
<path d="M20.4703 4.92798L19.7632 5.63509" stroke="#484C52" stroke-width="1.5" stroke-linecap="round" stroke-linejoin="round"/>
<path d="M7.0367 5.63594L6.32959 4.92883" stroke="#484C52" stroke-width="1.5" stroke-linecap="round" stroke-linejoin="round"/>
<path d="M15.9169 19.3056C16.9273 18.9788 17.3325 18.054 17.4465 17.1238C17.4805 16.8459 17.2519 16.6154 16.9719 16.6154L9.87676 16.6156C9.58716 16.6156 9.35458 16.8614 9.38916 17.1489C9.50081 18.0773 9.78261 18.7555 10.8534 19.3056M15.9169 19.3056C15.9169 19.3056 11.0296 19.3056 10.8534 19.3056M15.9169 19.3056C15.7954 21.2506 15.2337 22.0209 13.4067 21.9993C11.4525 22.0354 11.0029 21.0833 10.8534 19.3056" stroke="#484C52" stroke-width="1.5" stroke-linecap="round" stroke-linejoin="round"/>
</g>
<defs>
<clipPath id="clip0_264_31461">
<rect width="24" height="24" fill="white" transform="translate(0.399902)"/>
</clipPath>
</defs>
</svg>
