<svg width="41" height="40" viewBox="0 0 41 40" fill="none" xmlns="http://www.w3.org/2000/svg">
<rect x="0.0212402" width="40" height="40" rx="20" fill="#0077B5"/>
<g clip-path="url(#clip0_264_32084)">
<path d="M28.0173 28V27.9993H28.0213V22.1313C28.0213 19.2607 27.4033 17.0493 24.0473 17.0493C22.434 17.0493 21.3513 17.9347 20.9093 18.774H20.8627V17.3173H17.6807V27.9993H20.994V22.71C20.994 21.3173 21.258 19.9707 22.9827 19.9707C24.682 19.9707 24.7073 21.56 24.7073 22.7993V28H28.0173Z" fill="white"/>
<path d="M12.2849 17.318H15.6022V28H12.2849V17.318Z" fill="white"/>
<path d="M13.9426 12C12.8819 12 12.0212 12.8607 12.0212 13.9213C12.0212 14.982 12.8819 15.8607 13.9426 15.8607C15.0032 15.8607 15.8639 14.982 15.8639 13.9213C15.8632 12.8607 15.0026 12 13.9426 12V12Z" fill="white"/>
</g>
<defs>
<clipPath id="clip0_264_32084">
<rect width="16" height="16" fill="white" transform="translate(12.0212 12)"/>
</clipPath>
</defs>
</svg>
