<svg width="61" height="30" viewBox="0 0 61 30" fill="none" xmlns="http://www.w3.org/2000/svg">
<g clip-path="url(#clip0_482_1323)">
<mask id="mask0_482_1323" style="mask-type:luminance" maskUnits="userSpaceOnUse" x="9" y="2" width="11" height="24">
<path d="M9.36475 2.64807H19.8401V25.1199H9.36475V2.64807Z" fill="white"/>
</mask>
<g mask="url(#mask0_482_1323)">
<path d="M17.4142 24.9619C17.6323 24.8578 17.8233 24.7078 18.0076 24.551C18.2258 24.446 18.4408 24.3322 18.6236 24.1753C18.972 23.8781 19.0795 23.5831 18.9273 23.1785C18.7642 22.7456 18.7783 22.2994 18.862 21.8491C18.9579 21.3338 19.1179 20.8194 19.0692 20.2978C19.0395 19.9794 18.9336 19.6735 18.8079 19.3794C18.7851 19.326 18.7617 19.2728 18.7373 19.2194C18.6054 18.7175 18.4651 18.251 18.407 18.0603C18.167 17.2744 17.7133 16.5403 17.1036 15.9497C16.8186 15.6738 16.5001 15.4281 16.2436 15.1294C15.9061 14.7372 15.6886 14.2691 15.4751 13.8078C15.9358 13.3703 16.3408 12.881 16.6804 12.3522C16.9779 12.3528 17.2148 12.1444 17.4204 11.9481C17.642 11.7381 17.8701 11.5163 17.9567 11.2291C18.0429 10.9419 17.9329 10.5725 17.6354 10.4535C17.5517 10.4197 17.4583 10.4072 17.3798 10.3625C17.1373 10.2222 17.1836 9.88627 17.2629 9.63533C17.287 9.55689 17.3139 9.47533 17.3742 9.41814C17.5086 9.29033 17.7439 9.33658 17.9133 9.43002C18.0829 9.52408 18.2342 9.65908 18.4242 9.6997C18.6729 9.75314 18.9279 9.62377 19.082 9.43845C19.2358 9.25345 19.3086 9.0197 19.3792 8.7922C19.7504 7.59064 20.1114 6.25595 19.5283 5.10002C19.187 4.42314 18.5514 3.90002 17.8467 3.55095C17.142 3.20189 16.3673 3.01127 15.5951 2.85377C15.0617 2.7447 14.5083 2.6497 13.9801 2.74845C12.9814 2.93533 12.2867 3.76189 11.7948 4.59564C11.5186 5.06314 11.2761 5.55783 11.1867 6.09033C11.0289 7.02533 11.352 8.00408 11.1914 8.93752C11.097 9.48252 10.842 9.98533 10.6889 10.5163C10.4708 11.2722 10.4614 12.0778 10.2267 12.8291C9.95044 13.7113 9.36607 14.5231 9.38013 15.4516C9.38326 15.6485 9.41544 15.85 9.51576 16.026C9.74107 16.4194 10.2842 16.6494 10.3548 17.0878C10.4048 17.3991 10.1876 17.6766 10.0839 17.9716C9.95044 18.3497 10.0048 18.7653 10.0604 19.166C10.0823 19.3228 10.1051 19.4838 10.1804 19.6272C10.2904 19.836 10.4967 19.9819 10.6873 20.1306C11.0626 20.4256 11.4001 20.7638 11.6895 21.1338C11.7029 21.1897 11.7179 21.2444 11.7351 21.2994C11.8433 21.65 12.0245 21.9731 12.2286 22.2781C12.4445 22.6013 12.687 22.9063 12.9529 23.1903C13.1711 23.4241 13.4083 23.645 13.6876 23.8003C14.1451 24.0563 14.6811 24.1181 15.1911 24.2388C15.6367 24.3447 16.0504 24.5125 16.3808 24.8366C16.6876 25.1391 17.0014 25.1603 17.4142 24.9619Z" fill="#D4F1FF"/>
</g>
<mask id="mask1_482_1323" style="mask-type:luminance" maskUnits="userSpaceOnUse" x="9" y="2" width="10" height="24">
<path d="M9.36475 2.64807H18.8801V25.1199H9.36475V2.64807Z" fill="white"/>
</mask>
<g mask="url(#mask1_482_1323)">
<path d="M17.6261 24.8428C17.1364 24.2678 16.9395 23.4341 17.1876 22.7156C17.3051 22.3753 17.5123 22.0225 17.4042 21.6791C16.5486 21.675 15.5904 22.275 14.9189 21.7462C14.4479 21.3762 14.4536 20.6703 14.1858 20.1337C13.9661 19.6937 13.5448 19.1887 13.8342 18.7912C14.0892 18.4412 14.6333 18.5809 15.0286 18.755C14.6473 18.3103 13.9692 18.3197 13.4239 18.1072C12.5567 17.7684 12.0223 16.7434 12.2414 15.8391C12.2654 15.7378 12.307 15.6291 12.4014 15.5844C12.457 15.5584 12.5208 15.56 12.5817 15.5669C13.0023 15.6162 13.3611 15.8853 13.6939 16.1475C14.0273 16.4094 14.3798 16.6831 14.7989 16.745C15.2176 16.8069 15.7145 16.5653 15.7695 16.1459C15.8039 15.8822 15.662 15.6281 15.4979 15.4178C15.1064 14.9169 14.5579 14.5403 13.9495 14.3544C13.8083 14.3112 13.6545 14.2722 13.5604 14.1584C13.3186 13.8644 13.6986 13.4487 14.062 13.3366C14.4251 13.2234 14.8836 13.1537 15.017 12.7975C14.7908 12.7278 14.5648 12.6587 14.3389 12.5891C15.4117 12.295 16.4845 12.0016 17.557 11.7075C17.6058 11.6941 17.6561 11.6784 17.7054 11.6597C17.817 11.5303 17.9095 11.39 17.9583 11.2291C17.9854 11.1387 17.9926 11.0409 17.9817 10.9453C17.8311 10.8431 17.5995 10.8094 17.4064 10.8141C16.6726 10.8306 15.9404 10.9044 15.2195 11.0353C15.0592 11.0644 14.8567 11.0778 14.7745 10.9381C14.7289 10.8612 14.7408 10.7641 14.7601 10.6762C14.8983 10.0525 15.3592 9.51062 15.9523 9.27312C16.4679 9.06687 17.0714 9.09593 17.5679 9.34062C17.6826 9.33343 17.8114 9.37281 17.9148 9.42999C18.0664 9.51374 18.2029 9.63062 18.3661 9.68405C18.382 9.67937 18.3967 9.67374 18.4126 9.66687C18.4926 9.62906 18.5514 9.55781 18.5992 9.48312C19.082 8.73187 18.8142 7.07249 17.9236 7.14218C15.392 7.34062 16.3195 6.37593 15.5129 5.99156C15.1661 5.82687 14.8198 5.61656 14.6245 5.28562C14.3026 4.74218 14.5014 3.99406 14.9714 3.57218C15.3833 3.20187 15.9529 3.05437 16.5117 3.06312C16.2089 2.98218 15.9029 2.91468 15.5967 2.85218C15.0633 2.74312 14.5098 2.64812 13.9817 2.74687C12.9804 2.93531 12.2861 3.76187 11.7948 4.59468C11.5186 5.06218 11.2761 5.55718 11.1867 6.08968C11.0289 7.02437 11.352 8.00343 11.1914 8.93655C11.097 9.48155 10.842 9.98437 10.6889 10.5153C10.4708 11.2716 10.4614 12.0769 10.2267 12.8281C9.95044 13.7106 9.36607 14.5222 9.38013 15.4509C9.38326 15.6478 9.41544 15.8494 9.51576 16.025C9.74107 16.4187 10.2842 16.6484 10.3548 17.0869C10.4048 17.3984 10.1876 17.6759 10.0839 17.9709C9.95044 18.3487 10.0048 18.7644 10.0604 19.1653C10.0823 19.3222 10.1051 19.4828 10.1804 19.6266C10.2904 19.835 10.4967 19.9809 10.6873 20.13C11.0626 20.425 11.4001 20.7628 11.6895 21.1331C11.7029 21.1887 11.7179 21.2437 11.7351 21.2984C11.8433 21.6491 12.0245 21.9722 12.2286 22.2775C12.4445 22.6006 12.687 22.9056 12.9529 23.1894C13.1711 23.4231 13.4083 23.6444 13.6876 23.7997C14.1451 24.0553 14.6811 24.1172 15.1911 24.2381C15.6367 24.3441 16.0504 24.5119 16.3808 24.8356C16.6892 25.1384 17.0029 25.1597 17.4158 24.9612C17.4879 24.9266 17.5579 24.8866 17.6261 24.8428Z" fill="#B8E7FF"/>
</g>
<mask id="mask2_482_1323" style="mask-type:luminance" maskUnits="userSpaceOnUse" x="9" y="2" width="9" height="24">
<path d="M9.36475 2.80005H18.0001V25.12H9.36475V2.80005Z" fill="white"/>
</mask>
<g mask="url(#mask2_482_1323)">
<path d="M15.3607 23.7442C15.8219 23.4783 16.1594 23.007 16.2628 22.4845C15.7591 22.8986 15.1085 23.338 14.5075 23.0855C14.2672 22.9842 14.0844 22.7864 13.8757 22.6311C13.4088 22.2839 12.8 22.1411 12.3857 21.7317C11.8457 21.1983 11.775 20.3661 11.7372 19.6086C11.731 19.4808 11.7272 19.342 11.7994 19.2361C11.8622 19.1452 11.9688 19.0964 12.071 19.0527C12.4891 18.8714 12.9082 18.6895 13.3266 18.5083C12.5763 18.4995 11.8244 18.6345 11.1238 18.9036C11.0585 18.1633 11.851 17.3811 11.4266 16.7717C11.2657 16.5405 10.9794 16.4408 10.7422 16.288C10.5053 16.1349 10.2957 15.8424 10.416 15.5883C10.4353 15.837 10.8419 15.8502 10.9903 15.6495C11.1385 15.4486 11.1166 15.1758 11.1322 14.9264C11.1478 14.677 11.25 14.3861 11.4932 14.3295C11.5907 14.3067 11.6919 14.328 11.7891 14.3514C12.7772 14.5908 13.6985 15.1014 14.4244 15.8127C13.58 14.8189 12.4719 14.0511 11.2453 13.6095C11.1447 13.5736 11.0341 13.532 10.9832 13.4377C10.9297 13.3399 10.9588 13.2199 10.9894 13.1124C11.0616 12.8589 11.1338 12.6064 11.206 12.353C11.4603 12.5664 11.8394 12.4936 12.161 12.4095C13.1772 12.143 14.1935 11.877 15.2097 11.6105C14.2994 11.732 13.3682 11.6958 12.4703 11.5036C12.9378 11.3061 13.1819 10.7839 13.27 10.2842C13.3569 9.78454 13.3303 9.2661 13.4607 8.7761C13.4982 8.63392 13.5563 8.48673 13.6782 8.40517C13.7825 8.3361 13.915 8.32829 14.0407 8.3236C15.351 8.27798 16.6672 8.35798 17.9628 8.56173C17.8441 8.1086 17.2919 7.94767 16.8272 7.88267C16.0769 7.77767 15.3197 7.71735 14.5616 7.70298C14.7697 7.59579 14.7407 7.2561 14.5547 7.11423C14.3685 6.97204 14.1072 6.98298 13.8803 7.04048C13.6538 7.09767 13.4332 7.19485 13.1994 7.20423C12.69 7.22392 12.2403 6.79798 12.0991 6.3086C11.9578 5.81923 12.0678 5.28985 12.2553 4.8161C12.5669 4.02642 13.0966 3.3261 13.765 2.80298C12.8807 3.06017 12.2522 3.82642 11.7963 4.59798C11.52 5.06548 11.2775 5.56048 11.1882 6.09298C11.0303 7.02767 11.3535 8.00673 11.1928 8.93985C11.0985 9.48485 10.8435 9.98767 10.6903 10.5186C10.4722 11.2749 10.4628 12.0802 10.2282 12.8314C9.95191 13.7139 9.36753 14.5255 9.3816 15.4542C9.38472 15.6511 9.41691 15.8527 9.51722 16.0283C9.74253 16.422 10.2857 16.6517 10.3563 17.0902C10.4063 17.4017 10.1891 17.6792 10.0853 17.9742C9.95191 18.352 10.0063 18.768 10.0619 19.1686C10.0838 19.3255 10.1066 19.4861 10.1819 19.6299C10.2919 19.8383 10.4982 19.9842 10.6888 20.1333C11.0641 20.4283 11.4016 20.7661 11.691 21.1364C11.7044 21.192 11.7194 21.247 11.7366 21.3017C11.8447 21.6524 12.026 21.9755 12.23 22.2808C12.446 22.6039 12.6885 22.9089 12.9544 23.1927C13.1725 23.4264 13.4097 23.6477 13.6891 23.803C14.1466 24.0586 14.6825 24.1205 15.1925 24.2414C15.6382 24.3474 16.0519 24.5152 16.3822 24.8389C16.5469 25.0014 16.7135 25.082 16.8963 25.0924C16.4138 24.6077 15.9013 24.1574 15.3607 23.7442Z" fill="#A4D4FF"/>
</g>
<path d="M16.229 25.1001C16.1499 24.9786 16.5805 24.2373 17.4087 23.6986C18.2374 23.1598 19.1509 23.0264 19.2293 23.1479C19.3084 23.2695 18.7002 23.8045 17.8715 24.3433C17.0437 24.882 16.3084 25.2211 16.229 25.1001Z" fill="#5299FF"/>
<path d="M19.8093 24.4044L17.1437 26.1384L16.1821 24.6622L18.8474 22.9281L19.8093 24.4044Z" fill="#D4F1FF"/>
<path d="M20.3502 24.8819L19.4092 23.4373C19.2955 23.2632 18.5317 23.5588 17.703 24.0979C16.8745 24.6366 16.2945 25.2154 16.4083 25.3894L17.3492 26.8341L20.3502 24.8819Z" fill="#5AB8FF"/>
<path d="M17.5306 23.8185C18.3593 23.2797 19.1228 22.9832 19.2365 23.1582L19.0874 22.9301C18.9737 22.7557 18.2103 23.0516 17.3815 23.5904C16.5528 24.1291 15.9728 24.7079 16.0865 24.8819L16.2356 25.1104C16.1228 24.9354 16.7018 24.3572 17.5306 23.8185Z" fill="#5AB8FF"/>
<path d="M18.0318 24.0467C18.2521 23.8492 18.5064 23.6948 18.7511 23.5276C18.4555 23.6507 18.0889 23.8467 17.7099 24.0932C16.8811 24.632 16.3011 25.2107 16.4152 25.3848L17.3558 26.8295L18.4021 26.1495C18.4649 26.0554 18.5268 25.9604 18.5896 25.8663L18.5127 25.8004C18.3283 25.7776 18.1299 25.8445 17.9611 25.7667C17.9161 25.7463 17.8771 25.7167 17.8402 25.6845C17.6486 25.5157 17.5333 25.2632 17.5318 25.0076C17.5286 24.6351 17.7546 24.2954 18.0318 24.0467Z" fill="#50ACFF"/>
<path d="M17.4942 26.739L16.5536 25.2943C16.4436 25.1249 16.9867 24.5752 17.7761 24.0505C17.7517 24.0662 17.7273 24.0818 17.703 24.0977C16.8745 24.6365 16.2945 25.2152 16.4083 25.3893L17.3492 26.834L17.4942 26.739Z" fill="#4D96FF"/>
<path d="M17.3492 26.834C17.2355 26.66 17.8155 26.0818 18.6439 25.5421C19.4726 25.0034 20.2364 24.7071 20.3501 24.8818C20.4639 25.0559 19.8839 25.634 19.0551 26.1737C18.2264 26.7125 17.463 27.0081 17.3492 26.834Z" fill="#64CBFF"/>
<path d="M19.9295 25.139C20.0195 25.278 19.5026 25.7743 18.7742 26.248C18.6039 26.3587 18.4367 26.459 18.2808 26.5446C18.5129 26.434 18.7836 26.2818 19.0645 26.099C19.7929 25.6255 20.3101 25.129 20.2198 24.9902C20.1508 24.8843 19.7451 25.0184 19.2317 25.2999C19.602 25.1243 19.8745 25.0543 19.9295 25.139Z" fill="white" fill-opacity="0.28"/>
<path d="M20.1369 24.7306C20.1331 24.6272 20.0356 24.5228 19.9822 24.4372C19.91 24.3228 19.8356 24.2106 19.7603 24.0985C19.6881 23.991 19.616 23.8844 19.5444 23.7763C19.4847 23.685 19.4291 23.5535 19.3341 23.4953C19.3097 23.4803 19.2872 23.5047 19.2903 23.5291C19.305 23.6388 19.4088 23.7494 19.4685 23.8413C19.5381 23.9494 19.6066 24.0594 19.6756 24.1681C19.7447 24.2772 19.8144 24.3863 19.8866 24.4928C19.9422 24.5753 20.0003 24.711 20.0922 24.7556C20.111 24.765 20.1378 24.7541 20.1369 24.7306Z" fill="#50ACFF"/>
<path d="M19.832 24.7619C19.8226 24.6544 19.7395 24.555 19.6823 24.4672C19.6148 24.3628 19.5473 24.2594 19.4798 24.155C19.4123 24.0507 19.3448 23.9472 19.2773 23.8428C19.2135 23.7447 19.1557 23.6194 19.0692 23.54C19.0354 23.5094 18.972 23.5385 18.9885 23.5872C19.026 23.6985 19.1157 23.8013 19.1798 23.9C19.2482 24.0035 19.3157 24.1078 19.3839 24.2113C19.4523 24.315 19.5198 24.4194 19.5879 24.5228C19.6445 24.6091 19.7042 24.7313 19.7982 24.7825C19.8107 24.7903 19.8335 24.781 19.832 24.7619Z" fill="#50ACFF"/>
<path d="M19.5509 24.8882C19.544 24.7801 19.46 24.6813 19.4034 24.5926C19.3343 24.4829 19.2646 24.3738 19.1931 24.2657C19.1225 24.1573 19.0518 24.0482 18.9796 23.941C18.9146 23.8444 18.855 23.7204 18.7678 23.6419C18.7365 23.6132 18.6768 23.6404 18.6918 23.686C18.7287 23.7973 18.8156 23.901 18.8778 23.9998C18.9468 24.1094 19.0181 24.2179 19.0881 24.3266C19.1587 24.4357 19.23 24.5441 19.3021 24.6513C19.3603 24.7379 19.419 24.8601 19.514 24.9094C19.5306 24.9173 19.5525 24.9079 19.5509 24.8882Z" fill="#50ACFF"/>
<path d="M19.2538 25.0065C19.2394 24.9509 19.2379 24.9165 19.2104 24.8656C19.1823 24.8137 19.1485 24.7643 19.1163 24.715C19.0498 24.6097 18.9823 24.5056 18.9138 24.4012C18.7851 24.205 18.666 24.0034 18.5051 23.8318C18.4879 23.8131 18.4635 23.8372 18.4719 23.8568C18.5654 24.0756 18.7044 24.2693 18.8332 24.4687C18.8941 24.5634 18.9563 24.6568 19.0191 24.7509C19.0519 24.8003 19.0835 24.8506 19.1179 24.8984C19.1563 24.9509 19.1916 24.9722 19.2426 25.0122C19.2482 25.0153 19.2554 25.0122 19.2538 25.0065Z" fill="#50ACFF"/>
<path d="M19.003 25.1752C18.992 25.0662 18.9152 24.9696 18.857 24.8802C18.7905 24.7768 18.7245 24.6724 18.657 24.569C18.5198 24.3571 18.3839 24.144 18.238 23.9377C18.1986 23.8818 18.1086 23.9315 18.1445 23.9918C18.2742 24.208 18.4139 24.4184 18.5527 24.6293C18.6202 24.7327 18.6883 24.8349 18.7567 24.9384C18.8155 25.0271 18.8736 25.1409 18.9686 25.194C18.9827 25.2027 19.0045 25.1934 19.003 25.1752Z" fill="#50ACFF"/>
<path d="M18.7404 25.2906C18.7288 25.1831 18.6516 25.0803 18.5954 24.9919C18.5285 24.8866 18.4619 24.7816 18.3935 24.6772C18.3254 24.5728 18.2569 24.4688 18.1888 24.3644C18.1235 24.2647 18.0632 24.1431 17.9744 24.0641C17.9407 24.0335 17.8773 24.0625 17.8938 24.111C17.9313 24.2247 18.0154 24.3281 18.0804 24.4278C18.1479 24.5322 18.2163 24.6372 18.2838 24.7416C18.3513 24.846 18.4204 24.9503 18.4901 25.0528C18.5482 25.14 18.6132 25.2575 18.706 25.311C18.7191 25.3188 18.7429 25.3088 18.7404 25.2906Z" fill="#50ACFF"/>
<path d="M18.4798 25.4207C18.5239 25.3567 18.4267 25.2514 18.3936 25.1989C18.3276 25.0945 18.2601 24.991 18.1936 24.8876C18.0611 24.6804 17.9323 24.4679 17.7886 24.2679C17.7486 24.2123 17.6598 24.2617 17.6951 24.322C17.8317 24.5542 17.9886 24.777 18.137 25.0014C18.2086 25.1089 18.2783 25.2185 18.353 25.3235C18.3639 25.3385 18.4455 25.4726 18.4798 25.4207Z" fill="#50ACFF"/>
<path d="M18.2696 25.5714C18.2493 25.4633 18.1818 25.3651 18.1231 25.2742C18.0578 25.173 17.9921 25.0726 17.9268 24.9714C17.8006 24.7764 17.6837 24.5739 17.5134 24.4139C17.4984 24.3998 17.4703 24.413 17.4771 24.4351C17.5556 24.6601 17.6968 24.8523 17.8265 25.0508C17.8925 25.1511 17.9575 25.2523 18.024 25.3526C18.0831 25.442 18.1443 25.5376 18.2337 25.5989C18.2534 25.6123 18.2737 25.5911 18.2696 25.5714Z" fill="#50ACFF"/>
<path d="M18.016 25.6325C18.0257 25.565 17.9807 25.515 17.9453 25.4591C17.8953 25.38 17.8441 25.3007 17.7925 25.2225C17.6991 25.0788 17.6144 24.8944 17.4794 24.7878C17.4644 24.776 17.44 24.7863 17.4457 24.8075C17.4878 24.9738 17.6222 25.125 17.7147 25.2678C17.7657 25.3472 17.8175 25.4257 17.87 25.5041C17.9053 25.5572 17.936 25.6247 18.0013 25.6419C18.0066 25.6435 18.0153 25.6397 18.016 25.6325Z" fill="#50ACFF"/>
<path d="M11.5247 20.5779C11.37 20.062 11.2281 19.4595 11.5428 19.022C11.3606 19.1858 11.1794 19.3489 10.9972 19.5129C10.6435 19.4336 10.3703 19.1214 10.2722 18.7726C10.1741 18.4236 10.2313 18.0454 10.3631 17.7073C10.4675 17.4392 10.6191 17.1883 10.8175 16.9804C10.6881 16.8808 10.5153 16.9811 10.3485 17.0126C10.3522 17.0289 10.3563 17.0464 10.3594 17.0636C10.4094 17.3748 10.1922 17.6526 10.0885 17.9473C9.95501 18.3254 10.0094 18.7411 10.065 19.142C10.0869 19.2989 10.1097 19.4595 10.185 19.6029C10.295 19.8117 10.5013 19.9576 10.6919 20.1067C11.06 20.3951 11.3913 20.7261 11.6769 21.0876C11.6266 20.9183 11.5756 20.7483 11.5247 20.5779Z" fill="#8DC4FF"/>
<mask id="mask3_482_1323" style="mask-type:luminance" maskUnits="userSpaceOnUse" x="9" y="4" width="7" height="13">
<path d="M9.36475 4.55994H15.2801V16.3199H9.36475V4.55994Z" fill="white"/>
</mask>
<g mask="url(#mask3_482_1323)">
<path d="M9.52144 16.0021C9.58488 16.1127 9.67363 16.2109 9.77019 16.304C9.71519 15.9205 9.65957 15.5371 9.60457 15.1543C10.0683 15.1362 10.5164 14.8743 10.7596 14.479C10.8877 14.2712 11.0564 13.9896 11.2643 13.9765C10.8311 13.9365 10.4489 14.3584 10.1852 14.7365C10.4561 13.8265 10.7268 12.9159 10.9968 12.0062C11.0274 11.9034 11.0649 11.7921 11.1568 11.738C11.2346 11.6924 11.3302 11.6996 11.4196 11.709C11.7321 11.7396 12.0436 11.7709 12.3558 11.8015C12.0536 11.6762 11.7508 11.5499 11.4486 11.4243C11.3702 11.3915 11.2902 11.3577 11.2305 11.2971C11.0902 11.1546 11.1152 10.9105 11.2211 10.7412C11.3264 10.5709 11.4933 10.4493 11.6355 10.309C11.9783 9.96773 12.1833 9.4918 12.1949 9.00867C12.2021 8.72805 12.1699 8.39148 12.3958 8.22523C12.4964 8.15148 12.6258 8.13273 12.7499 8.11773C13.5714 8.01648 14.3986 7.96086 15.2258 7.94992C14.6089 7.92867 13.9946 7.8543 13.3902 7.72711C13.4427 7.65898 13.4961 7.58992 13.5486 7.5218C13.2018 7.59555 12.8549 7.66898 12.5074 7.74211C12.418 7.76086 12.3261 7.77961 12.2364 7.7618C12.1314 7.73961 12.0427 7.66898 11.9674 7.59211C11.5224 7.14211 11.3836 6.45805 11.4564 5.82992C11.4974 5.47711 11.7877 4.9743 11.7758 4.61523C11.5108 5.06992 11.2793 5.55086 11.1921 6.06773C11.0343 7.00242 11.3577 7.98117 11.1968 8.91461C11.1027 9.45961 10.8477 9.96242 10.6946 10.4934C10.4764 11.2493 10.4671 12.0549 10.2324 12.8062C9.95613 13.6887 9.37144 14.5002 9.3855 15.429C9.38863 15.6249 9.42082 15.8265 9.52144 16.0021Z" fill="#8DC4FF"/>
</g>
<path d="M11.3857 14C11.3435 13.9812 11.3035 13.9741 11.2642 13.9766C11.3042 13.9803 11.3451 13.9881 11.3857 14Z" fill="#8DC4FF"/>
<path d="M18.6288 19.8635C18.5229 19.621 18.3532 19.4126 18.2166 19.1857C17.741 18.3944 17.6816 17.3991 17.1697 16.6297C17.126 16.5632 17.0654 16.4926 16.9854 16.4932C16.9054 16.4947 16.8482 16.5679 16.801 16.6329C16.6269 16.876 16.4297 17.1041 16.2132 17.3113C16.141 17.3804 16.0626 17.4501 15.9644 17.4704C15.8516 17.4941 15.7376 17.4479 15.6316 17.4022C14.9444 17.1066 14.2569 16.811 13.5694 16.516C13.5169 16.4932 13.4579 16.4707 13.4054 16.4926C13.3451 16.5176 13.3213 16.5882 13.3041 16.651C13.2635 16.8032 13.2219 16.9647 13.2688 17.1144C13.3591 17.4032 13.7107 17.501 14.0082 17.5551C14.4004 17.6257 14.7929 17.6963 15.186 17.7669C15.3641 17.7991 15.551 17.8351 15.6907 17.9504C15.8569 18.0879 15.9229 18.3097 15.9738 18.5191C16.0138 18.6854 16.0507 18.8572 16.021 19.0257C15.9913 19.1944 15.8804 19.3591 15.7157 19.4029C15.471 19.4682 15.2369 19.2563 14.9835 19.2397C14.7041 19.7779 15.0104 20.4869 15.5329 20.7935C16.0554 21.1001 16.7179 21.0735 17.2963 20.8916C17.4132 20.8547 17.5435 20.8132 17.6532 20.8672C17.7638 20.9213 17.8101 21.0522 17.8432 21.1707C17.9216 21.4522 17.9844 21.7379 18.0301 22.0263C18.5919 21.5676 18.9244 20.541 18.6288 19.8635Z" fill="white" fill-opacity="0.26"/>
<path d="M18.3065 20.1809C18.2946 20.1275 18.2796 20.0734 18.2459 20.0312C18.2059 19.9809 18.1446 19.9528 18.0881 19.9222C17.6824 19.7003 17.4524 19.2506 17.3356 18.8028C17.2196 18.3559 17.1921 17.8884 17.0671 17.4431C16.9387 17.7481 16.6937 18.0022 16.3946 18.1434C16.5259 18.3528 16.6262 18.5819 16.6921 18.8194C16.7384 18.985 16.7674 19.1581 16.7456 19.3284C16.6984 19.6837 16.4378 19.9684 16.1899 20.2272C16.5581 20.425 16.9865 20.4641 17.3993 20.5316C17.764 20.5912 18.0615 20.7009 18.2693 21.0184C18.4328 20.825 18.3581 20.4137 18.3065 20.1809Z" fill="white" fill-opacity="0.63"/>
<path d="M19.4191 5.46153C19.4075 5.35715 19.395 5.24872 19.3406 5.15872C19.2678 5.03559 19.1313 4.96653 19.0025 4.90372C18.4853 4.65122 17.9675 4.39872 17.4503 4.14684C17.361 4.10309 17.2691 4.05903 17.171 4.04559C17.051 4.02997 16.9306 4.06059 16.8138 4.09215C16.3894 4.20747 15.9678 4.3359 15.5513 4.47872C15.8078 4.6684 16.0072 4.9359 16.1163 5.23622C16.136 5.29028 16.1553 5.3484 16.2019 5.38215C16.23 5.40247 16.2653 5.41028 16.2997 5.41747C16.9597 5.55465 17.7044 5.52653 18.2216 5.95934C18.5169 6.20653 18.6878 6.56872 18.8275 6.92715C19.0056 7.38372 19.1478 7.85434 19.2519 8.33278C19.3516 7.82997 19.5347 7.28184 19.5613 6.77122C19.5825 6.34778 19.4585 5.88965 19.4191 5.46153Z" fill="white" fill-opacity="0.26"/>
<path d="M18.995 5.32964C18.9737 5.27558 18.9503 5.21902 18.9071 5.18058C18.8703 5.14777 18.8215 5.13027 18.7753 5.11402C18.1465 4.89183 17.5181 4.66933 16.8893 4.44714C16.6956 4.61371 16.4687 4.74152 16.2256 4.82058C16.894 4.95246 17.5565 5.11558 18.2103 5.31089C18.2925 5.33589 18.3775 5.36183 18.4487 5.41027C18.5412 5.47402 18.6056 5.56964 18.6646 5.66527C18.8834 6.01902 19.0646 6.39621 19.2053 6.78746C19.185 6.28496 19.1784 5.80183 18.995 5.32964Z" fill="white" fill-opacity="0.63"/>
<path d="M16.4937 8.72666C16.03 8.79478 15.555 8.80572 15.0953 8.71541C14.9006 8.67697 14.7075 8.62072 14.5091 8.6151C14.3106 8.60978 14.0994 8.66447 13.9675 8.81291C14.0022 9.04885 13.9353 9.28572 13.8922 9.5201C13.8303 9.85603 13.8153 10.2001 13.7337 10.532C13.6522 10.8638 13.4928 11.1938 13.2109 11.386C13.4512 11.3907 13.6928 11.3648 13.9269 11.3085C14.1819 10.5979 14.4125 9.87853 14.6166 9.15166C14.855 9.17603 15.0984 9.18603 15.3338 9.14072C15.49 9.11072 15.64 9.0576 15.7922 9.01353C16.3297 8.85822 16.9009 8.81822 17.455 8.8976C17.1522 8.78541 16.8153 8.67853 16.4937 8.72666Z" fill="#D4F1FF"/>
<path d="M13.8317 5.84031C13.8011 5.82063 13.7689 5.79938 13.7502 5.76813C13.7336 5.74063 13.7296 5.70844 13.7249 5.67625C13.6974 5.46531 13.6746 5.25281 13.6724 5.03938C13.6667 4.51938 13.7846 4.00656 13.9008 3.5C13.5255 4.10156 13.1505 4.70312 12.7755 5.30469C12.7533 5.33906 12.7314 5.375 12.7274 5.41594C12.7227 5.45906 12.7392 5.50156 12.7542 5.54313C12.8705 5.85969 12.9314 6.19719 12.9346 6.53438C13.9783 6.37594 15.0121 6.83563 16.0652 6.91563C15.773 6.78844 15.4749 6.67094 15.1886 6.53188C15.1949 6.53188 15.1986 6.53438 15.2002 6.53969C14.7105 6.37125 14.2861 6.08031 13.8317 5.84031Z" fill="#D4F1FF"/>
<path d="M14.1081 14.9882C14.0569 15.0385 14.0037 15.09 13.9369 15.116C13.8859 15.1357 13.8303 15.1388 13.7753 15.1413C12.9347 15.1741 12.0975 15.0485 11.2656 14.9232C12.1547 15.1513 13.0447 15.3797 13.9488 15.5357C14.0022 15.545 14.0578 15.5538 14.1103 15.5404C14.1591 15.5279 14.2016 15.4963 14.2416 15.465C14.5891 15.1913 14.8794 14.8454 15.0912 14.4572C15.1391 14.3694 15.3612 14.0322 15.2341 13.9797C15.0953 13.9222 14.8238 14.2885 14.7391 14.37C14.5278 14.5757 14.3175 14.7813 14.1081 14.9882Z" fill="#A4D4FF" fill-opacity="0.38"/>
<path d="M16.6641 25.2647L16.9003 25.1022C16.9712 25.0531 17.0388 25.029 17.1028 25.0297C17.1659 25.0306 17.2209 25.0647 17.2678 25.1322C17.3203 25.2081 17.3266 25.2847 17.2866 25.3622C17.4066 25.3056 17.5044 25.3319 17.5803 25.4409C17.6244 25.5044 17.6378 25.5706 17.6203 25.6397C17.6028 25.709 17.5556 25.7706 17.4791 25.8247L17.1903 26.0234L16.6641 25.2647ZM17.0428 25.4422L17.0578 25.4322C17.0962 25.4056 17.1203 25.379 17.1303 25.3522C17.1403 25.3256 17.1347 25.2969 17.1128 25.2659C17.0772 25.2144 17.0209 25.2153 16.9441 25.2684L16.9291 25.2784L17.0428 25.4422ZM17.2703 25.7709L17.3253 25.7322C17.4103 25.6741 17.4331 25.6169 17.3941 25.5609C17.3706 25.5269 17.3431 25.5097 17.3116 25.5097C17.2797 25.509 17.2428 25.5231 17.2003 25.5522L17.1453 25.5909L17.2703 25.7709Z" fill="#E1DFCD"/>
<path d="M18.4319 25.1639L18.0844 24.7389L18.0794 24.7426L18.2332 25.2964L18.1294 25.3676L17.6644 25.0301L17.6607 25.0326L17.9357 25.5076L17.7632 25.6276L17.3057 24.8214L17.4894 24.6939L17.9619 25.0151L17.8257 24.4601L18.0094 24.3326L18.6044 25.0451L18.4319 25.1639Z" fill="#E1DFCD"/>
<path d="M18.5333 23.9708L19.3658 24.5158L19.1808 24.6458L19.0183 24.5321L18.7296 24.7321L18.7783 24.9233L18.5921 25.0521L18.3721 24.0821L18.5333 23.9708ZM18.8546 24.4208L18.6158 24.2596L18.6146 24.2608L18.6821 24.5396L18.8546 24.4208Z" fill="#E1DFCD"/>
<path d="M18.9014 23.7498C18.9073 23.7173 18.9236 23.692 18.9502 23.6735C18.9761 23.6554 19.0052 23.6495 19.0377 23.656C19.0695 23.662 19.0945 23.6782 19.1127 23.7048C19.1311 23.7317 19.1373 23.7607 19.1314 23.7923C19.1258 23.8242 19.1098 23.8492 19.0839 23.8673C19.0573 23.8857 19.0283 23.8923 18.9964 23.8873C18.9639 23.8817 18.9386 23.8654 18.9202 23.8385C18.902 23.812 18.8958 23.7823 18.9014 23.7498ZM19.0677 24.0235L19.3952 24.496L19.5577 24.3835L19.2302 23.911L19.0677 24.0235Z" fill="#E1DFCD"/>
</g>
<path d="M30.8608 19.5V10.7727H34.2017C34.8324 10.7727 35.3565 10.8722 35.7741 11.071C36.1946 11.267 36.5085 11.5355 36.7159 11.8764C36.9261 12.2173 37.0312 12.6037 37.0312 13.0355C37.0312 13.3906 36.9631 13.6946 36.8267 13.9474C36.6903 14.1974 36.5071 14.4006 36.277 14.5568C36.0469 14.7131 35.7898 14.8253 35.5057 14.8935V14.9787C35.8153 14.9957 36.1122 15.0909 36.3963 15.2642C36.6832 15.4347 36.9176 15.6761 37.0994 15.9886C37.2813 16.3011 37.3722 16.679 37.3722 17.1222C37.3722 17.5739 37.2628 17.9801 37.044 18.3409C36.8253 18.6989 36.4957 18.9815 36.0554 19.1889C35.6151 19.3963 35.0611 19.5 34.3935 19.5H30.8608ZM32.4418 18.179H34.142C34.7159 18.179 35.1293 18.0696 35.3821 17.8509C35.6378 17.6293 35.7656 17.3452 35.7656 16.9986C35.7656 16.7401 35.7017 16.5071 35.5739 16.2997C35.446 16.0895 35.2642 15.9247 35.0284 15.8054C34.7926 15.6832 34.5114 15.6222 34.1847 15.6222H32.4418V18.179ZM32.4418 14.4844H34.0057C34.2784 14.4844 34.5241 14.4347 34.7429 14.3352C34.9616 14.233 35.1335 14.0895 35.2585 13.9048C35.3864 13.7173 35.4503 13.4957 35.4503 13.2401C35.4503 12.902 35.331 12.6236 35.0923 12.4048C34.8565 12.1861 34.5057 12.0767 34.0398 12.0767H32.4418V14.4844ZM38.7475 10.7727H40.6822L43.2731 17.0966H43.3754L45.9663 10.7727H47.9009V19.5H46.3839V13.5043H46.3029L43.891 19.4744H42.7575L40.3455 13.4915H40.2646V19.5H38.7475V10.7727ZM50.7433 19.5H49.0558L52.1282 10.7727H54.0799L57.1566 19.5H55.4691L53.1381 12.5625H53.07L50.7433 19.5ZM50.7987 16.0781H55.4009V17.348H50.7987V16.0781ZM58.2848 19.5V12.9545H59.8274V19.5H58.2848ZM59.0604 12.0256C58.8161 12.0256 58.6058 11.9446 58.4297 11.7827C58.2536 11.6179 58.1655 11.4205 58.1655 11.1903C58.1655 10.9574 58.2536 10.7599 58.4297 10.598C58.6058 10.4332 58.8161 10.3509 59.0604 10.3509C59.3075 10.3509 59.5178 10.4332 59.6911 10.598C59.8672 10.7599 59.9553 10.9574 59.9553 11.1903C59.9553 11.4205 59.8672 11.6179 59.6911 11.7827C59.5178 11.9446 59.3075 12.0256 59.0604 12.0256Z" fill="#B1AE90"/>
<defs>
<clipPath id="clip0_482_1323">
<rect width="30" height="30" fill="white"/>
</clipPath>
</defs>
</svg>
