<svg width="68" height="14" viewBox="0 0 68 14" fill="none" xmlns="http://www.w3.org/2000/svg">
<path d="M0.404297 10.3704H6.66787V8.58685H2.31427V0.258789H0.404297V10.3704Z" fill="#55D0FF"/>
<path d="M10.4316 10.5812C11.19 10.5812 11.8571 10.4126 12.4329 10.0756C13.0134 9.73386 13.4651 9.2634 13.7882 8.66423C14.1158 8.06031 14.2797 7.36514 14.2797 6.57871C14.2797 5.79692 14.1182 5.10643 13.7952 4.50721C13.4721 3.90334 13.0204 3.43052 12.4399 3.08878C11.8641 2.74704 11.1947 2.57617 10.4316 2.57617C9.68262 2.57617 9.02022 2.74472 8.44444 3.08177C7.86866 3.41882 7.41691 3.88928 7.08919 4.49319C6.76152 5.09237 6.59766 5.78754 6.59766 6.57871C6.59766 7.36045 6.75683 8.0533 7.07517 8.65717C7.39815 9.25639 7.84759 9.72685 8.42337 10.0686C8.9992 10.4103 9.66861 10.5812 10.4316 10.5812ZM10.4316 8.79763C9.8371 8.79763 9.38541 8.59868 9.07644 8.20078C8.77211 7.79819 8.62 7.2575 8.62 6.57871C8.62 5.91863 8.7651 5.38494 9.05537 4.97766C9.35026 4.56574 9.80902 4.35973 10.4316 4.35973C11.0356 4.35973 11.4896 4.56106 11.7939 4.96365C12.1029 5.36624 12.2574 5.90456 12.2574 6.57871C12.2574 7.22941 12.1052 7.76304 11.8009 8.1797C11.5013 8.59162 11.0449 8.79763 10.4316 8.79763Z" fill="#55D0FF"/>
<path d="M18.0569 10.5812C18.4127 10.5812 18.7404 10.539 19.0401 10.4548C19.3443 10.3705 19.6205 10.2512 19.8686 10.0967V10.8621C19.878 11.143 19.8054 11.377 19.6509 11.5643C19.5011 11.7562 19.2999 11.899 19.0471 11.9926C18.7943 12.0909 18.5251 12.1401 18.2396 12.1401C17.9727 12.1401 17.7246 12.0816 17.4952 11.9645C17.2705 11.8475 17.0973 11.6766 16.9756 11.4519L15.2061 12.3086C15.4963 12.8001 15.9106 13.1957 16.4489 13.4953C16.9873 13.7996 17.5795 13.9517 18.2255 13.9517C18.7826 13.9517 19.2999 13.8768 19.7773 13.727C20.2548 13.5819 20.6574 13.3596 20.9851 13.0599C21.3175 12.7603 21.5446 12.3788 21.6663 11.9154C21.7084 11.7515 21.7364 11.5853 21.7505 11.4168C21.7692 11.253 21.7786 11.0774 21.7786 10.8902V2.78682H20.1074V3.20817C19.8499 3.00685 19.5573 2.85237 19.2296 2.74472C18.9066 2.63234 18.5485 2.57617 18.1553 2.57617C17.4297 2.57617 16.7977 2.74941 16.2594 3.09579C15.721 3.44221 15.302 3.91736 15.0024 4.52128C14.7075 5.12045 14.5601 5.8063 14.5601 6.57871C14.5601 7.33706 14.7052 8.01816 14.9954 8.62208C15.2903 9.22594 15.6999 9.70346 16.2242 10.0546C16.7485 10.4056 17.3595 10.5812 18.0569 10.5812ZM18.3659 8.88188C17.954 8.88188 17.6169 8.77888 17.3548 8.57292C17.0926 8.36696 16.8983 8.09077 16.772 7.74434C16.6456 7.39322 16.5823 7.0047 16.5823 6.57871C16.5823 6.15736 16.6479 5.77352 16.779 5.4271C16.9101 5.07598 17.1113 4.79747 17.3828 4.59145C17.659 4.38081 18.0102 4.27548 18.4361 4.27548C19.0354 4.27548 19.4637 4.4885 19.7212 4.91449C19.9787 5.33579 20.1074 5.89055 20.1074 6.57871C20.1074 7.26682 19.9763 7.8239 19.7142 8.24988C19.4567 8.67124 19.0073 8.88188 18.3659 8.88188Z" fill="#55D0FF"/>
<path d="M26.3149 10.5812C27.0733 10.5812 27.7404 10.4126 28.3162 10.0756C28.8967 9.73386 29.3484 9.2634 29.6715 8.66423C29.9991 8.06031 30.163 7.36514 30.163 6.57871C30.163 5.79692 30.0015 5.10643 29.6785 4.50721C29.3554 3.90334 28.9037 3.43052 28.3232 3.08878C27.7474 2.74704 27.078 2.57617 26.3149 2.57617C25.5659 2.57617 24.9035 2.74472 24.3277 3.08177C23.752 3.41882 23.3002 3.88928 22.9725 4.49319C22.6448 5.09237 22.481 5.78754 22.481 6.57871C22.481 7.36045 22.6401 8.0533 22.9585 8.65717C23.2815 9.25639 23.7309 9.72685 24.3067 10.0686C24.8825 10.4103 25.5519 10.5812 26.3149 10.5812ZM26.3149 8.79763C25.7204 8.79763 25.2687 8.59868 24.9597 8.20078C24.6554 7.79819 24.5033 7.2575 24.5033 6.57871C24.5033 5.91863 24.6484 5.38494 24.9387 4.97766C25.2336 4.56574 25.6923 4.35973 26.3149 4.35973C26.9189 4.35973 27.3729 4.56106 27.6772 4.96365C27.9862 5.36624 28.1407 5.90456 28.1407 6.57871C28.1407 7.22941 27.9885 7.76304 27.6842 8.1797C27.3846 8.59162 26.9282 8.79763 26.3149 8.79763Z" fill="#55D0FF"/>
<path d="M31.0049 1.73358H32.9148V0.0483398H31.0049V1.73358ZM31.0049 10.3706H32.9148V2.78688H31.0049V10.3706Z" fill="#55D0FF"/>
<path d="M34.1631 13.7411H36.0871V10.0967C36.3352 10.2512 36.6091 10.3705 36.9087 10.4548C37.213 10.539 37.543 10.5812 37.8988 10.5812C38.5963 10.5812 39.2072 10.4056 39.7315 10.0546C40.2558 9.70346 40.6631 9.22594 40.9533 8.62208C41.2482 8.01816 41.3957 7.33706 41.3957 6.57871C41.3957 5.8063 41.2459 5.12045 40.9463 4.52128C40.6514 3.91736 40.2348 3.44221 39.6964 3.09579C39.1581 2.74941 38.5261 2.57617 37.8005 2.57617C37.4072 2.57617 37.0468 2.63234 36.7191 2.74472C36.3961 2.85237 36.1058 3.00685 35.8484 3.20817V2.78682H34.1631V13.7411ZM37.5898 8.88188C36.9532 8.88188 36.5038 8.67123 36.2416 8.24988C35.9794 7.8239 35.8484 7.26682 35.8484 6.57871C35.8484 5.89054 35.9771 5.33579 36.2346 4.91449C36.4967 4.4885 36.9251 4.27548 37.5196 4.27548C37.9456 4.27548 38.2943 4.38081 38.5658 4.59145C38.842 4.79747 39.0457 5.07598 39.1768 5.4271C39.3079 5.77352 39.3734 6.15736 39.3734 6.57871C39.3734 7.0047 39.3102 7.39322 39.1838 7.74434C39.0574 8.09077 38.8631 8.36696 38.601 8.57292C38.3388 8.77888 38.0018 8.88188 37.5898 8.88188Z" fill="#55D0FF"/>
<path d="M44.8563 10.5812C45.8487 10.5812 46.6258 10.3588 47.1875 9.9141C47.7493 9.46936 48.0302 8.85849 48.0302 8.08139C48.0302 7.49154 47.8476 7.02577 47.4825 6.68403C47.122 6.3423 46.5088 6.05904 45.6427 5.83438C45.0529 5.68453 44.6129 5.56282 44.3226 5.46919C44.037 5.37562 43.8475 5.28431 43.7538 5.19537C43.6649 5.10643 43.6204 4.99642 43.6204 4.86533C43.6204 4.6453 43.7257 4.47681 43.9364 4.35973C44.1517 4.24271 44.4349 4.19592 44.7861 4.21932C45.5304 4.27548 45.9377 4.59383 46.0078 5.1743L47.96 4.82318C47.8617 4.13507 47.5246 3.58969 46.9488 3.1871C46.373 2.77981 45.638 2.57617 44.7439 2.57617C43.8264 2.57617 43.0937 2.79151 42.5461 3.22218C41.9984 3.65286 41.7245 4.23333 41.7245 4.96365C41.7245 5.54412 41.9141 6.00288 42.2933 6.33992C42.6725 6.67234 43.3255 6.95785 44.2524 7.19664C44.8001 7.34174 45.2027 7.45876 45.4602 7.5477C45.7223 7.63664 45.8908 7.72795 45.9657 7.82158C46.0406 7.91052 46.0781 8.02991 46.0781 8.1797C46.0781 8.41843 45.9845 8.60569 45.7972 8.74147C45.6099 8.8725 45.3431 8.93805 44.9967 8.93805C44.5754 8.93805 44.2267 8.83741 43.9505 8.63609C43.6789 8.43482 43.5034 8.15631 43.4238 7.8005L41.4717 8.0954C41.5981 8.88657 41.9539 9.49981 42.539 9.93518C43.1289 10.3659 43.9013 10.5812 44.8563 10.5812Z" fill="#55D0FF"/>
<path d="M51.5536 10.5951C52.1013 10.5951 52.5788 10.5038 52.9861 10.3212C53.3934 10.1386 53.7351 9.8952 54.0113 9.59092V10.3703H55.6964V2.78662H53.7725V6.63468C53.7725 7.10281 53.7187 7.48196 53.611 7.77222C53.508 8.05779 53.3746 8.27545 53.2107 8.42524C53.0469 8.5704 52.8714 8.66866 52.6841 8.72019C52.4969 8.77167 52.3213 8.79744 52.1575 8.79744C51.7502 8.79744 51.4342 8.70612 51.2095 8.52356C50.9895 8.34099 50.8303 8.11396 50.732 7.84246C50.6337 7.5709 50.5752 7.30176 50.5565 7.0349C50.5378 6.76339 50.5284 6.54105 50.5284 6.36781V2.78662H48.5903V7.04196C48.5903 7.1683 48.5997 7.36963 48.6184 7.64582C48.6371 7.92201 48.691 8.22866 48.7799 8.56571C48.8689 8.89807 49.0163 9.21873 49.2223 9.5277C49.433 9.83666 49.7256 10.0918 50.1001 10.2931C50.4746 10.4944 50.9591 10.5951 51.5536 10.5951Z" fill="#55D0FF"/>
<path d="M56.8022 10.3708H58.7261V5.7784C58.7261 5.34309 58.8453 4.98965 59.0842 4.71809C59.3275 4.4419 59.648 4.3038 60.0464 4.3038C60.4629 4.3038 60.7885 4.44427 61.0224 4.72515C61.2607 5.00135 61.3805 5.38987 61.3805 5.89078V10.3708H63.2905V5.7784C63.2905 5.34309 63.4097 4.98965 63.6486 4.71809C63.8919 4.4419 64.2125 4.3038 64.6102 4.3038C65.0274 4.3038 65.3523 4.44427 65.5862 4.72515C65.8251 5.00135 65.9449 5.38987 65.9449 5.89078V10.3708H67.8544V5.38518C67.8544 4.5566 67.632 3.8872 67.1873 3.37691C66.7476 2.86198 66.0944 2.60449 65.2282 2.60449C64.7416 2.60449 64.2947 2.70982 63.8869 2.92046C63.4798 3.13117 63.1548 3.41906 62.9109 3.78419C62.7145 3.42844 62.4337 3.14287 62.0685 2.92753C61.7032 2.71219 61.2491 2.60449 60.7062 2.60449C60.2472 2.60449 59.8262 2.6958 59.4422 2.87837C59.0582 3.05624 58.7399 3.30204 58.4872 3.61564V2.78706H56.8022V10.3708Z" fill="#55D0FF"/>
</svg>
