<svg width="16" height="16" viewBox="0 0 16 16" fill="none" xmlns="http://www.w3.org/2000/svg">
<path d="M2.00201 13.9449C1.87027 13.9449 1.74084 13.9102 1.62675 13.8444C1.51265 13.7785 1.4179 13.6837 1.35202 13.5697C1.28615 13.4556 1.25147 13.3261 1.25146 13.1944C1.25146 13.0627 1.28614 12.9332 1.35201 12.8191L7.35001 2.43039C7.41588 2.31627 7.51062 2.22151 7.62472 2.15563C7.73882 2.08974 7.86826 2.05505 8.00001 2.05505C8.13177 2.05505 8.2612 2.08974 8.3753 2.15563C8.48941 2.22151 8.58415 2.31627 8.65001 2.43039L14.648 12.8194C14.7139 12.9335 14.7486 13.0629 14.7486 13.1946C14.7486 13.3264 14.7139 13.4558 14.648 13.5699C14.5821 13.684 14.4874 13.7787 14.3733 13.8446C14.2592 13.9105 14.1298 13.9451 13.998 13.9451L2.00201 13.9449Z" fill="#FFD21E"/>
<path d="M8.00019 2.30495C8.08817 2.30402 8.17479 2.32673 8.251 2.37071C8.32721 2.41468 8.39021 2.47831 8.43344 2.55495L14.4317 12.9444C14.4755 13.0205 14.4986 13.1068 14.4986 13.1946C14.4986 13.2824 14.4755 13.3686 14.4316 13.4447C14.3877 13.5207 14.3245 13.5839 14.2485 13.6278C14.1725 13.6717 14.0862 13.6949 13.9984 13.6949H2.00194C1.91414 13.6949 1.82789 13.6717 1.75187 13.6278C1.67585 13.5839 1.61272 13.5207 1.56882 13.4447C1.52492 13.3686 1.5018 13.2824 1.50178 13.1946C1.50176 13.1068 1.52483 13.0205 1.56869 12.9444L7.56694 2.55495C7.61017 2.47831 7.67317 2.41468 7.74938 2.37071C7.82559 2.32673 7.91221 2.30402 8.00019 2.30495ZM8.00019 1.80495C7.82441 1.80401 7.65154 1.84984 7.49931 1.93775C7.34709 2.02566 7.22099 2.15248 7.13394 2.3052L1.13569 12.6942C1.04781 12.8463 1.00151 13.0188 1.00146 13.1944C1.00142 13.3701 1.04762 13.5426 1.13542 13.6947C1.22322 13.8468 1.34953 13.9732 1.50164 14.061C1.65375 14.1488 1.8263 14.195 2.00194 14.1949H13.9984C14.174 14.195 14.3465 14.1487 14.4986 14.061C14.6507 13.9732 14.777 13.8469 14.8648 13.6948C14.9526 13.5427 14.9988 13.3702 14.9988 13.1946C14.9988 13.019 14.9525 12.8465 14.8647 12.6944L8.86644 2.30495C8.77936 2.15227 8.65324 2.02551 8.50102 1.93764C8.3488 1.84978 8.17595 1.80398 8.00019 1.80495Z" fill="#373737"/>
<path d="M8 12.2482C8.27614 12.2482 8.5 12.0243 8.5 11.7482C8.5 11.472 8.27614 11.2482 8 11.2482C7.72386 11.2482 7.5 11.472 7.5 11.7482C7.5 12.0243 7.72386 12.2482 8 12.2482Z" fill="#373737"/>
<path d="M8.5 5.74817C8.5 5.47203 8.27614 5.24817 8 5.24817C7.72386 5.24817 7.5 5.47203 7.5 5.74817V9.74817C7.5 10.0243 7.72386 10.2482 8 10.2482C8.27614 10.2482 8.5 10.0243 8.5 9.74817V5.74817Z" fill="#373737"/>
</svg>
