<svg width="24" height="24" viewBox="0 0 24 24" fill="none" xmlns="http://www.w3.org/2000/svg">
<g clip-path="url(#clip0_249_27286)">
<path d="M12.0183 24C18.6457 24 24.0183 18.6274 24.0183 12C24.0183 5.37258 18.6457 0 12.0183 0C5.39084 0 0.0182495 5.37258 0.0182495 12C0.0182495 18.6274 5.39084 24 12.0183 24Z" fill="#E0E0E0"/>
<path d="M12.0183 23.6353C18.545 23.6353 23.8359 18.3443 23.8359 11.8176C23.8359 5.29093 18.545 0 12.0183 0C5.49156 0 0.200623 5.29093 0.200623 11.8176C0.200623 18.3443 5.49156 23.6353 12.0183 23.6353Z" fill="white"/>
<g clip-path="url(#clip1_249_27286)">
<path d="M17.7711 17H6.23883C6.02037 17 5.81085 16.9132 5.65637 16.7588C5.50189 16.6043 5.4151 16.3948 5.4151 16.1763V7.93897C5.4151 7.7205 5.50189 7.51098 5.65637 7.3565C5.81085 7.20202 6.02037 7.11523 6.23883 7.11523H17.7711C17.9896 7.11523 18.1991 7.20202 18.3536 7.3565C18.508 7.51098 18.5948 7.7205 18.5948 7.93897V16.1763C18.5948 16.3948 18.508 16.6043 18.3536 16.7588C18.1991 16.9132 17.9896 17 17.7711 17Z" fill="#EAEAEA"/>
<path d="M7.06257 17H6.23883C6.02037 17 5.81085 16.9132 5.65637 16.7588C5.50189 16.6043 5.4151 16.3948 5.4151 16.1763V7.93897C5.4151 7.83079 5.43641 7.72368 5.4778 7.62374C5.5192 7.5238 5.57988 7.43299 5.65637 7.3565C5.73286 7.28001 5.82366 7.21933 5.9236 7.17794C6.02354 7.13654 6.13066 7.11523 6.23883 7.11523C6.34701 7.11523 6.45412 7.13654 6.55406 7.17794C6.654 7.21933 6.74481 7.28001 6.8213 7.3565C6.89779 7.43299 6.95847 7.5238 6.99986 7.62374C7.04126 7.72368 7.06257 7.83079 7.06257 7.93897V17Z" fill="#D54C3F"/>
<path d="M16.9474 17H17.7711C17.9896 17 18.1991 16.9132 18.3536 16.7588C18.5081 16.6043 18.5949 16.3948 18.5949 16.1763V7.93897C18.5949 7.7205 18.5081 7.51098 18.3536 7.3565C18.1991 7.20202 17.9896 7.11523 17.7711 7.11523C17.5527 7.11523 17.3431 7.20202 17.1887 7.3565C17.0342 7.51098 16.9474 7.7205 16.9474 7.93897V17Z" fill="#B63524"/>
<path d="M18.2428 8.61445C18.3315 8.55251 18.4071 8.47369 18.4654 8.38252C18.5236 8.29134 18.5633 8.18958 18.5822 8.08306C18.6012 7.97653 18.5989 7.86732 18.5756 7.76166C18.5523 7.65601 18.5085 7.55597 18.4465 7.46727C18.3846 7.37856 18.3058 7.30293 18.2146 7.24469C18.1234 7.18644 18.0217 7.14673 17.9151 7.12781C17.8086 7.10889 17.6994 7.11114 17.5937 7.13443C17.4881 7.15771 17.388 7.20158 17.2993 7.26353L12.0055 11.1178L12.0049 11.1181L12.0044 11.1178L6.71052 7.26353C6.53138 7.13842 6.30987 7.0896 6.09473 7.12781C5.87959 7.16602 5.68844 7.28812 5.56334 7.46727C5.43823 7.64641 5.38941 7.86792 5.42761 8.08306C5.46582 8.29819 5.58793 8.48934 5.76707 8.61445L5.74511 8.59825L12.0049 13.156M18.265 8.59825L12.0049 13.156L18.265 8.59825Z" fill="#DE5145"/>
<path d="M17.7711 7.11524C17.5956 7.11524 17.4328 7.17015 17.2994 7.26351L12.0055 11.1178L12.005 11.118L12.0044 11.1178L6.71056 7.26351C6.5723 7.16675 6.40758 7.11497 6.23883 7.11524H17.7711Z" fill="#EFEFEF"/>
<path d="M7.06283 9.91256L5.67456 8.53748L5.67401 8.53857C5.70312 8.56603 5.73414 8.59129 5.76709 8.61436L5.74513 8.59816L7.0631 9.55781L7.06283 9.92245" fill="#C64132"/>
<path d="M11.0901 13.8674L7.06256 17L7.06284 9.8783L11.0892 13.8663" fill="#E3E3E3"/>
<path d="M11.09 13.8674L12.0049 13.1559L7.06281 9.55786V9.87829L11.0892 13.8663L11.09 13.8674Z" fill="url(#paint0_linear_249_27286)"/>
<path d="M14.2183 17H16.9474V9.55762L12.005 13.156L11.0892 13.8663L14.2183 17Z" fill="url(#paint1_linear_249_27286)"/>
</g>
</g>
<defs>
<linearGradient id="paint0_linear_249_27286" x1="7.06281" y1="11.7127" x2="12.0049" y2="11.7127" gradientUnits="userSpaceOnUse">
<stop stop-color="#C8C8C8"/>
<stop offset="1" stop-color="#CDCDCD"/>
</linearGradient>
<linearGradient id="paint1_linear_249_27286" x1="11.0892" y1="13.2787" x2="16.9474" y2="13.2787" gradientUnits="userSpaceOnUse">
<stop stop-color="#D9D9D9"/>
<stop offset="1" stop-color="#E2E2E2"/>
</linearGradient>
<clipPath id="clip0_249_27286">
<rect width="23.9635" height="24" fill="white" transform="translate(0.0182495)"/>
</clipPath>
<clipPath id="clip1_249_27286">
<rect width="17.934" height="10" fill="white" transform="translate(3 7)"/>
</clipPath>
</defs>
</svg>
