<svg width="32" height="16" viewBox="0 0 32 16" fill="none" xmlns="http://www.w3.org/2000/svg">
<path d="M0 8C3.86258e-07 3.58172 3.58172 -3.86257e-07 8 0C10.3954 2.09418e-07 12.545 1.05282 14.0111 2.72098C16.6713 5.70759 18.8711 5.55045 21.2071 3.34563C22.3533 2.26341 23.8992 1.6 25.6 1.6C29.1346 1.6 32 4.46538 32 8C32 11.5346 29.1346 14.4 25.6 14.4C23.8992 14.4 22.3533 13.7366 21.2071 12.6543C18.8716 10.45 16.6724 10.2924 14.0131 13.2768C12.5469 14.9463 10.3965 16 8 16C3.58172 16 -3.86257e-07 12.4183 0 8Z" fill="#F2F5FA"/>
<path d="M0 8C3.86258e-07 3.58172 3.58172 -3.86257e-07 8 0C10.3954 2.09418e-07 12.545 1.05282 14.0111 2.72098C16.6713 5.70759 18.8711 5.55045 21.2071 3.34563C22.3533 2.26341 23.8992 1.6 25.6 1.6C29.1346 1.6 32 4.46538 32 8C32 11.5346 29.1346 14.4 25.6 14.4C23.8992 14.4 22.3533 13.7366 21.2071 12.6543C18.8716 10.45 16.6724 10.2924 14.0131 13.2768C12.5469 14.9463 10.3965 16 8 16C3.58172 16 -3.86257e-07 12.4183 0 8Z" fill="url(#paint0_linear_264_31320)"/>
<path d="M0 8C3.86258e-07 3.58172 3.58172 -3.86257e-07 8 0C10.3954 2.09418e-07 12.545 1.05282 14.0111 2.72098C16.6713 5.70759 18.8711 5.55045 21.2071 3.34563C22.3533 2.26341 23.8992 1.6 25.6 1.6C29.1346 1.6 32 4.46538 32 8C32 11.5346 29.1346 14.4 25.6 14.4C23.8992 14.4 22.3533 13.7366 21.2071 12.6543C18.8716 10.45 16.6724 10.2924 14.0131 13.2768C12.5469 14.9463 10.3965 16 8 16C3.58172 16 -3.86257e-07 12.4183 0 8Z" fill="url(#paint1_linear_264_31320)"/>
<path d="M0 8C3.86258e-07 3.58172 3.58172 -3.86257e-07 8 0C10.3954 2.09418e-07 12.545 1.05282 14.0111 2.72098C16.6713 5.70759 18.8711 5.55045 21.2071 3.34563C22.3533 2.26341 23.8992 1.6 25.6 1.6C29.1346 1.6 32 4.46538 32 8C32 11.5346 29.1346 14.4 25.6 14.4C23.8992 14.4 22.3533 13.7366 21.2071 12.6543C18.8716 10.45 16.6724 10.2924 14.0131 13.2768C12.5469 14.9463 10.3965 16 8 16C3.58172 16 -3.86257e-07 12.4183 0 8Z" fill="url(#paint2_radial_264_31320)"/>
<path d="M0 8C3.86258e-07 3.58172 3.58172 -3.86257e-07 8 0C10.3954 2.09418e-07 12.545 1.05282 14.0111 2.72098C16.6713 5.70759 18.8711 5.55045 21.2071 3.34563C22.3533 2.26341 23.8992 1.6 25.6 1.6C29.1346 1.6 32 4.46538 32 8C32 11.5346 29.1346 14.4 25.6 14.4C23.8992 14.4 22.3533 13.7366 21.2071 12.6543C18.8716 10.45 16.6724 10.2924 14.0131 13.2768C12.5469 14.9463 10.3965 16 8 16C3.58172 16 -3.86257e-07 12.4183 0 8Z" fill="url(#paint3_radial_264_31320)"/>
<path d="M0 8C3.86258e-07 3.58172 3.58172 -3.86257e-07 8 0C10.3954 2.09418e-07 12.545 1.05282 14.0111 2.72098C16.6713 5.70759 18.8711 5.55045 21.2071 3.34563C22.3533 2.26341 23.8992 1.6 25.6 1.6C29.1346 1.6 32 4.46538 32 8C32 11.5346 29.1346 14.4 25.6 14.4C23.8992 14.4 22.3533 13.7366 21.2071 12.6543C18.8716 10.45 16.6724 10.2924 14.0131 13.2768C12.5469 14.9463 10.3965 16 8 16C3.58172 16 -3.86257e-07 12.4183 0 8Z" fill="#55D0FF"/>
<defs>
<linearGradient id="paint0_linear_264_31320" x1="24.1082" y1="11.9762" x2="5.68475" y2="-2.34112" gradientUnits="userSpaceOnUse">
<stop stop-color="#FF557E"/>
<stop offset="0.841052" stop-color="#FF5555" stop-opacity="0"/>
</linearGradient>
<linearGradient id="paint1_linear_264_31320" x1="8.00127" y1="14.9271" x2="12.9235" y2="-2.12412" gradientUnits="userSpaceOnUse">
<stop stop-color="#3CD30F"/>
<stop offset="1" stop-color="#D9FEC9"/>
</linearGradient>
<radialGradient id="paint2_radial_264_31320" cx="0" cy="0" r="1" gradientUnits="userSpaceOnUse" gradientTransform="translate(25.0968 19.333) rotate(-122.928) scale(20.4419 16.7389)">
<stop stop-color="#3CD30F"/>
<stop offset="0.568731" stop-color="#8172DA" stop-opacity="0.26"/>
<stop offset="1" stop-color="#8172DA" stop-opacity="0"/>
</radialGradient>
<radialGradient id="paint3_radial_264_31320" cx="0" cy="0" r="1" gradientUnits="userSpaceOnUse" gradientTransform="translate(10.0977 -2.3145) rotate(77.6745) scale(13.7692 21.6422)">
<stop stop-color="#41D1B7"/>
<stop offset="0.492704" stop-color="#41D1B7" stop-opacity="0.35"/>
<stop offset="1" stop-color="#41D1B7" stop-opacity="0"/>
</radialGradient>
</defs>
</svg>
