<svg width="102" height="16" viewBox="0 0 102 16" fill="none" xmlns="http://www.w3.org/2000/svg">
<path d="M0 8C3.86258e-07 3.58172 3.58172 -3.86257e-07 8 0C10.3954 2.09418e-07 12.545 1.05282 14.0111 2.72098C16.6713 5.70759 18.8711 5.55045 21.2071 3.34563C22.3533 2.26341 23.8992 1.6 25.6 1.6C29.1346 1.6 32 4.46538 32 8C32 11.5346 29.1346 14.4 25.6 14.4C23.8992 14.4 22.3533 13.7366 21.2071 12.6543C18.8716 10.45 16.6724 10.2924 14.0131 13.2768C12.5469 14.9463 10.3965 16 8 16C3.58172 16 -3.86257e-07 12.4183 0 8Z" fill="#F2F5FA"/>
<path d="M0 8C3.86258e-07 3.58172 3.58172 -3.86257e-07 8 0C10.3954 2.09418e-07 12.545 1.05282 14.0111 2.72098C16.6713 5.70759 18.8711 5.55045 21.2071 3.34563C22.3533 2.26341 23.8992 1.6 25.6 1.6C29.1346 1.6 32 4.46538 32 8C32 11.5346 29.1346 14.4 25.6 14.4C23.8992 14.4 22.3533 13.7366 21.2071 12.6543C18.8716 10.45 16.6724 10.2924 14.0131 13.2768C12.5469 14.9463 10.3965 16 8 16C3.58172 16 -3.86257e-07 12.4183 0 8Z" fill="url(#paint0_linear_264_31319)"/>
<path d="M0 8C3.86258e-07 3.58172 3.58172 -3.86257e-07 8 0C10.3954 2.09418e-07 12.545 1.05282 14.0111 2.72098C16.6713 5.70759 18.8711 5.55045 21.2071 3.34563C22.3533 2.26341 23.8992 1.6 25.6 1.6C29.1346 1.6 32 4.46538 32 8C32 11.5346 29.1346 14.4 25.6 14.4C23.8992 14.4 22.3533 13.7366 21.2071 12.6543C18.8716 10.45 16.6724 10.2924 14.0131 13.2768C12.5469 14.9463 10.3965 16 8 16C3.58172 16 -3.86257e-07 12.4183 0 8Z" fill="url(#paint1_linear_264_31319)"/>
<path d="M0 8C3.86258e-07 3.58172 3.58172 -3.86257e-07 8 0C10.3954 2.09418e-07 12.545 1.05282 14.0111 2.72098C16.6713 5.70759 18.8711 5.55045 21.2071 3.34563C22.3533 2.26341 23.8992 1.6 25.6 1.6C29.1346 1.6 32 4.46538 32 8C32 11.5346 29.1346 14.4 25.6 14.4C23.8992 14.4 22.3533 13.7366 21.2071 12.6543C18.8716 10.45 16.6724 10.2924 14.0131 13.2768C12.5469 14.9463 10.3965 16 8 16C3.58172 16 -3.86257e-07 12.4183 0 8Z" fill="url(#paint2_radial_264_31319)"/>
<path d="M0 8C3.86258e-07 3.58172 3.58172 -3.86257e-07 8 0C10.3954 2.09418e-07 12.545 1.05282 14.0111 2.72098C16.6713 5.70759 18.8711 5.55045 21.2071 3.34563C22.3533 2.26341 23.8992 1.6 25.6 1.6C29.1346 1.6 32 4.46538 32 8C32 11.5346 29.1346 14.4 25.6 14.4C23.8992 14.4 22.3533 13.7366 21.2071 12.6543C18.8716 10.45 16.6724 10.2924 14.0131 13.2768C12.5469 14.9463 10.3965 16 8 16C3.58172 16 -3.86257e-07 12.4183 0 8Z" fill="url(#paint3_radial_264_31319)"/>
<path d="M0 8C3.86258e-07 3.58172 3.58172 -3.86257e-07 8 0C10.3954 2.09418e-07 12.545 1.05282 14.0111 2.72098C16.6713 5.70759 18.8711 5.55045 21.2071 3.34563C22.3533 2.26341 23.8992 1.6 25.6 1.6C29.1346 1.6 32 4.46538 32 8C32 11.5346 29.1346 14.4 25.6 14.4C23.8992 14.4 22.3533 13.7366 21.2071 12.6543C18.8716 10.45 16.6724 10.2924 14.0131 13.2768C12.5469 14.9463 10.3965 16 8 16C3.58172 16 -3.86257e-07 12.4183 0 8Z" fill="#55D0FF"/>
<path d="M34.4043 11.3705H40.6679V9.58697H36.3143V1.25891H34.4043V11.3705Z" fill="#55D0FF"/>
<path d="M44.4316 11.5812C45.19 11.5812 45.8571 11.4126 46.4329 11.0756C47.0134 10.7339 47.4651 10.2634 47.7882 9.66423C48.1158 9.06031 48.2797 8.36514 48.2797 7.57871C48.2797 6.79692 48.1182 6.10643 47.7952 5.50721C47.4721 4.90334 47.0204 4.43052 46.4399 4.08878C45.8641 3.74704 45.1947 3.57617 44.4316 3.57617C43.6826 3.57617 43.0202 3.74472 42.4444 4.08177C41.8687 4.41882 41.4169 4.88928 41.0892 5.49319C40.7615 6.09237 40.5977 6.78754 40.5977 7.57871C40.5977 8.36045 40.7568 9.0533 41.0752 9.65717C41.3982 10.2564 41.8476 10.7268 42.4234 11.0686C42.9992 11.4103 43.6686 11.5812 44.4316 11.5812ZM44.4316 9.79763C43.8371 9.79763 43.3854 9.59868 43.0764 9.20078C42.7721 8.79819 42.62 8.2575 42.62 7.57871C42.62 6.91863 42.7651 6.38494 43.0554 5.97766C43.3503 5.56574 43.809 5.35973 44.4316 5.35973C45.0356 5.35973 45.4896 5.56106 45.7939 5.96365C46.1029 6.36624 46.2574 6.90456 46.2574 7.57871C46.2574 8.22941 46.1052 8.76304 45.8009 9.1797C45.5013 9.59162 45.0449 9.79763 44.4316 9.79763Z" fill="#55D0FF"/>
<path d="M52.0569 11.5812C52.4127 11.5812 52.7404 11.539 53.0401 11.4548C53.3443 11.3705 53.6205 11.2512 53.8686 11.0967V11.8621C53.878 12.143 53.8054 12.377 53.6509 12.5643C53.5011 12.7562 53.2999 12.899 53.0471 12.9926C52.7943 13.0909 52.5251 13.1401 52.2396 13.1401C51.9727 13.1401 51.7246 13.0816 51.4952 12.9645C51.2705 12.8475 51.0973 12.6766 50.9756 12.4519L49.2061 13.3086C49.4963 13.8001 49.9106 14.1957 50.4489 14.4953C50.9873 14.7996 51.5795 14.9517 52.2255 14.9517C52.7826 14.9517 53.2999 14.8768 53.7773 14.727C54.2548 14.5819 54.6574 14.3596 54.9851 14.0599C55.3175 13.7603 55.5446 13.3788 55.6663 12.9154C55.7084 12.7515 55.7364 12.5853 55.7505 12.4168C55.7692 12.253 55.7786 12.0774 55.7786 11.8902V3.78682H54.1074V4.20817C53.8499 4.00685 53.5573 3.85237 53.2296 3.74472C52.9066 3.63234 52.5485 3.57617 52.1553 3.57617C51.4297 3.57617 50.7977 3.74941 50.2594 4.09579C49.721 4.44221 49.302 4.91736 49.0024 5.52128C48.7075 6.12045 48.5601 6.8063 48.5601 7.57871C48.5601 8.33706 48.7052 9.01816 48.9954 9.62208C49.2903 10.2259 49.6999 10.7035 50.2242 11.0546C50.7485 11.4056 51.3595 11.5812 52.0569 11.5812ZM52.3659 9.88188C51.954 9.88188 51.6169 9.77888 51.3548 9.57292C51.0926 9.36696 50.8983 9.09077 50.772 8.74434C50.6456 8.39322 50.5823 8.0047 50.5823 7.57871C50.5823 7.15736 50.6479 6.77352 50.779 6.4271C50.9101 6.07598 51.1113 5.79747 51.3828 5.59145C51.659 5.38081 52.0102 5.27548 52.4361 5.27548C53.0354 5.27548 53.4637 5.4885 53.7212 5.91449C53.9787 6.33579 54.1074 6.89055 54.1074 7.57871C54.1074 8.26682 53.9763 8.8239 53.7142 9.24988C53.4567 9.67124 53.0073 9.88188 52.3659 9.88188Z" fill="#55D0FF"/>
<path d="M60.3149 11.5812C61.0733 11.5812 61.7404 11.4126 62.3162 11.0756C62.8967 10.7339 63.3484 10.2634 63.6715 9.66423C63.9991 9.06031 64.163 8.36514 64.163 7.57871C64.163 6.79692 64.0015 6.10643 63.6785 5.50721C63.3554 4.90334 62.9037 4.43052 62.3232 4.08878C61.7474 3.74704 61.078 3.57617 60.3149 3.57617C59.5659 3.57617 58.9035 3.74472 58.3277 4.08177C57.752 4.41882 57.3002 4.88928 56.9725 5.49319C56.6448 6.09237 56.481 6.78754 56.481 7.57871C56.481 8.36045 56.6401 9.0533 56.9585 9.65717C57.2815 10.2564 57.7309 10.7268 58.3067 11.0686C58.8825 11.4103 59.5519 11.5812 60.3149 11.5812ZM60.3149 9.79763C59.7204 9.79763 59.2687 9.59868 58.9597 9.20078C58.6554 8.79819 58.5033 8.2575 58.5033 7.57871C58.5033 6.91863 58.6484 6.38494 58.9387 5.97766C59.2336 5.56574 59.6923 5.35973 60.3149 5.35973C60.9189 5.35973 61.3729 5.56106 61.6772 5.96365C61.9862 6.36624 62.1407 6.90456 62.1407 7.57871C62.1407 8.22941 61.9885 8.76304 61.6842 9.1797C61.3846 9.59162 60.9282 9.79763 60.3149 9.79763Z" fill="#55D0FF"/>
<path d="M65.0049 2.73346H66.9148V1.04822H65.0049V2.73346ZM65.0049 11.3705H66.9148V3.78676H65.0049V11.3705Z" fill="#55D0FF"/>
<path d="M68.1631 14.7411H70.0871V11.0967C70.3352 11.2512 70.6091 11.3705 70.9087 11.4548C71.213 11.539 71.543 11.5812 71.8988 11.5812C72.5963 11.5812 73.2072 11.4056 73.7315 11.0546C74.2558 10.7035 74.6631 10.2259 74.9533 9.62208C75.2482 9.01816 75.3957 8.33706 75.3957 7.57871C75.3957 6.8063 75.2459 6.12045 74.9463 5.52128C74.6514 4.91736 74.2348 4.44221 73.6964 4.09579C73.1581 3.74941 72.5261 3.57617 71.8005 3.57617C71.4072 3.57617 71.0468 3.63234 70.7191 3.74472C70.3961 3.85237 70.1058 4.00685 69.8484 4.20817V3.78682H68.1631V14.7411ZM71.5898 9.88188C70.9532 9.88188 70.5038 9.67123 70.2416 9.24988C69.9794 8.8239 69.8484 8.26682 69.8484 7.57871C69.8484 6.89054 69.9771 6.33579 70.2346 5.91449C70.4967 5.4885 70.9251 5.27548 71.5196 5.27548C71.9456 5.27548 72.2943 5.38081 72.5658 5.59145C72.842 5.79747 73.0457 6.07598 73.1768 6.4271C73.3079 6.77352 73.3734 7.15736 73.3734 7.57871C73.3734 8.0047 73.3102 8.39322 73.1838 8.74434C73.0574 9.09077 72.8631 9.36696 72.601 9.57292C72.3388 9.77888 72.0018 9.88188 71.5898 9.88188Z" fill="#55D0FF"/>
<path d="M78.8563 11.5812C79.8487 11.5812 80.6258 11.3588 81.1875 10.9141C81.7493 10.4694 82.0302 9.85849 82.0302 9.08139C82.0302 8.49154 81.8476 8.02577 81.4825 7.68403C81.122 7.3423 80.5088 7.05904 79.6427 6.83438C79.0529 6.68453 78.6129 6.56282 78.3226 6.46919C78.037 6.37562 77.8475 6.28431 77.7538 6.19537C77.6649 6.10643 77.6204 5.99642 77.6204 5.86533C77.6204 5.6453 77.7257 5.47681 77.9364 5.35973C78.1517 5.24271 78.4349 5.19592 78.7861 5.21932C79.5304 5.27548 79.9377 5.59383 80.0078 6.1743L81.96 5.82318C81.8617 5.13507 81.5246 4.58969 80.9488 4.1871C80.373 3.77981 79.638 3.57617 78.7439 3.57617C77.8264 3.57617 77.0937 3.79151 76.5461 4.22218C75.9984 4.65286 75.7245 5.23333 75.7245 5.96365C75.7245 6.54412 75.9141 7.00288 76.2933 7.33992C76.6725 7.67234 77.3255 7.95785 78.2524 8.19664C78.8001 8.34174 79.2027 8.45876 79.4602 8.5477C79.7223 8.63664 79.8908 8.72795 79.9657 8.82158C80.0406 8.91052 80.0781 9.02991 80.0781 9.1797C80.0781 9.41843 79.9845 9.60569 79.7972 9.74147C79.6099 9.8725 79.3431 9.93805 78.9967 9.93805C78.5754 9.93805 78.2267 9.83741 77.9505 9.63609C77.6789 9.43482 77.5034 9.15631 77.4238 8.8005L75.4717 9.0954C75.5981 9.88657 75.9539 10.4998 76.539 10.9352C77.1289 11.3659 77.9013 11.5812 78.8563 11.5812Z" fill="#55D0FF"/>
<path d="M85.5536 11.5951C86.1013 11.5951 86.5788 11.5038 86.9861 11.3212C87.3934 11.1386 87.7351 10.8952 88.0113 10.5909V11.3703H89.6964V3.78662H87.7725V7.63468C87.7725 8.10281 87.7187 8.48196 87.611 8.77222C87.508 9.05779 87.3746 9.27545 87.2107 9.42524C87.0469 9.5704 86.8714 9.66866 86.6841 9.72019C86.4969 9.77167 86.3213 9.79744 86.1575 9.79744C85.7502 9.79744 85.4342 9.70612 85.2095 9.52356C84.9895 9.34099 84.8303 9.11396 84.732 8.84246C84.6337 8.5709 84.5752 8.30176 84.5565 8.0349C84.5378 7.76339 84.5284 7.54105 84.5284 7.36781V3.78662H82.5903V8.04196C82.5903 8.1683 82.5997 8.36963 82.6184 8.64582C82.6371 8.92201 82.691 9.22866 82.7799 9.56571C82.8689 9.89807 83.0163 10.2187 83.2223 10.5277C83.433 10.8367 83.7256 11.0918 84.1001 11.2931C84.4746 11.4944 84.9591 11.5951 85.5536 11.5951Z" fill="#55D0FF"/>
<path d="M90.8022 11.3704H92.7261V6.77803C92.7261 6.34272 92.8453 5.98929 93.0842 5.71773C93.3275 5.44153 93.648 5.30344 94.0464 5.30344C94.4629 5.30344 94.7885 5.44391 95.0224 5.72479C95.2607 6.00098 95.3805 6.38951 95.3805 6.89042V11.3704H97.2905V6.77803C97.2905 6.34272 97.4097 5.98929 97.6486 5.71773C97.8919 5.44153 98.2125 5.30344 98.6102 5.30344C99.0274 5.30344 99.3523 5.44391 99.5862 5.72479C99.8251 6.00098 99.9449 6.38951 99.9449 6.89042V11.3704H101.854V6.38482C101.854 5.55624 101.632 4.88683 101.187 4.37654C100.748 3.86162 100.094 3.60413 99.2282 3.60413C98.7416 3.60413 98.2947 3.70945 97.8869 3.9201C97.4798 4.1308 97.1548 4.41869 96.9109 4.78382C96.7145 4.42807 96.4337 4.1425 96.0685 3.92716C95.7032 3.71182 95.2491 3.60413 94.7062 3.60413C94.2472 3.60413 93.8262 3.69544 93.4422 3.878C93.0582 4.05588 92.7399 4.30167 92.4872 4.61527V3.78669H90.8022V11.3704Z" fill="#55D0FF"/>
<defs>
<linearGradient id="paint0_linear_264_31319" x1="24.1082" y1="11.9762" x2="5.68475" y2="-2.34112" gradientUnits="userSpaceOnUse">
<stop stop-color="#FF557E"/>
<stop offset="0.841052" stop-color="#FF5555" stop-opacity="0"/>
</linearGradient>
<linearGradient id="paint1_linear_264_31319" x1="8.00127" y1="14.9271" x2="12.9235" y2="-2.12412" gradientUnits="userSpaceOnUse">
<stop stop-color="#3CD30F"/>
<stop offset="1" stop-color="#D9FEC9"/>
</linearGradient>
<radialGradient id="paint2_radial_264_31319" cx="0" cy="0" r="1" gradientUnits="userSpaceOnUse" gradientTransform="translate(25.0968 19.333) rotate(-122.928) scale(20.4419 16.7389)">
<stop stop-color="#3CD30F"/>
<stop offset="0.568731" stop-color="#8172DA" stop-opacity="0.26"/>
<stop offset="1" stop-color="#8172DA" stop-opacity="0"/>
</radialGradient>
<radialGradient id="paint3_radial_264_31319" cx="0" cy="0" r="1" gradientUnits="userSpaceOnUse" gradientTransform="translate(10.0977 -2.3145) rotate(77.6745) scale(13.7692 21.6422)">
<stop stop-color="#41D1B7"/>
<stop offset="0.492704" stop-color="#41D1B7" stop-opacity="0.35"/>
<stop offset="1" stop-color="#41D1B7" stop-opacity="0"/>
</radialGradient>
</defs>
</svg>
