<svg width="241" height="240" viewBox="0 0 241 240" fill="none" xmlns="http://www.w3.org/2000/svg">
<g opacity="0.75">
<path d="M188.192 177.956H26.0047C23.7138 177.95 21.5189 177.036 19.9011 175.414C18.2834 173.791 17.375 171.594 17.375 169.303V93.0094C17.3787 90.7173 18.2922 88.5204 19.9147 86.9014C21.5372 85.2825 23.736 84.3738 26.0281 84.375H196.841V169.303C196.841 171.597 195.93 173.798 194.308 175.42C192.686 177.043 190.486 177.955 188.192 177.956Z" fill="#F5F5F5"/>
<path d="M196.845 93.0141V106.706H17.375V93.0141C17.3775 90.7212 18.2904 88.5231 19.913 86.9031C21.5357 85.2831 23.7352 84.3738 26.0281 84.375H188.188C190.481 84.3738 192.681 85.2829 194.304 86.9028C195.928 88.5227 196.842 90.7207 196.845 93.0141Z" fill="#5E6175"/>
<path d="M196.845 93.0141V106.298H166.161C163.781 106.3 161.442 105.675 159.38 104.486C157.318 103.296 155.606 101.585 154.415 99.5236C153.225 97.4623 152.599 95.1237 152.599 92.7434C152.6 90.363 153.227 88.0248 154.419 85.9641L155.356 84.361H188.188C189.324 84.3603 190.45 84.5837 191.5 85.0183C192.551 85.4529 193.505 86.0902 194.309 86.8937C195.113 87.6973 195.751 88.6514 196.186 89.7016C196.621 90.7518 196.845 91.8773 196.845 93.0141Z" fill="url(#paint0_linear_264_32246)"/>
<path d="M45.3781 74.0859C44.487 74.0868 43.6156 73.8234 42.8742 73.329C42.1328 72.8346 41.5547 72.1314 41.213 71.3083C40.8713 70.4853 40.7815 69.5794 40.9547 68.7053C41.128 67.8311 41.5567 67.028 42.1865 66.3976C42.8163 65.7671 43.6189 65.3376 44.4929 65.1634C45.3668 64.9892 46.2728 65.0782 47.0962 65.419C47.9196 65.7598 48.6234 66.3372 49.1186 67.078C49.6138 67.8189 49.8781 68.6901 49.8781 69.5812C49.8769 70.7747 49.4025 71.9191 48.559 72.7635C47.7155 73.6079 46.5716 74.0834 45.3781 74.0859ZM45.3781 67.8937C45.043 67.8928 44.7152 67.9914 44.4362 68.1769C44.1572 68.3625 43.9396 68.6268 43.811 68.9361C43.6823 69.2455 43.6484 69.5862 43.7135 69.9149C43.7787 70.2436 43.94 70.5455 44.1769 70.7824C44.4138 71.0194 44.7158 71.1806 45.0445 71.2458C45.3732 71.3109 45.7138 71.277 46.0232 71.1484C46.3326 71.0197 46.5968 70.8021 46.7824 70.5231C46.968 70.2441 47.0666 69.9163 47.0656 69.5812C47.0644 69.134 46.8862 68.7055 46.57 68.3893C46.2538 68.0731 45.8253 67.8949 45.3781 67.8937ZM71.2813 61.4296C70.0556 61.4296 68.8575 61.0662 67.8385 60.3853C66.8194 59.7044 66.0251 58.7365 65.5561 57.6042C65.0871 56.4719 64.9643 55.2259 65.2034 54.0238C65.4426 52.8217 66.0328 51.7176 66.8994 50.8509C67.7661 49.9843 68.8702 49.3941 70.0723 49.155C71.2744 48.9159 72.5204 49.0386 73.6527 49.5076C74.785 49.9766 75.7528 50.7709 76.4338 51.79C77.1147 52.809 77.4781 54.0071 77.4781 55.2328C77.4769 56.8759 76.8236 58.4514 75.6617 59.6132C74.4999 60.7751 72.9244 61.4284 71.2813 61.4296ZM71.2813 51.8484C70.6119 51.8484 69.9576 52.0469 69.401 52.4188C68.8444 52.7906 68.4107 53.3192 68.1545 53.9376C67.8983 54.556 67.8313 55.2365 67.9619 55.893C68.0925 56.5495 68.4148 57.1526 68.8881 57.6259C69.3615 58.0992 69.9645 58.4215 70.621 58.5521C71.2775 58.6827 71.958 58.6157 72.5764 58.3595C73.1948 58.1034 73.7234 57.6696 74.0953 57.113C74.4671 56.5565 74.6656 55.9021 74.6656 55.2328C74.6644 54.3356 74.3074 53.4754 73.673 52.841C73.0386 52.2066 72.1785 51.8496 71.2813 51.8484ZM201.075 184.747L203.064 182.759L209.57 189.264L207.581 191.253L201.075 184.747ZM206.938 174.75H216.139V177.562H206.938V174.75ZM193.677 188.817H196.489V198.019H193.677V188.817ZM188.192 179.362H26.0047C23.342 179.353 20.7915 178.289 18.9109 176.404C17.0302 174.519 15.9724 171.966 15.9688 169.303V93.0093C15.9762 90.3454 17.039 87.793 18.9244 85.9111C20.8098 84.0292 23.3642 82.9712 26.0281 82.9687H198.247V169.303C198.244 171.969 197.184 174.526 195.299 176.412C193.415 178.298 190.859 179.359 188.192 179.362ZM26.0281 85.7812C24.1098 85.7824 22.27 86.5438 20.9118 87.8985C19.5535 89.2532 18.7875 91.091 18.7813 93.0093V169.303C18.7837 171.224 19.548 173.066 20.9066 174.425C22.2651 175.783 24.1069 176.547 26.0281 176.55H188.216C190.136 176.547 191.978 175.783 193.336 174.424C194.693 173.066 195.457 171.224 195.458 169.303V85.7812H26.0281Z" fill="#5E6175"/>
<path d="M31.1657 99.4406C33.3248 99.4406 35.0751 97.6903 35.0751 95.5312C35.0751 93.3721 33.3248 91.6218 31.1657 91.6218C29.0066 91.6218 27.2563 93.3721 27.2563 95.5312C27.2563 97.6903 29.0066 99.4406 31.1657 99.4406Z" fill="#F5F5F5"/>
<path d="M46.1892 99.4406C48.3483 99.4406 50.0985 97.6903 50.0985 95.5312C50.0985 93.3721 48.3483 91.6218 46.1892 91.6218C44.0301 91.6218 42.2798 93.3721 42.2798 95.5312C42.2798 97.6903 44.0301 99.4406 46.1892 99.4406Z" fill="#F5F5F5"/>
<path d="M159.158 167.756H181.906C183.735 167.756 185.489 167.03 186.782 165.737C188.075 164.443 188.802 162.69 188.802 160.861C188.802 159.032 188.075 157.278 186.782 155.985C185.489 154.692 183.735 153.966 181.906 153.966H159.158C157.329 153.966 155.575 154.692 154.282 155.985C152.989 157.278 152.262 159.032 152.262 160.861C152.262 162.69 152.989 164.443 154.282 165.737C155.575 167.03 157.329 167.756 159.158 167.756Z" fill="#55D0FF"/>
<path d="M111.669 167.756H134.408C136.237 167.756 137.99 167.03 139.284 165.737C140.577 164.443 141.303 162.69 141.303 160.861C141.303 159.032 140.577 157.278 139.284 155.985C137.99 154.692 136.237 153.966 134.408 153.966H111.669C109.84 153.966 108.086 154.692 106.793 155.985C105.5 157.278 104.773 159.032 104.773 160.861C104.773 162.69 105.5 164.443 106.793 165.737C108.086 167.03 109.84 167.756 111.669 167.756Z" fill="#A9AFC4"/>
<path d="M197.633 45.7312L222.608 88.9969C223.266 90.1364 223.612 91.4291 223.613 92.7449C223.613 94.0608 223.267 95.3536 222.61 96.4935C221.953 97.6334 221.007 98.5804 219.868 99.2392C218.729 99.898 217.436 100.246 216.12 100.247H166.161C164.845 100.246 163.552 99.8994 162.412 99.2409C161.272 98.5824 160.326 97.6356 159.668 96.4956C159.01 95.3555 158.664 94.0624 158.664 92.7461C158.664 91.4298 159.011 90.1368 159.669 88.9969L184.649 45.7359C185.307 44.5969 186.253 43.6511 187.392 42.9934C188.532 42.3357 189.824 41.9892 191.139 41.9888C192.455 41.9883 193.747 42.3338 194.887 42.9907C196.027 43.6476 196.974 44.5927 197.633 45.7312Z" fill="#F5F5F5"/>
<path d="M216.125 101.644H166.161C164.6 101.64 163.068 101.225 161.717 100.442C160.367 99.6594 159.246 98.5354 158.467 97.1828C157.688 95.8302 157.278 94.2966 157.278 92.7357C157.279 91.1747 157.689 89.6413 158.469 88.289L183.444 45.0281C184.226 43.6752 185.35 42.5518 186.703 41.7708C188.057 40.9898 189.592 40.5786 191.155 40.5786C192.717 40.5786 194.253 40.9898 195.606 41.7708C196.96 42.5518 198.084 43.6752 198.866 45.0281L223.841 88.289C224.621 89.643 225.032 91.1786 225.031 92.7415C225.031 94.3044 224.619 95.8396 223.837 97.1929C223.055 98.5462 221.931 99.6699 220.577 100.451C219.223 101.232 217.688 101.644 216.125 101.644ZM185.867 46.4344L160.888 89.6953C160.354 90.6213 160.073 91.6712 160.074 92.7399C160.074 93.8085 160.356 94.8583 160.89 95.7838C161.424 96.7094 162.192 97.4781 163.118 98.013C164.043 98.5479 165.092 98.8301 166.161 98.8312H216.125C217.194 98.8301 218.243 98.5479 219.168 98.013C220.094 97.4781 220.862 96.7094 221.396 95.7838C221.93 94.8583 222.212 93.8085 222.212 92.7399C222.213 91.6712 221.932 90.6213 221.399 89.6953L196.438 46.4344C195.904 45.5043 195.134 44.7316 194.206 44.1942C193.278 43.6569 192.225 43.3739 191.152 43.3739C190.08 43.3739 189.027 43.6569 188.099 44.1942C187.171 44.7316 186.401 45.5043 185.867 46.4344Z" fill="#5E6175"/>
<path d="M186.233 57.4266V71.025L187.766 79.5141H191.131V79.5188L194.502 79.5141L196.039 71.0156L196.049 57.4078L186.233 57.4266ZM187.452 85.575H194.82V92.9438H187.452V85.575Z" fill="#55D0FF"/>
<path d="M74.6422 118.214H182.192V123.647H74.6422V118.214ZM33.3313 131.372H133.339V136.805H33.3313V131.372ZM33.3313 118.214H64.4797V123.647H33.3313V118.214Z" fill="#DEE1EC"/>
<path d="M213.448 161.583H210.636V158.77H213.448V161.583ZM213.448 154.083H210.636V151.27H213.448V154.083ZM213.448 146.583H210.636V143.77H213.448V146.583ZM213.448 139.083H210.636V136.27H213.448V139.083ZM213.448 131.583H210.636V128.77H213.448V131.583ZM213.448 124.083H210.636V121.27H213.448V124.083ZM213.448 116.583H210.636V113.77H213.448V116.583ZM213.448 109.083H210.636V106.27H213.448V109.083ZM203.042 158.887H205.855V161.7H203.042V158.887Z" fill="#A9AFC4"/>
</g>
<defs>
<linearGradient id="paint0_linear_264_32246" x1="152.581" y1="95.3297" x2="196.845" y2="95.3297" gradientUnits="userSpaceOnUse">
<stop stop-color="#CACFDD"/>
<stop offset="1" stop-color="#EEF0F1"/>
</linearGradient>
</defs>
</svg>
