<svg width="40" height="40" viewBox="0 0 40 40" fill="none" xmlns="http://www.w3.org/2000/svg">
<circle cx="20" cy="20" r="20" fill="#55D0FF" fill-opacity="0.16"/>
<path opacity="0.4" d="M20.1331 19.0577C20.0498 19.0493 19.9498 19.0493 19.8581 19.0577C17.8748 18.991 16.2998 17.366 16.2998 15.366C16.2998 13.3243 17.9498 11.666 19.9998 11.666C22.0415 11.666 23.6998 13.3243 23.6998 15.366C23.6915 17.366 22.1165 18.991 20.1331 19.0577Z" fill="#3689FD"/>
<path d="M15.9666 22.134C13.9499 23.484 13.9499 25.684 15.9666 27.0257C18.2583 28.559 22.0166 28.559 24.3083 27.0257C26.3249 25.6757 26.3249 23.4757 24.3083 22.134C22.0249 20.609 18.2666 20.609 15.9666 22.134Z" fill="#3689FD" stroke="#3689FD" stroke-width="1.5" stroke-linecap="round" stroke-linejoin="round"/>
</svg>
