<svg width="41" height="40" viewBox="0 0 41 40" fill="none" xmlns="http://www.w3.org/2000/svg">
<rect x="0.064209" width="40" height="40" rx="20" fill="#CB2027"/>
<g clip-path="url(#clip0_264_32079)">
<path d="M20.2815 12C15.8955 12.0007 13.5642 14.8107 13.5642 17.8747C13.5642 19.2953 14.3582 21.068 15.6295 21.63C15.9922 21.7933 15.9442 21.594 16.2562 20.4007C16.2809 20.3013 16.2682 20.2153 16.1882 20.1227C14.3709 18.0207 15.8335 13.6993 20.0222 13.6993C26.0842 13.6993 24.9515 22.0873 21.0769 22.0873C20.0782 22.0873 19.3342 21.3033 19.5695 20.3333C19.8549 19.178 20.4135 17.936 20.4135 17.1033C20.4135 15.0047 17.2869 15.316 17.2869 18.0967C17.2869 18.956 17.5909 19.536 17.5909 19.536C17.5909 19.536 16.5849 23.6 16.3982 24.3593C16.0822 25.6447 16.4409 27.7253 16.4722 27.9047C16.4915 28.0033 16.6022 28.0347 16.6642 27.9533C16.7635 27.8233 17.9795 26.0887 18.3202 24.8347C18.4442 24.378 18.9529 22.5247 18.9529 22.5247C19.2882 23.13 20.2549 23.6367 21.2849 23.6367C24.3489 23.6367 26.5635 20.9433 26.5635 17.6013C26.5529 14.3973 23.8109 12 20.2815 12V12Z" fill="white"/>
</g>
<defs>
<clipPath id="clip0_264_32079">
<rect width="16" height="16" fill="white" transform="translate(12.0642 12)"/>
</clipPath>
</defs>
</svg>
