<svg width="144" height="107" viewBox="0 0 144 107" fill="none" xmlns="http://www.w3.org/2000/svg">
<path d="M99.058 31C100.959 31 102.52 29.454 102.306 27.5651C101.584 21.1899 98.8634 15.172 94.4901 10.398C89.3381 4.77373 82.2657 1.28399 74.6676 0.616882C67.0695 -0.0502223 59.4973 2.15373 53.444 6.79415C47.3907 11.4346 43.2957 18.1746 41.9666 25.6852C40.6375 33.1958 42.1708 40.9319 46.2639 47.3678C50.3571 53.8038 56.7132 58.4725 64.0788 60.4534C71.4444 62.4343 79.2849 61.5836 86.0541 58.069C91.8002 55.0857 96.4204 50.3668 99.2868 44.6266C100.136 42.9259 99.2003 40.9381 97.4148 40.2857C95.6292 39.6333 93.6743 40.5684 92.7695 42.2403C90.5328 46.3732 87.099 49.7699 82.882 51.9594C77.6406 54.6807 71.5698 55.3394 65.8667 53.8056C60.1635 52.2718 55.2421 48.6568 52.0727 43.6735C48.9034 38.6902 47.7162 32.7002 48.7454 26.8848C49.7745 21.0694 52.9451 15.8506 57.6322 12.2576C62.3192 8.66452 68.1824 6.95801 74.0655 7.47454C79.9487 7.99108 85.4248 10.6932 89.414 15.048C92.6235 18.5516 94.6831 22.9204 95.3656 27.57C95.6417 29.4508 97.157 31 99.058 31Z" fill="url(#paint0_linear_264_30612)"/>
<path d="M6.89969 91.0781C8.37365 91.0781 9.44917 91.3802 10.1263 91.9844C10.8033 92.5885 11.1419 93.4349 11.1419 94.5234C11.1419 95.0182 11.0638 95.4896 10.9075 95.9375C10.7565 96.3802 10.5065 96.7734 10.1575 97.1172C9.80854 97.4557 9.34761 97.724 8.77469 97.9219C8.20698 98.1198 7.50646 98.2188 6.67313 98.2188H5.45438V102.5H3.57938V91.0781H6.89969ZM6.77469 92.6328H5.45438V96.6562H6.47781C7.06636 96.6562 7.56636 96.5885 7.97781 96.4531C8.38927 96.3125 8.70177 96.0911 8.91531 95.7891C9.12886 95.487 9.23563 95.0885 9.23563 94.5938C9.23563 93.9323 9.03511 93.4401 8.63406 93.1172C8.23823 92.7943 7.61844 92.6328 6.77469 92.6328ZM17.2984 93.6875C17.4443 93.6875 17.6031 93.6953 17.775 93.7109C17.9469 93.7266 18.0953 93.7474 18.2203 93.7734L18.0484 95.4922C17.9391 95.4609 17.8036 95.4375 17.6422 95.4219C17.4859 95.4062 17.3453 95.3984 17.2203 95.3984C16.8922 95.3984 16.5797 95.4531 16.2828 95.5625C15.9859 95.6667 15.7229 95.8281 15.4938 96.0469C15.2646 96.2604 15.0849 96.5286 14.9547 96.8516C14.8245 97.1745 14.7594 97.5495 14.7594 97.9766V102.5H12.9156V93.8516H14.3531L14.6031 95.375H14.6891C14.8609 95.0677 15.0745 94.7865 15.3297 94.5312C15.5849 94.276 15.8766 94.0729 16.2047 93.9219C16.538 93.7656 16.9026 93.6875 17.2984 93.6875ZM27.1581 98.1562C27.1581 98.875 27.0644 99.513 26.8769 100.07C26.6894 100.628 26.4159 101.099 26.0566 101.484C25.6972 101.865 25.2649 102.156 24.7597 102.359C24.2545 102.557 23.6842 102.656 23.0488 102.656C22.455 102.656 21.9107 102.557 21.4159 102.359C20.9211 102.156 20.4915 101.865 20.1269 101.484C19.7675 101.099 19.4889 100.628 19.2909 100.07C19.093 99.513 18.9941 98.875 18.9941 98.1562C18.9941 97.2031 19.1581 96.3958 19.4863 95.7344C19.8196 95.0677 20.2935 94.5599 20.9081 94.2109C21.5227 93.862 22.2545 93.6875 23.1034 93.6875C23.9003 93.6875 24.6034 93.862 25.2128 94.2109C25.8222 94.5599 26.2988 95.0677 26.6425 95.7344C26.9863 96.401 27.1581 97.2083 27.1581 98.1562ZM20.8847 98.1562C20.8847 98.7865 20.9602 99.3255 21.1113 99.7734C21.2675 100.221 21.5071 100.565 21.83 100.805C22.1529 101.039 22.5696 101.156 23.08 101.156C23.5904 101.156 24.0071 101.039 24.33 100.805C24.6529 100.565 24.8899 100.221 25.0409 99.7734C25.192 99.3255 25.2675 98.7865 25.2675 98.1562C25.2675 97.526 25.192 96.9922 25.0409 96.5547C24.8899 96.112 24.6529 95.776 24.33 95.5469C24.0071 95.3125 23.5878 95.1953 23.0722 95.1953C22.3118 95.1953 21.7571 95.4505 21.4081 95.9609C21.0592 96.4714 20.8847 97.2031 20.8847 98.1562ZM32.4319 102.656C31.6142 102.656 30.9058 102.497 30.3069 102.18C29.7079 101.862 29.247 101.375 28.9241 100.719C28.6011 100.062 28.4397 99.2292 28.4397 98.2188C28.4397 97.1667 28.6168 96.3073 28.9709 95.6406C29.3251 94.974 29.8147 94.4818 30.4397 94.1641C31.0699 93.8464 31.7913 93.6875 32.6038 93.6875C33.1194 93.6875 33.5855 93.7396 34.0022 93.8438C34.4241 93.9427 34.7808 94.0651 35.0725 94.2109L34.5256 95.6797C34.2079 95.5495 33.8824 95.4401 33.5491 95.3516C33.2157 95.263 32.8954 95.2188 32.5881 95.2188C32.0829 95.2188 31.661 95.3307 31.3225 95.5547C30.9892 95.7786 30.7392 96.112 30.5725 96.5547C30.411 96.9974 30.3303 97.5469 30.3303 98.2031C30.3303 98.8385 30.4136 99.375 30.5803 99.8125C30.747 100.245 30.9944 100.573 31.3225 100.797C31.6506 101.016 32.0543 101.125 32.5334 101.125C33.0074 101.125 33.4319 101.068 33.8069 100.953C34.1819 100.839 34.536 100.69 34.8694 100.508V102.102C34.5413 102.289 34.1897 102.427 33.8147 102.516C33.4397 102.609 32.9788 102.656 32.4319 102.656ZM40.0259 93.6875C40.7968 93.6875 41.4582 93.8464 42.0103 94.1641C42.5624 94.4818 42.9869 94.9323 43.2838 95.5156C43.5806 96.099 43.7291 96.7969 43.7291 97.6094V98.5938H37.9556C37.9765 99.4323 38.2004 100.078 38.6275 100.531C39.0598 100.984 39.664 101.211 40.44 101.211C40.9921 101.211 41.4869 101.159 41.9244 101.055C42.3671 100.945 42.8228 100.786 43.2916 100.578V102.07C42.8593 102.273 42.4192 102.422 41.9713 102.516C41.5233 102.609 40.9869 102.656 40.3619 102.656C39.5129 102.656 38.7655 102.492 38.1197 102.164C37.4791 101.831 36.9765 101.336 36.6119 100.68C36.2525 100.023 36.0728 99.2083 36.0728 98.2344C36.0728 97.2656 36.2369 96.4427 36.565 95.7656C36.8931 95.0885 37.3541 94.5729 37.9478 94.2188C38.5416 93.8646 39.2343 93.6875 40.0259 93.6875ZM40.0259 95.0703C39.4478 95.0703 38.9791 95.2578 38.6197 95.6328C38.2655 96.0078 38.0572 96.5573 37.9947 97.2812H41.9322C41.927 96.849 41.8541 96.4661 41.7134 96.1328C41.578 95.7995 41.3697 95.5391 41.0884 95.3516C40.8124 95.1641 40.4582 95.0703 40.0259 95.0703ZM51.2919 100.031C51.2919 100.599 51.1539 101.078 50.8778 101.469C50.6018 101.859 50.1981 102.156 49.6669 102.359C49.1408 102.557 48.495 102.656 47.7294 102.656C47.1252 102.656 46.6044 102.612 46.1669 102.523C45.7346 102.44 45.3257 102.31 44.9403 102.133V100.547C45.3518 100.74 45.8127 100.906 46.3231 101.047C46.8388 101.188 47.3257 101.258 47.7841 101.258C48.3882 101.258 48.8231 101.164 49.0888 100.977C49.3544 100.784 49.4872 100.529 49.4872 100.211C49.4872 100.023 49.4325 99.8568 49.3231 99.7109C49.219 99.5599 49.021 99.4062 48.7294 99.25C48.4429 99.0885 48.021 98.8958 47.4638 98.6719C46.9169 98.4531 46.4559 98.2344 46.0809 98.0156C45.7059 97.7969 45.4221 97.5339 45.2294 97.2266C45.0367 96.9141 44.9403 96.5156 44.9403 96.0312C44.9403 95.2656 45.2424 94.6849 45.8466 94.2891C46.4559 93.888 47.2606 93.6875 48.2606 93.6875C48.7919 93.6875 49.2919 93.7422 49.7606 93.8516C50.2346 93.9557 50.6981 94.1094 51.1513 94.3125L50.5731 95.6953C50.1825 95.5234 49.7893 95.3828 49.3934 95.2734C49.0028 95.1589 48.6044 95.1016 48.1981 95.1016C47.7242 95.1016 47.3622 95.1745 47.1122 95.3203C46.8674 95.4661 46.745 95.6745 46.745 95.9453C46.745 96.1484 46.8049 96.3203 46.9247 96.4609C47.0445 96.6016 47.2502 96.7422 47.5419 96.8828C47.8388 97.0234 48.2502 97.1979 48.7763 97.4062C49.2919 97.6042 49.7372 97.8125 50.1122 98.0312C50.4924 98.2448 50.7841 98.5078 50.9872 98.8203C51.1903 99.1328 51.2919 99.5365 51.2919 100.031ZM58.7688 100.031C58.7688 100.599 58.6307 101.078 58.3547 101.469C58.0786 101.859 57.675 102.156 57.1438 102.359C56.6177 102.557 55.9719 102.656 55.2063 102.656C54.6021 102.656 54.0813 102.612 53.6438 102.523C53.2115 102.44 52.8026 102.31 52.4172 102.133V100.547C52.8286 100.74 53.2896 100.906 53.8 101.047C54.3156 101.188 54.8026 101.258 55.2609 101.258C55.8651 101.258 56.3 101.164 56.5656 100.977C56.8313 100.784 56.9641 100.529 56.9641 100.211C56.9641 100.023 56.9094 99.8568 56.8 99.7109C56.6958 99.5599 56.4979 99.4062 56.2063 99.25C55.9198 99.0885 55.4979 98.8958 54.9406 98.6719C54.3938 98.4531 53.9328 98.2344 53.5578 98.0156C53.1828 97.7969 52.899 97.5339 52.7063 97.2266C52.5135 96.9141 52.4172 96.5156 52.4172 96.0312C52.4172 95.2656 52.7193 94.6849 53.3234 94.2891C53.9328 93.888 54.7375 93.6875 55.7375 93.6875C56.2688 93.6875 56.7688 93.7422 57.2375 93.8516C57.7115 93.9557 58.175 94.1094 58.6281 94.3125L58.05 95.6953C57.6594 95.5234 57.2661 95.3828 56.8703 95.2734C56.4797 95.1589 56.0813 95.1016 55.675 95.1016C55.201 95.1016 54.8391 95.1745 54.5891 95.3203C54.3443 95.4661 54.2219 95.6745 54.2219 95.9453C54.2219 96.1484 54.2818 96.3203 54.4016 96.4609C54.5214 96.6016 54.7271 96.7422 55.0188 96.8828C55.3156 97.0234 55.7271 97.1979 56.2531 97.4062C56.7688 97.6042 57.2141 97.8125 57.5891 98.0312C57.9693 98.2448 58.2609 98.5078 58.4641 98.8203C58.6672 99.1328 58.7688 99.5365 58.7688 100.031ZM67.7772 91.0781C69.2511 91.0781 70.3267 91.3802 71.0037 91.9844C71.6808 92.5885 72.0194 93.4349 72.0194 94.5234C72.0194 95.0182 71.9412 95.4896 71.785 95.9375C71.634 96.3802 71.384 96.7734 71.035 97.1172C70.686 97.4557 70.2251 97.724 69.6522 97.9219C69.0845 98.1198 68.384 98.2188 67.5506 98.2188H66.3319V102.5H64.4569V91.0781H67.7772ZM67.6522 92.6328H66.3319V96.6562H67.3553C67.9439 96.6562 68.4439 96.5885 68.8553 96.4531C69.2668 96.3125 69.5793 96.0911 69.7928 95.7891C70.0064 95.487 70.1131 95.0885 70.1131 94.5938C70.1131 93.9323 69.9126 93.4401 69.5116 93.1172C69.1157 92.7943 68.4959 92.6328 67.6522 92.6328ZM77.1838 93.6875C78.2775 93.6875 79.103 93.9297 79.6603 94.4141C80.2228 94.8984 80.5041 95.6536 80.5041 96.6797V102.5H79.1994L78.8478 101.273H78.7853C78.5405 101.586 78.2879 101.844 78.0275 102.047C77.7671 102.25 77.465 102.401 77.1213 102.5C76.7827 102.604 76.3686 102.656 75.8791 102.656C75.3634 102.656 74.9025 102.562 74.4963 102.375C74.09 102.182 73.7697 101.891 73.5353 101.5C73.3009 101.109 73.1838 100.615 73.1838 100.016C73.1838 99.125 73.5145 98.4557 74.1759 98.0078C74.8426 97.5599 75.8478 97.3125 77.1916 97.2656L78.6916 97.2109V96.7578C78.6916 96.1589 78.5509 95.7318 78.2697 95.4766C77.9936 95.2214 77.603 95.0938 77.0978 95.0938C76.6655 95.0938 76.2463 95.1562 75.84 95.2812C75.4338 95.4062 75.0379 95.5599 74.6525 95.7422L74.0588 94.4453C74.4806 94.2214 74.9598 94.0391 75.4963 93.8984C76.0379 93.7578 76.6004 93.6875 77.1838 93.6875ZM78.6838 98.3672L77.5666 98.4062C76.6499 98.4375 76.0067 98.5938 75.6369 98.875C75.2671 99.1562 75.0822 99.5417 75.0822 100.031C75.0822 100.458 75.2098 100.771 75.465 100.969C75.7202 101.161 76.0561 101.258 76.4728 101.258C77.1082 101.258 77.6343 101.078 78.0509 100.719C78.4728 100.354 78.6838 99.8203 78.6838 99.1172V98.3672ZM81.4497 93.8516H83.4497L85.2231 98.7891C85.3013 99.013 85.3716 99.2344 85.4341 99.4531C85.5018 99.6667 85.5591 99.8776 85.6059 100.086C85.658 100.294 85.6997 100.503 85.7309 100.711H85.7778C85.8299 100.44 85.9028 100.138 85.9966 99.8047C86.0955 99.4661 86.2049 99.1276 86.3247 98.7891L88.0278 93.8516H90.0044L86.2934 103.688C86.0799 104.25 85.8169 104.729 85.5044 105.125C85.1971 105.526 84.8325 105.828 84.4106 106.031C83.9888 106.24 83.507 106.344 82.9653 106.344C82.7049 106.344 82.4783 106.328 82.2856 106.297C82.0929 106.271 81.9289 106.242 81.7934 106.211V104.742C81.9028 104.768 82.0408 104.792 82.2075 104.812C82.3742 104.833 82.546 104.844 82.7231 104.844C83.0513 104.844 83.3351 104.779 83.5747 104.648C83.8143 104.518 84.0174 104.333 84.1841 104.094C84.3507 103.859 84.4888 103.591 84.5981 103.289L84.9028 102.477L81.4497 93.8516ZM100.77 93.6875C101.739 93.6875 102.468 93.9375 102.958 94.4375C103.453 94.9375 103.7 95.7396 103.7 96.8438V102.5H101.864V97.1719C101.864 96.5156 101.736 96.0208 101.481 95.6875C101.226 95.3542 100.838 95.1875 100.317 95.1875C99.588 95.1875 99.062 95.4219 98.7391 95.8906C98.4214 96.3542 98.2625 97.0286 98.2625 97.9141V102.5H96.4266V97.1719C96.4266 96.7344 96.3693 96.3698 96.2547 96.0781C96.1453 95.7812 95.976 95.5599 95.7469 95.4141C95.5177 95.263 95.2287 95.1875 94.8797 95.1875C94.3745 95.1875 93.9708 95.3021 93.6688 95.5312C93.3719 95.7604 93.1583 96.099 93.0281 96.5469C92.8979 96.9896 92.8328 97.5339 92.8328 98.1797V102.5H90.9969V93.8516H92.4266L92.6844 95.0156H92.7859C92.963 94.7135 93.1818 94.4661 93.4422 94.2734C93.7078 94.0755 94.0021 93.9297 94.325 93.8359C94.6479 93.737 94.9839 93.6875 95.3328 93.6875C95.9787 93.6875 96.5229 93.8021 96.9656 94.0312C97.4083 94.2552 97.7391 94.599 97.9578 95.0625H98.0984C98.3693 94.5938 98.7469 94.2474 99.2313 94.0234C99.7156 93.7995 100.229 93.6875 100.77 93.6875ZM109.388 93.6875C110.159 93.6875 110.82 93.8464 111.372 94.1641C111.924 94.4818 112.349 94.9323 112.646 95.5156C112.943 96.099 113.091 96.7969 113.091 97.6094V98.5938H107.318C107.338 99.4323 107.562 100.078 107.989 100.531C108.422 100.984 109.026 101.211 109.802 101.211C110.354 101.211 110.849 101.159 111.286 101.055C111.729 100.945 112.185 100.786 112.653 100.578V102.07C112.221 102.273 111.781 102.422 111.333 102.516C110.885 102.609 110.349 102.656 109.724 102.656C108.875 102.656 108.127 102.492 107.482 102.164C106.841 101.831 106.338 101.336 105.974 100.68C105.614 100.023 105.435 99.2083 105.435 98.2344C105.435 97.2656 105.599 96.4427 105.927 95.7656C106.255 95.0885 106.716 94.5729 107.31 94.2188C107.903 93.8646 108.596 93.6875 109.388 93.6875ZM109.388 95.0703C108.81 95.0703 108.341 95.2578 107.982 95.6328C107.627 96.0078 107.419 96.5573 107.357 97.2812H111.294C111.289 96.849 111.216 96.4661 111.075 96.1328C110.94 95.7995 110.732 95.5391 110.45 95.3516C110.174 95.1641 109.82 95.0703 109.388 95.0703ZM119.349 93.6875C120.323 93.6875 121.081 93.9401 121.622 94.4453C122.169 94.9453 122.443 95.75 122.443 96.8594V102.5H120.607V97.2031C120.607 96.5312 120.469 96.0286 120.193 95.6953C119.917 95.3568 119.49 95.1875 118.912 95.1875C118.073 95.1875 117.49 95.4453 117.162 95.9609C116.839 96.4766 116.677 97.224 116.677 98.2031V102.5H114.841V93.8516H116.271L116.529 95.0234H116.63C116.818 94.7214 117.05 94.474 117.326 94.2812C117.607 94.0833 117.919 93.9349 118.263 93.8359C118.612 93.737 118.974 93.6875 119.349 93.6875ZM127.912 101.172C128.151 101.172 128.388 101.151 128.623 101.109C128.857 101.062 129.071 101.008 129.263 100.945V102.336C129.06 102.424 128.797 102.5 128.474 102.562C128.151 102.625 127.816 102.656 127.467 102.656C126.977 102.656 126.537 102.576 126.146 102.414C125.756 102.247 125.446 101.964 125.217 101.562C124.987 101.161 124.873 100.607 124.873 99.8984V95.25H123.693V94.4297L124.959 93.7812L125.56 91.9297H126.717V93.8516H129.193V95.25H126.717V99.875C126.717 100.312 126.826 100.638 127.045 100.852C127.263 101.065 127.552 101.172 127.912 101.172ZM130.436 101.531C130.436 101.104 130.545 100.805 130.764 100.633C130.988 100.456 131.259 100.367 131.576 100.367C131.894 100.367 132.165 100.456 132.389 100.633C132.618 100.805 132.732 101.104 132.732 101.531C132.732 101.948 132.618 102.25 132.389 102.438C132.165 102.62 131.894 102.711 131.576 102.711C131.259 102.711 130.988 102.62 130.764 102.438C130.545 102.25 130.436 101.948 130.436 101.531ZM134.506 101.531C134.506 101.104 134.616 100.805 134.834 100.633C135.058 100.456 135.329 100.367 135.647 100.367C135.965 100.367 136.235 100.456 136.459 100.633C136.689 100.805 136.803 101.104 136.803 101.531C136.803 101.948 136.689 102.25 136.459 102.438C136.235 102.62 135.965 102.711 135.647 102.711C135.329 102.711 135.058 102.62 134.834 102.438C134.616 102.25 134.506 101.948 134.506 101.531ZM138.577 101.531C138.577 101.104 138.686 100.805 138.905 100.633C139.129 100.456 139.4 100.367 139.717 100.367C140.035 100.367 140.306 100.456 140.53 100.633C140.759 100.805 140.874 101.104 140.874 101.531C140.874 101.948 140.759 102.25 140.53 102.438C140.306 102.62 140.035 102.711 139.717 102.711C139.4 102.711 139.129 102.62 138.905 102.438C138.686 102.25 138.577 101.948 138.577 101.531Z" fill="#2B2B2B"/>
<defs>
<linearGradient id="paint0_linear_264_30612" x1="91.5" y1="13.5" x2="72" y2="61.5" gradientUnits="userSpaceOnUse">
<stop stop-color="#55D0FF"/>
<stop offset="1" stop-color="#F0F0F0"/>
</linearGradient>
</defs>
</svg>
