<svg width="20" height="20" viewBox="0 0 20 20" fill="none" xmlns="http://www.w3.org/2000/svg">
<path d="M3.27305 7.73065C3.27308 4.03444 6.28666 1.0415 9.99986 1.0415C13.713 1.0415 16.7266 4.03446 16.7266 7.7307C16.7267 8.59045 16.7845 9.23929 17.1809 9.82254C17.3319 10.0413 17.6176 10.4112 17.8079 10.7086C18.0211 11.0418 18.2294 11.4435 18.3009 11.9116C18.5345 13.439 17.4577 14.4279 16.3853 14.871C12.608 16.4317 7.39164 16.4317 3.61439 14.871C2.54197 14.4279 1.46514 13.439 1.69873 11.9116C1.77033 11.4435 1.97861 11.0418 2.19178 10.7086C2.38212 10.4111 2.66791 10.0412 2.81877 9.82254C3.21516 9.23929 3.27297 8.59037 3.27305 7.73065Z" fill="#3689FD"/>
<path opacity="0.4" d="M12.3147 18.2925C11.6452 18.7136 10.8489 18.9564 9.99869 18.9564C9.14852 18.9564 8.35227 18.7136 7.68279 18.2925C7.08858 17.9188 6.79148 17.732 6.89545 17.4214C6.99942 17.1108 7.40939 17.1456 8.22932 17.2152C9.40194 17.3146 10.5954 17.3146 11.7681 17.2152C12.588 17.1456 12.998 17.1108 13.102 17.4214C13.2059 17.732 12.9089 17.9188 12.3147 18.2925Z" fill="#3689FD"/>
</svg>
