<svg width="25" height="25" viewBox="0 0 25 25" fill="none" xmlns="http://www.w3.org/2000/svg">
<path d="M12.1947 11.7787C12.0947 11.7687 11.9747 11.7687 11.8647 11.7787C9.48473 11.6987 7.59473 9.74869 7.59473 7.34869C7.59473 4.89869 9.57473 2.90869 12.0347 2.90869C14.4847 2.90869 16.4747 4.89869 16.4747 7.34869C16.4647 9.74869 14.5747 11.6987 12.1947 11.7787Z" stroke="#2B2B2B" stroke-width="1.5" stroke-linecap="round" stroke-linejoin="round"/>
<path d="M7.19464 15.4687C4.77464 17.0887 4.77464 19.7287 7.19464 21.3387C9.94464 23.1787 14.4546 23.1787 17.2046 21.3387C19.6246 19.7187 19.6246 17.0787 17.2046 15.4687C14.4646 13.6387 9.95464 13.6387 7.19464 15.4687Z" stroke="#2B2B2B" stroke-width="1.5" stroke-linecap="round" stroke-linejoin="round"/>
</svg>
