<svg width="41" height="40" viewBox="0 0 41 40" fill="none" xmlns="http://www.w3.org/2000/svg">
<rect x="0.935791" width="40" height="40" rx="20" fill="#FF5722"/>
<g clip-path="url(#clip0_264_32096)">
<path d="M27.1524 18.2053C26.6471 18.2053 26.2024 18.4179 25.8751 18.7493C24.6718 17.9039 23.0491 17.3599 21.2511 17.3019L22.1851 13.0313L25.1591 13.7086C25.1591 14.4473 25.7524 15.0506 26.4804 15.0506C27.2224 15.0506 27.8191 14.4313 27.8191 13.6919C27.8191 12.9526 27.2264 12.3333 26.4811 12.3333C25.9618 12.3333 25.5138 12.6513 25.2904 13.0859L22.0058 12.3473C21.8404 12.3026 21.6784 12.4226 21.6344 12.5906L20.6091 17.2986C18.8251 17.3739 17.2198 17.9173 16.0124 18.7633C15.6851 18.4179 15.2231 18.2053 14.7178 18.2053C12.8431 18.2053 12.2291 20.7579 13.9458 21.6306C13.8851 21.9006 13.8578 22.1886 13.8578 22.4759C13.8578 25.3433 17.0411 27.6666 20.9498 27.6666C24.8751 27.6666 28.0584 25.3433 28.0584 22.4759C28.0584 22.1886 28.0284 21.8873 27.9544 21.6166C29.6364 20.7406 29.0171 18.2066 27.1524 18.2053ZM16.6698 21.8119C16.6698 21.0593 17.2631 20.4533 18.0084 20.4533C18.7364 20.4533 19.3304 21.0553 19.3304 21.8119C19.3304 22.5513 18.7371 23.1539 18.0084 23.1539C17.2664 23.1573 16.6698 22.5513 16.6698 21.8119ZM23.8958 25.0106C22.6684 26.2559 19.2051 26.2559 17.9771 25.0106C17.8418 24.8906 17.8418 24.6786 17.9771 24.5419C18.0951 24.4219 18.3044 24.4219 18.4224 24.5419C19.3598 25.5173 22.4691 25.5339 23.4471 24.5419C23.5651 24.4219 23.7744 24.4219 23.8924 24.5419C24.0304 24.6793 24.0304 24.8913 23.8958 25.0106ZM23.8684 23.1566C23.1404 23.1566 22.5471 22.5546 22.5471 21.8159C22.5471 21.0633 23.1404 20.4573 23.8684 20.4573C24.6104 20.4573 25.2071 21.0593 25.2071 21.8159C25.2038 22.5513 24.6104 23.1566 23.8684 23.1566Z" fill="white"/>
</g>
<defs>
<clipPath id="clip0_264_32096">
<rect width="16" height="16" fill="white" transform="translate(12.9358 12)"/>
</clipPath>
</defs>
</svg>
