<svg width="26" height="26" viewBox="0 0 26 26" fill="none" xmlns="http://www.w3.org/2000/svg">
<g clip-path="url(#clip0_264_31637)">
<path d="M0.00730772 2.089C-0.0573976 1.55537 0.314519 1.0703 0.848144 1.0056C1.38177 0.940893 1.86684 1.31281 1.93154 1.84643L2.51367 6.35788C4.71282 3.09154 8.43193 1.07025 12.4421 1.07025C17.5519 1.07025 22.0957 4.32044 23.7612 9.13916C23.9391 9.64043 23.6642 10.1902 23.1629 10.3681C23.0659 10.4004 22.9527 10.4166 22.8395 10.4166C22.4353 10.4166 22.0633 10.1578 21.9178 9.76973C20.5272 5.7272 16.7111 3.01063 12.4422 3.01063C8.94941 3.01063 5.69921 4.85401 3.88818 7.79699L8.7392 7.24722C9.27282 7.18251 9.75789 7.57063 9.80645 8.10426C9.85495 8.63788 9.48303 9.12295 8.94941 9.17151L1.96389 9.96384C1.93154 9.96384 1.88304 9.96384 1.85069 9.96384C1.36556 9.96384 0.945147 9.60808 0.896645 9.12301L0.00730772 2.089ZM24.0361 15.0736L17.0506 15.8659C16.5169 15.9306 16.1289 16.3995 16.1935 16.9331C16.2582 17.4668 16.7271 17.8548 17.2608 17.7902L21.4812 17.3213C19.8318 20.7978 16.3229 23.0455 12.4259 23.0455C8.04381 23.0455 4.09828 20.1187 2.83703 15.9306C2.67532 15.4132 2.1417 15.1221 1.62427 15.2838C1.10685 15.4454 0.815791 15.9791 0.977444 16.4965C1.70507 18.9059 3.22509 21.0727 5.23018 22.5926C7.31612 24.1612 9.80634 25.002 12.4259 25.002C17.2123 25.002 21.4974 22.1561 23.3892 17.8386L24.0684 23.2233C24.1331 23.7084 24.5535 24.0641 25.0224 24.0641C25.0709 24.0641 25.1033 24.0641 25.1518 24.0641C25.6854 23.9994 26.0573 23.5143 25.9926 22.9807L25.0871 15.9468C25.0386 15.397 24.5697 15.0251 24.0361 15.0736Z" fill="white"/>
</g>
<defs>
<clipPath id="clip0_264_31637">
<rect width="26" height="26" fill="white" transform="matrix(1 0 0 -1 0 26)"/>
</clipPath>
</defs>
</svg>
