<svg width="16" height="16" viewBox="0 0 16 16" fill="none" xmlns="http://www.w3.org/2000/svg">
<path d="M13.4547 2.78798C12.5608 2.69323 11.681 2.49432 10.8333 2.19531C10.0557 1.92054 9.30968 1.5634 8.608 1.12998C8.42498 1.01796 8.21458 0.958679 8 0.958679C7.78542 0.958679 7.57502 1.01796 7.392 1.12998C6.69033 1.56341 5.9443 1.92055 5.16667 2.19531C4.31897 2.49432 3.43922 2.69323 2.54533 2.78798C2.2586 2.81751 1.99301 2.95233 1.79992 3.16635C1.60683 3.38037 1.49997 3.65839 1.5 3.94664V7.41064C1.50056 8.68863 1.84262 9.94326 2.49079 11.0447C3.13896 12.1461 4.0697 13.0543 5.18667 13.6753L7.43333 14.9233C7.60647 15.0202 7.80158 15.0711 8 15.0711C8.19842 15.0711 8.39353 15.0202 8.56667 14.9233L10.8133 13.6753C11.9303 13.0543 12.861 12.1461 13.5092 11.0447C14.1574 9.94326 14.4994 8.68863 14.5 7.41064V3.94664C14.5 3.65839 14.3932 3.38037 14.2001 3.16635C14.007 2.95233 13.7414 2.81751 13.4547 2.78798Z" fill="#0DB561"/>
<path d="M7.53326 10.1553C7.33731 10.1557 7.14811 10.0838 7.00193 9.95332L5.10193 8.26466C5.02012 8.19584 4.95293 8.11133 4.90434 8.01612C4.85574 7.9209 4.82672 7.81691 4.81899 7.71029C4.81126 7.60367 4.82498 7.49658 4.85933 7.39535C4.89368 7.29412 4.94798 7.2008 5.019 7.12091C5.09003 7.04101 5.17635 6.97617 5.27286 6.93019C5.36937 6.88422 5.47411 6.85806 5.58091 6.85325C5.6877 6.84844 5.79437 6.86508 5.89462 6.9022C5.99488 6.93931 6.08667 6.99614 6.16459 7.06932L7.48259 8.23999L10.1159 5.43066C10.2611 5.27604 10.4617 5.18534 10.6737 5.17846C10.8857 5.17159 11.0917 5.2491 11.2466 5.39399C11.4015 5.5391 11.4925 5.73978 11.4995 5.95193C11.5065 6.16407 11.4289 6.37032 11.2839 6.52532L8.11726 9.90266C8.04261 9.98282 7.9522 10.0467 7.85171 10.0903C7.75122 10.1339 7.6428 10.1563 7.53326 10.156V10.1553Z" fill="white"/>
</svg>
