<svg width="24" height="24" viewBox="0 0 24 24" fill="none" xmlns="http://www.w3.org/2000/svg">
<path d="M3.77 10C3.34 10 3 9.66 3 9.23V6.92C3 4.21 5.21 2 7.92 2H10.23C10.66 2 11 2.34 11 2.77C11 3.2 10.66 3.54 10.23 3.54H7.92C6.05 3.54 4.54 5.06 4.54 6.92V9.23C4.54 9.66 4.19 10 3.77 10Z" fill="white"/>
<path d="M22.23 10C21.81 10 21.46 9.66 21.46 9.23V6.92C21.46 5.05 19.94 3.54 18.08 3.54H15.77C15.34 3.54 15 3.19 15 2.77C15 2.35 15.34 2 15.77 2H18.08C20.79 2 23 4.21 23 6.92V9.23C23 9.66 22.66 10 22.23 10Z" fill="white"/>
<path d="M18.0799 22H16.6899C16.2699 22 15.9199 21.66 15.9199 21.23C15.9199 20.81 16.2599 20.46 16.6899 20.46H18.0799C19.9499 20.46 21.4599 18.94 21.4599 17.08V15.7C21.4599 15.28 21.7999 14.93 22.2299 14.93C22.6499 14.93 22.9999 15.27 22.9999 15.7V17.08C22.9999 19.79 20.7899 22 18.0799 22Z" fill="white"/>
<path d="M10.23 22H7.92C5.21 22 3 19.79 3 17.08V14.77C3 14.34 3.34 14 3.77 14C4.2 14 4.54 14.34 4.54 14.77V17.08C4.54 18.95 6.06 20.46 7.92 20.46H10.23C10.65 20.46 11 20.8 11 21.23C11 21.66 10.66 22 10.23 22Z" fill="white"/>
<path d="M19.46 11.23H18.1H7.90002H6.54002C6.11002 11.23 5.77002 11.58 5.77002 12C5.77002 12.42 6.11002 12.77 6.54002 12.77H7.90002H18.1H19.46C19.89 12.77 20.23 12.42 20.23 12C20.23 11.58 19.89 11.23 19.46 11.23Z" fill="white"/>
<path d="M7.8999 13.94V14.27C7.8999 15.93 9.2399 17.27 10.8999 17.27H15.0999C16.7599 17.27 18.0999 15.93 18.0999 14.27V13.94C18.0999 13.82 18.0099 13.73 17.8899 13.73H8.1099C7.9899 13.73 7.8999 13.82 7.8999 13.94Z" fill="white"/>
<path d="M7.8999 10.06V9.72998C7.8999 8.06998 9.2399 6.72998 10.8999 6.72998H15.0999C16.7599 6.72998 18.0999 8.06998 18.0999 9.72998V10.06C18.0999 10.18 18.0099 10.27 17.8899 10.27H8.1099C7.9899 10.27 7.8999 10.18 7.8999 10.06Z" fill="white"/>
</svg>
