<svg width="80" height="80" viewBox="0 0 80 80" fill="none" xmlns="http://www.w3.org/2000/svg">
<rect width="80" height="80" fill="#474747"/>
<g id="Onbording 45" clip-path="url(#clip0_4_32)">
<rect width="390" height="844" transform="translate(-155 -220)" fill="#DAF5FF"/>
<g id="Frame 1984077882">
<g id="Frame 5">
<g id="Frame 1984077850">
<g id="Frame">
<g id="Group">
<path id="Vector" d="M29.8877 46.773C24.8721 47.0031 18.3451 49.3422 15.7267 59.1792C15.7022 59.2513 15.7063 59.33 15.7381 59.3991C15.7698 59.4682 15.8269 59.5226 15.8974 59.551C15.9616 59.5881 16.0376 59.5989 16.1095 59.5811C16.1815 59.5633 16.2437 59.5183 16.2831 59.4555C19.6179 54.9463 25.3781 49.4399 33.8796 48.8108C40.5002 48.3213 41.6651 44.8396 43.1398 40.4317C44.4296 36.5766 45.8915 32.2072 51.1923 28.9942C51.5776 28.7599 52.0136 28.6217 52.4636 28.5914C52.9135 28.561 53.3642 28.6395 53.7774 28.82C54.6837 29.2188 56.4635 29.8796 58.1899 29.8669C63.4018 29.8106 66.7534 25.4189 67.8548 23.9763C69.761 21.4778 71.2559 18.1097 71.8521 14.9664C72.5093 11.5008 71.9859 8.75831 70.3781 7.24409C69.2642 6.19503 67.7843 5.83096 66.2687 5.83096C64.9364 5.85866 63.6148 6.07568 62.3437 6.47549C58.9963 7.47659 55.7677 9.39565 53.8624 10.8578C51.9917 12.2935 47.0227 16.1067 47.5124 21.121C47.5737 21.7474 47.8463 22.5852 48.301 23.5428C48.5896 24.1591 48.6485 24.8582 48.4673 25.5141C48.286 26.17 47.8765 26.7396 47.3124 27.1203C43.0054 29.9994 41.7595 33.778 40.5543 37.4328C39.0301 42.0541 37.5904 46.4197 29.8877 46.773ZM61.6259 8.89299C61.8294 8.81362 62.0337 8.73685 62.2387 8.66268C62.4336 8.59223 62.6484 8.60208 62.836 8.69006C63.0237 8.77805 63.1686 8.93695 63.2391 9.13182C63.3095 9.32669 63.2997 9.54157 63.2117 9.72918C63.1237 9.91679 62.9648 10.0618 62.7699 10.1322C62.5776 10.2017 62.3859 10.2738 62.1948 10.3485C62.0018 10.4238 61.7867 10.4195 61.5969 10.3363C61.4072 10.2531 61.2582 10.098 61.1828 9.90495C61.1074 9.71194 61.1118 9.49689 61.195 9.30712C61.2782 9.11734 61.4333 8.96837 61.6263 8.89299H61.6259ZM52.3498 14.6378C53.1752 13.8953 53.9246 13.3202 54.4718 12.9003C55.7624 11.9236 57.1312 11.0548 58.5643 10.3025C58.7474 10.2056 58.9616 10.1853 59.1596 10.2463C59.3577 10.3072 59.5234 10.4443 59.6203 10.6274C59.7173 10.8106 59.7375 11.0247 59.6766 11.2227C59.6156 11.4208 59.4785 11.5865 59.2954 11.6835C57.9408 12.396 56.6461 13.2173 55.4242 14.1391C54.8963 14.5441 54.1749 15.0978 53.3948 15.7996C53.3185 15.8682 53.2295 15.9211 53.1327 15.9553C53.036 15.9895 52.9335 16.0043 52.831 15.9989C52.7286 15.9935 52.6282 15.9679 52.5356 15.9237C52.443 15.8795 52.36 15.8175 52.2914 15.7412C52.2228 15.6649 52.1699 15.5759 52.1357 15.4791C52.1015 15.3824 52.0867 15.2799 52.0921 15.1774C52.0975 15.075 52.123 14.9746 52.1673 14.882C52.2115 14.7894 52.2735 14.7065 52.3498 14.6378ZM17.944 29.5969C21.5856 29.3077 22.2074 27.3402 23.0681 24.6171C23.8377 22.1821 24.7101 19.4221 27.899 17.3694C28.1696 17.193 28.4807 17.0884 28.8029 17.0654C29.1251 17.0425 29.4479 17.102 29.7407 17.2383C30.2429 17.4727 31.2313 17.8619 32.1626 17.8514C35.0323 17.8157 36.9188 15.1938 37.5387 14.3322C39.7673 11.2353 40.9137 6.19284 39.0531 4.33221C37.0932 2.37346 32.4143 4.52846 29.8693 6.6019C28.8101 7.46487 25.9967 9.75721 26.2663 12.7153C26.3395 13.2055 26.4864 13.6818 26.7021 14.128C26.901 14.5679 26.9418 15.0631 26.8178 15.5297C26.6938 15.9963 26.4125 16.4057 26.0215 16.6889C23.6067 18.4033 22.8521 20.5122 22.1223 22.5516C21.1829 25.1766 20.2115 27.8913 15.4717 28.1264C11.7535 28.3125 9.26243 30.7969 7.87134 35.7188C9.91087 33.0038 13.2143 29.9725 17.944 29.5969ZM52.9757 57.6985C50.5343 59.375 49.7465 61.471 48.9843 63.4985C48.0037 66.1086 46.9896 68.8074 42.2468 68.9672C38.5254 69.093 35.9954 71.538 34.5271 76.4367C36.6092 73.755 39.9596 70.7766 44.6951 70.476C48.3406 70.2444 48.9934 68.2871 49.8968 65.5778C50.7046 63.156 51.6204 60.4096 54.841 58.4075C55.1144 58.2353 55.4271 58.1356 55.7497 58.1178C56.0723 58.0999 56.3941 58.1646 56.6848 58.3056C57.1832 58.5475 58.1595 58.9538 59.0977 58.9571H59.1134C61.9743 58.9571 63.8956 56.3736 64.5278 55.5235C66.8048 52.4624 68.0307 47.4385 66.1996 45.5494C65.6485 44.9808 64.8701 44.7446 63.9793 44.7446C61.7523 44.7446 58.8221 46.2211 56.9813 47.6733C55.9087 48.5194 53.0595 50.7671 53.2826 53.7288C53.348 54.22 53.4874 54.6985 53.6962 55.148C53.8883 55.591 53.9216 56.0868 53.7903 56.5516C53.659 57.0163 53.3713 57.4214 52.9757 57.6985Z" fill="black"/>
</g>
</g>
</g>
</g>
</g>
</g>
<defs>
<clipPath id="clip0_4_32">
<rect width="390" height="844" fill="white" transform="translate(-155 -220)"/>
</clipPath>
</defs>
</svg>
