<svg width="80" height="80" viewBox="0 0 80 80" fill="none" xmlns="http://www.w3.org/2000/svg">
<path d="M29.8879 46.7727C24.8722 47.0029 18.3452 49.342 15.7268 59.179C15.7023 59.251 15.7064 59.3297 15.7382 59.3988C15.77 59.468 15.827 59.5223 15.8976 59.5507C15.9617 59.5879 16.0377 59.5987 16.1097 59.5809C16.1816 59.5631 16.2438 59.518 16.2832 59.4553C19.618 54.946 25.3782 49.4396 33.8797 48.8106C40.5004 48.321 41.6652 44.8393 43.1399 40.4315C44.4297 36.5763 45.8916 32.207 51.1924 28.994C51.5777 28.7596 52.0137 28.6214 52.4637 28.5911C52.9137 28.5608 53.3643 28.6392 53.7776 28.8198C54.6838 29.2185 56.4637 29.8793 58.1901 29.8667C63.4019 29.8104 66.7535 25.4187 67.8549 23.976C69.7612 21.4776 71.256 18.1095 71.8522 14.9662C72.5094 11.5006 71.986 8.75806 70.3782 7.24384C69.2643 6.19478 67.7844 5.83072 66.2688 5.83072C64.9365 5.85842 63.615 6.07543 62.3438 6.47525C58.9965 7.47634 55.7679 9.39541 53.8626 10.8576C51.9918 12.2932 47.0229 16.1065 47.5126 21.1207C47.5738 21.7471 47.8465 22.5849 48.3012 23.5426C48.5897 24.1589 48.6486 24.858 48.4674 25.5139C48.2861 26.1698 47.8766 26.7394 47.3126 27.1201C43.0055 29.9992 41.7596 33.7778 40.5544 37.4326C39.0302 42.0538 37.5905 46.4195 29.8879 46.7727ZM61.626 8.89275C61.8295 8.81337 62.0338 8.7366 62.2388 8.66244C62.4337 8.59199 62.6486 8.60184 62.8362 8.68982C63.0238 8.7778 63.1688 8.93671 63.2392 9.13158C63.3097 9.32645 63.2998 9.54133 63.2118 9.72894C63.1238 9.91654 62.9649 10.0615 62.7701 10.132C62.5778 10.2014 62.386 10.2735 62.1949 10.3482C62.0019 10.4236 61.7868 10.4192 61.5971 10.336C61.4073 10.2529 61.2583 10.0977 61.1829 9.9047C61.1076 9.7117 61.1119 9.49665 61.1951 9.30687C61.2783 9.11709 61.4335 8.96813 61.6265 8.89275H61.626ZM52.3499 14.6376C53.1754 13.8951 53.9247 13.3199 54.4719 12.9001C55.7625 11.9234 57.1313 11.0545 58.5644 10.3023C58.7476 10.2053 58.9617 10.1851 59.1597 10.246C59.3578 10.307 59.5235 10.4441 59.6204 10.6272C59.7174 10.8103 59.7376 11.0245 59.6767 11.2225C59.6158 11.4205 59.4787 11.5863 59.2955 11.6832C57.9409 12.3958 56.6462 13.217 55.4243 14.1388C54.8965 14.5438 54.1751 15.0976 53.3949 15.7993C53.3186 15.8679 53.2296 15.9208 53.1328 15.955C53.0361 15.9893 52.9336 16.0041 52.8311 15.9986C52.7287 15.9932 52.6283 15.9677 52.5357 15.9235C52.4431 15.8793 52.3602 15.8172 52.2915 15.741C52.2229 15.6647 52.17 15.5756 52.1358 15.4789C52.1016 15.3822 52.0868 15.2796 52.0922 15.1772C52.0976 15.0747 52.1232 14.9743 52.1674 14.8818C52.2116 14.7892 52.2736 14.7062 52.3499 14.6376ZM17.9441 29.5967C21.5857 29.3074 22.2076 27.3399 23.0682 24.6168C23.8379 22.1818 24.7102 19.4218 27.8991 17.3692C28.1697 17.1927 28.4808 17.0881 28.803 17.0652C29.1252 17.0423 29.448 17.1017 29.7408 17.2381C30.243 17.4724 31.2315 17.8617 32.1627 17.8512C35.0324 17.8154 36.919 15.1935 37.5388 14.332C39.7674 11.2351 40.9138 6.19259 39.0532 4.33197C37.0933 2.37322 32.4144 4.52822 29.8694 6.60166C28.8102 7.46462 25.9968 9.75697 26.2665 12.7151C26.3396 13.2053 26.4865 13.6816 26.7022 14.1278C26.9011 14.5677 26.942 15.0628 26.8179 15.5294C26.6939 15.996 26.4126 16.4055 26.0216 16.6887C23.6068 18.4031 22.8522 20.512 22.1224 22.5513C21.183 25.1763 20.2116 27.891 15.4718 28.1262C11.7536 28.3123 9.26255 30.7967 7.87146 35.7185C9.91099 33.0035 13.2144 29.9723 17.9441 29.5967ZM52.9758 57.6982C50.5344 59.3748 49.7466 61.4707 48.9844 63.4982C48.0038 66.1084 46.9897 68.8071 42.2469 68.967C38.5255 69.0928 35.9955 71.5378 34.5272 76.4365C36.6093 73.7548 39.9597 70.7763 44.6952 70.4757C48.3407 70.2442 48.9935 68.2868 49.8969 65.5776C50.7047 63.1557 51.6205 60.4093 54.8412 58.4073C55.1145 58.2351 55.4272 58.1353 55.7498 58.1175C56.0724 58.0997 56.3942 58.1644 56.6849 58.3054C57.1833 58.5473 58.1596 58.9535 59.0979 58.9568H59.1135C61.9744 58.9568 63.8957 56.3734 64.5279 55.5232C66.8049 52.4621 68.0308 47.4382 66.1997 45.5492C65.6487 44.9806 64.8702 44.7443 63.9794 44.7443C61.7524 44.7443 58.8223 46.2209 56.9815 47.6731C55.9088 48.5192 53.0596 50.7668 53.2827 53.7285C53.3481 54.2198 53.4875 54.6983 53.6963 55.1477C53.8884 55.5908 53.9217 56.0866 53.7904 56.5513C53.6591 57.0161 53.3714 57.4212 52.9758 57.6982Z" fill="black"/>
</svg>
