<svg width="41" height="40" viewBox="0 0 41 40" fill="none" xmlns="http://www.w3.org/2000/svg">
<rect x="0.935791" width="40" height="40" rx="20" fill="#1DA1F2"/>
<g clip-path="url(#clip0_264_32074)">
<path d="M17.9396 26.4022C23.9439 26.4022 27.2275 21.4563 27.2275 17.1675C27.2275 17.027 27.2246 16.8872 27.2182 16.7479C27.8572 16.2883 28.4085 15.7192 28.8466 15.0673C28.2617 15.3258 27.6322 15.4998 26.9719 15.5783C27.6459 15.1765 28.1633 14.5408 28.4074 13.7831C27.7666 14.161 27.0656 14.4275 26.3346 14.5709C25.7389 13.94 24.8908 13.5455 23.9518 13.5455C22.1491 13.5455 20.6872 14.999 20.6872 16.7907C20.6872 17.0454 20.7159 17.2931 20.7719 17.5307C18.0588 17.395 15.6531 16.1035 14.043 14.1396C13.753 14.635 13.6005 15.1979 13.601 15.771C13.601 16.897 14.1773 17.8911 15.0537 18.4726C14.5353 18.4569 14.0283 18.3177 13.5753 18.0667C13.5748 18.0803 13.5748 18.0936 13.5748 18.1082C13.5748 19.68 14.7 20.9924 16.1937 21.2897C15.9131 21.3657 15.6236 21.4041 15.3329 21.4039C15.1229 21.4039 14.9183 21.3834 14.7194 21.3454C15.135 22.635 16.3401 23.5735 17.7688 23.5997C16.6515 24.4704 15.2441 24.989 13.7144 24.989C13.4542 24.9892 13.1942 24.9742 12.9358 24.944C14.3805 25.8647 16.096 26.4019 17.9397 26.4019" fill="white"/>
</g>
<defs>
<clipPath id="clip0_264_32074">
<rect width="16" height="16" fill="white" transform="translate(12.9358 12)"/>
</clipPath>
</defs>
</svg>
