<svg width="41" height="40" viewBox="0 0 41 40" fill="none" xmlns="http://www.w3.org/2000/svg">
<rect x="0.978516" width="40" height="40" rx="20" fill="#55D0FF"/>
<g clip-path="url(#clip0_264_32091)">
<path fill-rule="evenodd" clip-rule="evenodd" d="M26.2842 14.6721C24.8809 13.2671 23.0146 12.493 21.0263 12.4922C16.9294 12.4922 13.595 15.8264 13.5934 19.9245C13.5928 21.2346 13.935 22.5134 14.5855 23.6406L13.531 27.4922L17.4713 26.4586C18.5571 27.0508 19.7794 27.3629 21.0233 27.3633H21.0264C25.123 27.3633 28.4577 24.0287 28.4592 19.9305C28.4601 17.9443 27.6876 16.0769 26.2842 14.6721ZM21.0263 26.108H21.0238C19.9153 26.1075 18.8281 25.8096 17.8794 25.2469L17.6539 25.1129L15.3156 25.7263L15.9398 23.4466L15.7928 23.2128C15.1744 22.2292 14.8478 21.0923 14.8484 19.925C14.8496 16.5188 17.6211 13.7476 21.0288 13.7476C22.679 13.7481 24.2301 14.3915 25.3965 15.5593C26.5629 16.7271 27.2049 18.2792 27.2043 19.93C27.2028 23.3365 24.4315 26.108 21.0263 26.108ZM24.4151 21.481C24.2294 21.388 23.3163 20.9388 23.146 20.8768C22.9759 20.8148 22.8519 20.7839 22.7282 20.9698C22.6043 21.1556 22.2485 21.574 22.1401 21.6979C22.0317 21.8219 21.9235 21.8374 21.7377 21.7444C21.5519 21.6515 20.9536 21.4553 20.2441 20.8226C19.692 20.3301 19.3193 19.7219 19.2109 19.5361C19.1027 19.35 19.21 19.2592 19.2924 19.157C19.4935 18.9074 19.6948 18.6456 19.7567 18.5218C19.8187 18.3978 19.7876 18.2893 19.7411 18.1964C19.6948 18.1035 19.3234 17.1893 19.1686 16.8173C19.0178 16.4553 18.8648 16.5042 18.7507 16.4985C18.6425 16.4931 18.5186 16.492 18.3947 16.492C18.271 16.492 18.0697 16.5385 17.8994 16.7245C17.7292 16.9104 17.2495 17.3597 17.2495 18.2738C17.2495 19.188 17.915 20.0711 18.0078 20.1951C18.1007 20.319 19.3175 22.1949 21.1805 22.9993C21.6236 23.1909 21.9695 23.305 22.2393 23.3906C22.6843 23.532 23.089 23.512 23.4091 23.4642C23.766 23.4109 24.5078 23.0149 24.6627 22.5811C24.8174 22.1472 24.8174 21.7754 24.7709 21.6979C24.7246 21.6205 24.6007 21.574 24.4151 21.481Z" fill="white"/>
</g>
<defs>
<clipPath id="clip0_264_32091">
<rect width="16" height="16" fill="white" transform="translate(12.9785 12)"/>
</clipPath>
</defs>
</svg>
